SplineFontDB: 3.0
FontName: EuphoriaScript-Regular
FullName: EuphoriaScript-Regular
FamilyName: Euphoria Script
Weight: Book
Copyright: Copyright (c) 2012 Sabrina Mariela Lopez (typesenses@live.com.ar), with Reserved Font Name "Euphoria Script"
Version: 1.001
ItalicAngle: 0
UnderlinePosition: -63
UnderlineWidth: 62
Ascent: 1000
Descent: 250
sfntRevision: 0x00010042
LayerCount: 2
Layer: 0 1 "Back"  1
Layer: 1 1 "Fore"  0
XUID: [1021 221 1720063020 12518987]
FSType: 0
OS2Version: 2
OS2_WeightWidthSlopeOnly: 0
OS2_UseTypoMetrics: 1
CreationTime: 1327420329
ModificationTime: 1327449144
PfmFamily: 17
TTFWeight: 400
TTFWidth: 5
LineGap: 0
VLineGap: 0
Panose: 2 0 0 0 0 0 0 0 0 0
OS2TypoAscent: 138
OS2TypoAOffset: 1
OS2TypoDescent: -247
OS2TypoDOffset: 1
OS2TypoLinegap: 0
OS2WinAscent: 0
OS2WinAOffset: 1
OS2WinDescent: 0
OS2WinDOffset: 1
HheadAscent: 0
HheadAOffset: 1
HheadDescent: 0
HheadDOffset: 1
OS2SubXSize: 875
OS2SubYSize: 812
OS2SubXOff: 0
OS2SubYOff: 175
OS2SupXSize: 875
OS2SupYSize: 812
OS2SupXOff: 0
OS2SupYOff: 596
OS2StrikeYSize: 62
OS2StrikeYPos: 312
OS2Vendor: 'PYRS'
OS2CodePages: 00000001.00000000
OS2UnicodeRanges: 00000023.00000000.00000000.00000000
DEI: 91125
TtTable: prep
PUSHW_1
 511
SCANCTRL
PUSHB_1
 4
SCANTYPE
EndTTInstrs
ShortTable: maxp 16
  1
  0
  219
  158
  5
  64
  2
  2
  0
  1
  1
  0
  64
  0
  2
  1
EndShort
LangName: 1033 "" "" "" "SabrinaMarielaLopez: Euphoria Script: 2012" "" "Version 1.001" "" "Euphoria Script is a trademark of Sabrina Mariela Lopez." "Sabrina Mariela Lopez" "Sabrina Mariela Lopez" "" "www.typesenses.com" "www.typesenses.com" "This Font Software is licensed under the SIL Open Font License, Version 1.1. This license is available with a FAQ at: http://scripts.sil.org/OFL" "http://scripts.sil.org/OFL" 
GaspTable: 1 65535 15 1
Encoding: UnicodeBmp
UnicodeInterp: none
NameList: Adobe Glyph List
DisplaySize: -24
AntiAlias: 1
FitToEm: 1
BeginChars: 65539 219

StartChar: exclam
Encoding: 33 33 4
Width: 265
GlyphClass: 2
Flags: W
LayerCount: 2
Fore
SplineSet
108 123 m 128,-1,1
 135 123 135 123 135 97 c 0,2,3
 135 73 135 73 110 12 c 1,4,-1
 101 -9 l 1,5,6
 82 -9 82 -9 72 24 c 0,7,8
 67 41 67 41 67 57.5 c 128,-1,9
 67 74 67 74 72 90 c 0,10,0
 81 123 81 123 108 123 c 128,-1,1
74 268 m 0,11,12
 74 376 74 376 100 516.5 c 128,-1,13
 126 657 126 657 169.5 763.5 c 128,-1,14
 213 870 213 870 255 870 c 0,15,16
 273 870 273 870 273 852 c 1,17,18
 228 752 228 752 176 528.5 c 128,-1,19
 124 305 124 305 124 217 c 0,20,21
 124 202 124 202 108 202 c 0,22,23
 74 202 74 202 74 268 c 0,11,12
EndSplineSet
EndChar

StartChar: quotedbl
Encoding: 34 34 5
Width: 329
GlyphClass: 2
Flags: W
LayerCount: 2
Fore
SplineSet
147 621 m 0,0,1
 137 621 137 621 137 642.5 c 128,-1,2
 137 664 137 664 139 682 c 0,3,4
 143 723 143 723 155 772 c 0,5,6
 162 801 162 801 187 801 c 0,7,8
 199 801 199 801 205 792 c 128,-1,9
 211 783 211 783 209 771 c 0,10,11
 200 726 200 726 179.5 673.5 c 128,-1,12
 159 621 159 621 147 621 c 0,0,1
266 621 m 0,13,14
 256 621 256 621 256 642.5 c 128,-1,15
 256 664 256 664 258 682 c 0,16,17
 262 723 262 723 274 772 c 0,18,19
 281 801 281 801 306 801 c 0,20,21
 318 801 318 801 323 793 c 128,-1,22
 328 785 328 785 328 779.5 c 128,-1,23
 328 774 328 774 323.5 750 c 128,-1,24
 319 726 319 726 298.5 673.5 c 128,-1,25
 278 621 278 621 266 621 c 0,13,14
EndSplineSet
EndChar

StartChar: numbersign
Encoding: 35 35 6
Width: 871
GlyphClass: 2
Flags: W
LayerCount: 2
Fore
SplineSet
440 267 m 1,0,1
 320 263 320 263 272 263 c 1,2,3
 237 72 237 72 237 -22 c 0,4,5
 237 -37 237 -37 221 -37 c 0,6,7
 195 -37 195 -37 195 58 c 128,-1,8
 195 153 195 153 208 262 c 1,9,10
 92 260 92 260 86 260 c 0,11,12
 55 260 55 260 49 282 c 1,13,14
 49 286 49 286 49 292.5 c 128,-1,15
 49 299 49 299 58 302 c 0,16,17
 60 303 60 303 62 303 c 1,18,19
 67 296 67 296 86 296 c 2,20,-1
 212 296 l 1,21,22
 223 374 223 374 243 456 c 1,23,24
 178 454 178 454 106 454 c 0,25,26
 75 454 75 454 69 476 c 1,27,28
 66 492 66 492 78 496 c 0,29,30
 80 497 80 497 82 497 c 1,31,32
 87 490 87 490 106 490 c 2,33,-1
 252 490 l 1,34,35
 281 599 281 599 316 666.5 c 128,-1,36
 351 734 351 734 378 734 c 0,37,38
 396 734 396 734 396 716 c 1,39,40
 356 632 356 632 320 491 c 1,41,42
 430 491 430 491 484 492 c 1,43,44
 514 601 514 601 549 667.5 c 128,-1,45
 584 734 584 734 610 734 c 0,46,47
 628 734 628 734 628 716 c 1,48,49
 588 633 588 633 552 492 c 1,50,51
 631 493 631 493 721 493 c 0,52,53
 731 493 731 493 730 482 c 1,54,55
 727 467 727 467 707 466 c 1,56,57
 660 466 660 466 545 463 c 1,58,59
 544 458 544 458 542 450 c 0,60,61
 532 410 532 410 510 298 c 1,62,63
 599 299 599 299 701 299 c 0,64,65
 711 299 711 299 710 288 c 1,66,67
 707 273 707 273 687 272 c 1,68,69
 634 272 634 272 505 269 c 1,70,71
 469 68 469 68 469 -22 c 0,72,73
 469 -37 469 -37 453 -37 c 0,74,75
 427 -37 427 -37 427 59.5 c 128,-1,76
 427 156 427 156 440 267 c 1,0,1
278 296 m 1,77,78
 332 298 332 298 444 298 c 1,79,80
 457 382 457 382 476 461 c 1,81,82
 368 457 368 457 312 457 c 1,83,84
 301 416 301 416 278 296 c 1,77,78
EndSplineSet
EndChar

StartChar: dollar
Encoding: 36 36 7
Width: 538
GlyphClass: 2
Flags: W
LayerCount: 2
Fore
SplineSet
33 53 m 0,0,1
 33 -16 33 -16 122 -16 c 0,2,3
 166 -16 166 -16 202 -4 c 1,4,5
 211 48 211 48 234 181.5 c 128,-1,6
 257 315 257 315 267 373 c 1,7,8
 259 380 259 380 235.5 399.5 c 128,-1,9
 212 419 212 419 202 429 c 128,-1,10
 192 439 192 439 178 456 c 0,11,12
 152 486 152 486 152 528 c 0,13,14
 152 594 152 594 206 654 c 128,-1,15
 260 714 260 714 330 730 c 1,16,17
 333 746 333 746 336 766 c 128,-1,18
 339 786 339 786 341.5 799 c 128,-1,19
 344 812 344 812 345 819 c 0,20,21
 347 830 347 830 356 830 c 0,22,23
 359 830 359 830 362 829 c 0,24,25
 382 822 382 822 382 792 c 0,26,27
 382 785 382 785 381 777 c 2,28,-1
 373 735 l 1,29,30
 396 734 396 734 407 720 c 128,-1,31
 418 706 418 706 418 692 c 1,32,-1
 417 679 l 1,33,34
 406 686 406 686 387 686 c 128,-1,35
 368 686 368 686 364 685 c 1,36,37
 347 589 347 589 309 396 c 1,38,39
 344 365 344 365 362.5 346 c 128,-1,40
 381 327 381 327 399.5 290.5 c 128,-1,41
 418 254 418 254 418 214 c 0,42,43
 418 133 418 133 368.5 65.5 c 128,-1,44
 319 -2 319 -2 229 -29 c 1,45,46
 211 -124 211 -124 209.5 -132.5 c 128,-1,47
 208 -141 208 -141 202 -141 c 0,48,49
 200 -141 200 -141 197 -141 c 1,50,51
 184 -136 184 -136 184 -115 c 0,52,53
 184 -105 184 -105 189.5 -75.5 c 128,-1,54
 195 -46 195 -46 196 -37 c 1,55,56
 156 -44 156 -44 122 -44 c 0,57,58
 15 -44 15 -44 -10 27 c 0,59,60
 -17 46 -17 46 -17 65 c 0,61,62
 -17 107 -17 107 14 153 c 0,63,64
 73 243 73 243 175 243 c 0,65,66
 190 243 190 243 199 234.5 c 128,-1,67
 208 226 208 226 211 208 c 1,68,69
 132 208 132 208 74 143 c 0,70,71
 33 96 33 96 33 53 c 0,0,1
319 91.5 m 128,-1,73
 348 145 348 145 348 215 c 128,-1,74
 348 285 348 285 299 341 c 1,75,76
 247 65 247 65 236 10 c 1,77,72
 290 38 290 38 319 91.5 c 128,-1,73
250.5 614 m 128,-1,79
 223 575 223 575 223 526.5 c 128,-1,80
 223 478 223 478 277 426 c 1,81,82
 283 462 283 462 319 672 c 1,83,78
 278 653 278 653 250.5 614 c 128,-1,79
EndSplineSet
EndChar

StartChar: percent
Encoding: 37 37 8
Width: 810
GlyphClass: 2
Flags: W
LayerCount: 2
Fore
SplineSet
180 -100 m 0,0,1
 168 -100 168 -100 168 -84 c 0,2,3
 168 -63 168 -63 195 -7 c 128,-1,4
 222 49 222 49 384 404.5 c 128,-1,5
 546 760 546 760 560 789 c 1,6,7
 574 814 574 814 589.5 814 c 128,-1,8
 605 814 605 814 610 801 c 0,9,10
 622 770 622 770 589 705 c 0,11,12
 572 670 572 670 484 496 c 0,13,14
 247 26 247 26 198 -82 c 0,15,16
 189 -100 189 -100 180 -100 c 0,0,1
270 713 m 1,17,18
 204 713 204 713 161 619.5 c 128,-1,19
 118 526 118 526 118 427.5 c 128,-1,20
 118 329 118 329 168 329 c 0,21,22
 222 329 222 329 260 409.5 c 128,-1,23
 298 490 298 490 298 568 c 0,24,25
 298 661 298 661 250 661 c 1,26,27
 250 669 250 669 261 679 c 128,-1,28
 272 689 272 689 287 689 c 0,29,30
 340 689 340 689 340 587 c 0,31,32
 340 508 340 508 301 422 c 0,33,34
 247 303 247 303 167.5 303 c 128,-1,35
 88 303 88 303 68 392 c 0,36,37
 62 419 62 419 62 449 c 0,38,39
 62 513 62 513 91 586 c 0,40,41
 133 694 133 694 203 726 c 0,42,43
 226 736 226 736 243 736 c 128,-1,44
 260 736 260 736 265.5 730 c 128,-1,45
 271 724 271 724 270 713 c 1,17,18
644 384 m 1,46,47
 578 384 578 384 535 290.5 c 128,-1,48
 492 197 492 197 492 98.5 c 128,-1,49
 492 0 492 0 542 0 c 0,50,51
 596 0 596 0 634 80.5 c 128,-1,52
 672 161 672 161 672 239 c 0,53,54
 672 332 672 332 624 332 c 1,55,56
 624 340 624 340 635 350 c 128,-1,57
 646 360 646 360 661 360 c 0,58,59
 714 360 714 360 714 258 c 0,60,61
 714 179 714 179 675 93 c 0,62,63
 621 -26 621 -26 541.5 -26 c 128,-1,64
 462 -26 462 -26 442 63 c 0,65,66
 436 90 436 90 436 120 c 0,67,68
 436 184 436 184 465 257 c 0,69,70
 507 365 507 365 577 397 c 0,71,72
 600 407 600 407 617 407 c 128,-1,73
 634 407 634 407 639.5 401 c 128,-1,74
 645 395 645 395 644 384 c 1,46,47
EndSplineSet
EndChar

StartChar: ampersand
Encoding: 38 38 9
Width: 810
GlyphClass: 2
Flags: W
LayerCount: 2
Fore
SplineSet
328 705 m 1,0,1
 189 703 189 703 189 537 c 0,2,3
 189 493 189 493 200 441 c 1,4,5
 250 484 250 484 283.5 517.5 c 128,-1,6
 317 551 317 551 352 598 c 0,7,8
 422 690 422 690 422 808 c 1,9,10
 424 808 424 808 432.5 803.5 c 128,-1,11
 441 799 441 799 446 794 c 0,12,13
 459 781 459 781 459 757 c 0,14,15
 459 689 459 689 419.5 621 c 128,-1,16
 380 553 380 553 343.5 517 c 128,-1,17
 307 481 307 481 265 444.5 c 128,-1,18
 223 408 223 408 219 404.5 c 128,-1,19
 215 401 215 401 211 398 c 1,20,21
 260 226 260 226 375 92 c 1,22,23
 408 131 408 131 430 182 c 1,24,25
 464 256 464 256 464 339 c 0,26,27
 464 354 464 354 461.5 381.5 c 128,-1,28
 459 409 459 409 442 434 c 128,-1,29
 425 459 425 459 398 459 c 1,30,31
 404 483 404 483 433 483 c 128,-1,32
 462 483 462 483 479 455 c 0,33,34
 499 422 499 422 499 371.5 c 128,-1,35
 499 321 499 321 492 273.5 c 128,-1,36
 485 226 485 226 459.5 169 c 128,-1,37
 434 112 434 112 396 69 c 1,38,39
 511 -51 511 -51 625 -51 c 0,40,41
 692 -51 692 -51 714 -9 c 0,42,43
 726 14 726 14 715 23 c 0,44,45
 713 24 713 24 710 24 c 1,46,47
 719 51 719 51 744.5 51 c 128,-1,48
 770 51 770 51 770 18 c 128,-1,49
 770 -15 770 -15 727.5 -48.5 c 128,-1,50
 685 -82 685 -82 608 -82 c 0,51,52
 479 -82 479 -82 354 30 c 1,53,54
 275 -31 275 -31 171 -31 c 0,55,56
 88 -31 88 -31 27.5 11.5 c 128,-1,57
 -33 54 -33 54 -33 131 c 0,58,59
 -33 203 -33 203 18 268 c 0,60,61
 59 321 59 321 133 385 c 1,62,63
 111 463 111 463 111 523 c 128,-1,64
 111 583 111 583 127.5 629.5 c 128,-1,65
 144 676 144 676 188 704.5 c 128,-1,66
 232 733 232 733 298 733 c 0,67,68
 313 733 313 733 318.5 724 c 128,-1,69
 324 715 324 715 328 705 c 1,0,1
173 -1 m 0,70,71
 263 -1 263 -1 331 51 c 1,72,73
 210 170 210 170 148 341 c 1,74,75
 25 225 25 225 25 124 c 0,76,77
 25 66 25 66 69 32.5 c 128,-1,78
 113 -1 113 -1 173 -1 c 0,70,71
EndSplineSet
EndChar

StartChar: quotesingle
Encoding: 39 39 10
Width: 298
GlyphClass: 2
Flags: W
LayerCount: 2
Fore
SplineSet
266 846 m 0,0,1
 297 846 297 846 297 805 c 0,2,3
 297 749 297 749 259 705 c 0,4,5
 237 681 237 681 213 681 c 0,6,7
 198 681 198 681 196 691 c 1,8,-1
 196 694 l 1,9,10
 215 694 215 694 226 732 c 128,-1,11
 237 770 237 770 237 808 c 128,-1,12
 237 846 237 846 266 846 c 0,0,1
EndSplineSet
EndChar

StartChar: parenleft
Encoding: 40 40 11
Width: 310
GlyphClass: 2
Flags: W
LayerCount: 2
Fore
SplineSet
316 871 m 1,0,1
 326 871 326 871 326 861 c 128,-1,2
 326 851 326 851 320 851 c 0,3,4
 256 841 256 841 195.5 709 c 128,-1,5
 135 577 135 577 106.5 431 c 128,-1,6
 78 285 78 285 78 162 c 0,7,8
 78 -31 78 -31 141 -71 c 0,9,10
 149 -76 149 -76 146.5 -82.5 c 128,-1,11
 144 -89 144 -89 140.5 -89 c 128,-1,12
 137 -89 137 -89 133 -87 c 0,13,14
 76 -56 76 -56 48.5 25 c 128,-1,15
 21 106 21 106 21 203 c 0,16,17
 21 308 21 308 45.5 425.5 c 128,-1,18
 70 543 70 543 109.5 638 c 128,-1,19
 149 733 149 733 204 798.5 c 128,-1,20
 259 864 259 864 316 871 c 1,0,1
EndSplineSet
EndChar

StartChar: parenright
Encoding: 41 41 12
Width: 334
GlyphClass: 2
Flags: W
LayerCount: 2
Fore
SplineSet
6 -93 m 1,0,1
 -4 -93 -4 -93 -4 -83 c 128,-1,2
 -4 -73 -4 -73 3 -73 c 1,3,4
 67 -63 67 -63 127.5 70 c 128,-1,5
 188 203 188 203 216.5 351 c 128,-1,6
 245 499 245 499 245 624 c 0,7,8
 245 815 245 815 182 855 c 0,9,10
 175 860 175 860 177.5 866.5 c 128,-1,11
 180 873 180 873 183.5 873 c 128,-1,12
 187 873 187 873 191 871 c 0,13,14
 248 840 248 840 275.5 759 c 128,-1,15
 303 678 303 678 303 583 c 0,16,17
 303 476 303 476 278.5 356.5 c 128,-1,18
 254 237 254 237 214.5 141 c 128,-1,19
 175 45 175 45 119.5 -20.5 c 128,-1,20
 64 -86 64 -86 6 -93 c 1,0,1
EndSplineSet
EndChar

StartChar: asterisk
Encoding: 42 42 13
Width: 497
GlyphClass: 2
Flags: W
LayerCount: 2
Fore
SplineSet
312 869 m 0,0,1
 347 869 347 869 347 811 c 0,2,3
 347 757 347 757 319 719 c 1,4,5
 350 730 350 730 406 765 c 0,6,7
 419 773 419 773 431 773 c 128,-1,8
 443 773 443 773 449.5 761.5 c 128,-1,9
 456 750 456 750 456 739 c 128,-1,10
 456 728 456 728 436.5 711.5 c 128,-1,11
 417 695 417 695 388 689 c 128,-1,12
 359 683 359 683 343 683 c 128,-1,13
 327 683 327 683 314 687 c 1,14,15
 324 670 324 670 387 611 c 0,16,17
 402 597 402 597 402 586 c 128,-1,18
 402 575 402 575 392 565 c 128,-1,19
 382 555 382 555 366 555 c 128,-1,20
 350 555 350 555 324 585 c 1,21,22
 284 634 284 634 285 678 c 1,23,24
 265 660 265 660 228 589 c 0,25,26
 216 568 216 568 200 568 c 0,27,28
 193 568 193 568 185 572 c 1,29,30
 170 583 170 583 170 595 c 0,31,32
 170 629 170 629 204.5 662 c 128,-1,33
 239 695 239 695 266 702 c 1,34,35
 247 710 247 710 165 725 c 1,36,37
 135 729 135 729 135 753 c 0,38,39
 135 756 135 756 135 759 c 0,40,41
 143 785 143 785 171.5 785 c 128,-1,42
 200 785 200 785 236 765.5 c 128,-1,43
 272 746 272 746 286 724 c 1,44,45
 289 735 289 735 289 757 c 1,46,-1
 284 839 l 1,47,48
 284 866 284 866 309 869 c 0,49,50
 311 869 311 869 312 869 c 0,0,1
EndSplineSet
EndChar

StartChar: plus
Encoding: 43 43 14
Width: 703
GlyphClass: 2
Flags: W
LayerCount: 2
Fore
SplineSet
288 54 m 0,0,1
 288 43 288 43 275 43 c 128,-1,2
 262 43 262 43 262 133 c 128,-1,3
 262 223 262 223 281 332 c 1,4,5
 169 329 169 329 108 329 c 0,6,7
 77 329 77 329 71 351 c 1,8,9
 71 355 71 355 71 361.5 c 128,-1,10
 71 368 71 368 80 371 c 0,11,12
 82 372 82 372 84 372 c 1,13,14
 89 365 89 365 108 365 c 2,15,-1
 287 365 l 1,16,17
 308 469 308 469 338.5 538 c 128,-1,18
 369 607 369 607 391 607 c 0,19,20
 404 607 404 607 404 594 c 1,21,22
 367 518 367 518 339 390 c 0,23,24
 337 381 337 381 333 365 c 1,25,-1
 565 365 l 2,26,27
 575 365 575 365 574 354 c 1,28,29
 571 339 571 339 551 338 c 1,30,31
 485 338 485 338 327 333 c 1,32,33
 288 140 288 140 288 54 c 0,0,1
EndSplineSet
EndChar

StartChar: comma
Encoding: 44 44 15
Width: 229
GlyphClass: 2
Flags: W
LayerCount: 2
Fore
SplineSet
102 126 m 0,0,1
 133 126 133 126 133 85 c 0,2,3
 133 29 133 29 95 -15 c 0,4,5
 73 -39 73 -39 49 -39 c 0,6,7
 34 -39 34 -39 32 -29 c 1,8,-1
 32 -26 l 1,9,10
 51 -26 51 -26 62 12 c 128,-1,11
 73 50 73 50 73 88 c 128,-1,12
 73 126 73 126 102 126 c 0,0,1
EndSplineSet
EndChar

StartChar: hyphen
Encoding: 45 45 16
Width: 649
GlyphClass: 2
Flags: W
LayerCount: 2
Fore
SplineSet
501 338 m 2,0,1
 501 338 501 338 108 329 c 0,2,3
 77 329 77 329 71 351 c 1,4,5
 71 355 71 355 71 361.5 c 128,-1,6
 71 368 71 368 80 371 c 0,7,8
 82 372 82 372 84 372 c 1,9,10
 89 365 89 365 108 365 c 2,11,-1
 515 365 l 2,12,13
 525 365 525 365 524 354 c 1,14,15
 521 339 521 339 501 338 c 2,0,1
EndSplineSet
EndChar

StartChar: period
Encoding: 46 46 17
Width: 263
GlyphClass: 2
Flags: W
LayerCount: 2
Fore
SplineSet
88 -8 m 1,0,1
 65 -8 65 -8 65 37 c 0,2,3
 65 64 65 64 79 94 c 128,-1,4
 93 124 93 124 120 124 c 0,5,6
 143 124 143 124 143 98 c 0,7,8
 143 85 143 85 129.5 58.5 c 128,-1,9
 116 32 116 32 102 12 c 2,10,-1
 88 -8 l 1,0,1
EndSplineSet
EndChar

StartChar: slash
Encoding: 47 47 18
Width: 486
GlyphClass: 2
Flags: W
LayerCount: 2
Fore
SplineSet
0 -100 m 0,0,1
 -12 -100 -12 -100 -12 -84 c 0,2,3
 -12 -63 -12 -63 15 -7 c 128,-1,4
 42 49 42 49 204 404.5 c 128,-1,5
 366 760 366 760 380 789 c 1,6,7
 394 814 394 814 413 814 c 128,-1,8
 432 814 432 814 432 785 c 0,9,10
 432 752 432 752 412 711 c 128,-1,11
 392 670 392 670 304 496 c 0,12,13
 67 26 67 26 18 -82 c 0,14,15
 9 -100 9 -100 0 -100 c 0,0,1
EndSplineSet
EndChar

StartChar: zero
Encoding: 48 48 19
Width: 552
GlyphClass: 2
Flags: W
LayerCount: 2
Fore
SplineSet
78 225 m 0,0,1
 78 31 78 31 177.5 31 c 128,-1,2
 277 31 277 31 345 181.5 c 128,-1,3
 413 332 413 332 413 478 c 0,4,5
 413 647 413 647 332 647 c 1,6,7
 333 651 333 651 335 657.5 c 128,-1,8
 337 664 337 664 350 674.5 c 128,-1,9
 363 685 363 685 383 685 c 0,10,11
 451 685 451 685 467 577 c 0,12,13
 472 544 472 544 472 508 c 0,14,15
 472 412 472 412 436 294 c 0,16,17
 381 117 381 117 286 41 c 0,18,19
 234 -1 234 -1 177 -1 c 0,20,21
 56 -1 56 -1 16 125 c 0,22,23
 -1 179 -1 179 -1 249.5 c 128,-1,24
 -1 320 -1 320 25 412 c 0,25,26
 71 577 71 577 167 668 c 0,27,28
 238 735 238 735 317 735 c 0,29,30
 328 735 328 735 334 727.5 c 128,-1,31
 340 720 340 720 342 706 c 1,32,33
 229 706 229 706 150 537 c 0,34,35
 78 381 78 381 78 225 c 0,0,1
EndSplineSet
EndChar

StartChar: one
Encoding: 49 49 20
Width: 444
GlyphClass: 2
Flags: W
LayerCount: 2
Fore
SplineSet
391 735 m 0,0,1
 409 735 409 735 409 717 c 1,2,3
 348 648 348 648 295 392 c 128,-1,4
 242 136 242 136 242 14 c 0,5,6
 242 -1 242 -1 226 -1 c 0,7,8
 192 -1 192 -1 192 89 c 0,9,10
 192 288 192 288 230 461 c 128,-1,11
 268 634 268 634 328 701 c 1,12,13
 234 667 234 667 150 567 c 128,-1,14
 66 467 66 467 66 376 c 0,15,16
 66 326 66 326 96 326 c 1,17,18
 90 300 90 300 63.5 300 c 128,-1,19
 37 300 37 300 19 323.5 c 128,-1,20
 1 347 1 347 1 386 c 0,21,22
 1 461 1 461 70 544.5 c 128,-1,23
 139 628 139 628 231 681.5 c 128,-1,24
 323 735 323 735 391 735 c 0,0,1
EndSplineSet
EndChar

StartChar: two
Encoding: 50 50 21
Width: 552
GlyphClass: 2
Flags: W
LayerCount: 2
Fore
SplineSet
-38 53 m 0,0,1
 -45 53 -45 53 -45 70 c 128,-1,2
 -45 87 -45 87 -37 87 c 0,3,4
 -15 87 -15 87 52.5 146.5 c 128,-1,5
 120 206 120 206 192.5 286.5 c 128,-1,6
 265 367 265 367 322 460.5 c 128,-1,7
 379 554 379 554 379 612 c 0,8,9
 379 699 379 699 286 699 c 128,-1,10
 193 699 193 699 132 615 c 0,11,12
 94 561 94 561 94 522.5 c 128,-1,13
 94 484 94 484 116 484 c 1,14,15
 116 466 116 466 104.5 451 c 128,-1,16
 93 436 93 436 74 436 c 0,17,18
 30 436 30 436 30 487 c 0,19,20
 30 550 30 550 87 622 c 0,21,22
 166 721 166 721 277 733 c 1,23,-1
 305 735 l 1,24,25
 382 735 382 735 422 697 c 128,-1,26
 462 659 462 659 462 598 c 128,-1,27
 462 537 462 537 415.5 458.5 c 128,-1,28
 369 380 369 380 300 308 c 0,29,30
 153 156 153 156 32 83 c 1,31,32
 61 80 61 80 118 73 c 0,33,34
 250 57 250 57 296 57 c 128,-1,35
 342 57 342 57 364 63.5 c 128,-1,36
 386 70 386 70 398 79 c 0,37,38
 423 99 423 99 430 118 c 1,39,40
 448 118 448 118 446 90 c 0,41,42
 443 48 443 48 401 19 c 128,-1,43
 359 -10 359 -10 290.5 -10 c 128,-1,44
 222 -10 222 -10 108.5 21.5 c 128,-1,45
 -5 53 -5 53 -38 53 c 0,0,1
EndSplineSet
EndChar

StartChar: three
Encoding: 51 51 22
Width: 526
GlyphClass: 2
Flags: W
LayerCount: 2
Fore
SplineSet
254 396 m 1,0,1
 406 353 406 353 406 196 c 0,2,3
 406 98 406 98 328 10 c 1,4,5
 234 -98 234 -98 77 -98 c 0,6,7
 32 -98 32 -98 -3.5 -88 c 128,-1,8
 -39 -78 -39 -78 -58 -64 c 1,9,10
 -95 -34 -95 -34 -95 -9 c 0,11,12
 -95 7 -95 7 -84.5 19.5 c 128,-1,13
 -74 32 -74 32 -53 42 c 1,14,15
 -53 9 -53 9 -29 -26 c 0,16,17
 0 -67 0 -67 77 -67 c 0,18,19
 190 -67 190 -67 262 27 c 0,20,21
 319 102 319 102 319 189 c 0,22,23
 319 303 319 303 232 348 c 0,24,25
 190 370 190 370 131 370 c 1,26,27
 131 382 131 382 141.5 394.5 c 128,-1,28
 152 407 152 407 166 407 c 0,29,30
 218 407 218 407 287.5 481.5 c 128,-1,31
 357 556 357 556 357 628 c 0,32,33
 357 659 357 659 336.5 679 c 128,-1,34
 316 699 316 699 274 699 c 0,35,36
 197 699 197 699 151 638 c 0,37,38
 128 607 128 607 128 580 c 128,-1,39
 128 553 128 553 154 552 c 1,40,41
 150 532 150 532 138 518 c 128,-1,42
 126 504 126 504 107 504 c 0,43,44
 60 504 60 504 60 551.5 c 128,-1,45
 60 599 60 599 113 655 c 0,46,47
 189 734 189 734 298.5 734.5 c 128,-1,48
 408 735 408 735 430 659 c 0,49,50
 435 642 435 642 435 623 c 0,51,52
 435 571 435 571 393 510 c 0,53,54
 341 433 341 433 254 396 c 1,0,1
EndSplineSet
EndChar

StartChar: four
Encoding: 52 52 23
Width: 615
GlyphClass: 2
Flags: W
LayerCount: 2
Fore
SplineSet
519 349 m 0,0,1
 554 349 554 349 554 306 c 128,-1,2
 554 263 554 263 520 227 c 0,3,4
 472 175 472 175 381 170 c 1,5,6
 365 60 365 60 365 -5 c 0,7,8
 365 -20 365 -20 349 -20 c 0,9,10
 315 -20 315 -20 315 70 c 0,11,12
 315 135 315 135 317 169 c 1,13,14
 209 171 209 171 73 185 c 1,15,16
 46 169 46 169 18 169 c 0,17,18
 -37 169 -37 169 -45 193 c 0,19,20
 -46 196 -46 196 -46 200 c 0,21,22
 -46 214 -46 214 -27 221.5 c 128,-1,23
 -8 229 -8 229 12 229 c 2,24,-1
 20 229 l 1,25,26
 48 254 48 254 74 313 c 0,27,28
 115 410 115 410 138 568 c 0,29,30
 145 614 145 614 145 649 c 0,31,32
 145 713 145 713 127 713 c 1,33,34
 130 735 130 735 152 735 c 0,35,36
 185 735 185 735 196 636 c 0,37,38
 200 604 200 604 200 550.5 c 128,-1,39
 200 497 200 497 184 412 c 1,40,41
 162 286 162 286 111 221 c 1,42,43
 243 203 243 203 319 200 c 1,44,45
 336 441 336 441 400 554 c 0,46,47
 437 619 437 619 486 619 c 0,48,49
 504 619 504 619 504 601 c 1,50,51
 469 554 469 554 437.5 441 c 128,-1,52
 406 328 406 328 385 201 c 1,53,54
 468 210 468 210 495 268 c 0,55,56
 504 286 504 286 504 299 c 128,-1,57
 504 312 504 312 499 318.5 c 128,-1,58
 494 325 494 325 488 325 c 1,59,60
 495 349 495 349 519 349 c 0,0,1
EndSplineSet
EndChar

StartChar: five
Encoding: 53 53 24
Width: 506
GlyphClass: 2
Flags: W
LayerCount: 2
Fore
SplineSet
216 698 m 128,-1,1
 250 690 250 690 285 690 c 128,-1,2
 320 690 320 690 347 697.5 c 128,-1,3
 374 705 374 705 388 716 c 0,4,5
 415 737 415 737 420 754 c 2,6,-1
 422 762 l 1,7,8
 436 762 436 762 436 737 c 0,9,10
 436 682 436 682 391.5 648 c 128,-1,11
 347 614 347 614 278 614 c 128,-1,12
 209 614 209 614 143 647 c 1,13,14
 140 629 140 629 134 588 c 0,15,16
 119 489 119 489 108 450 c 1,17,18
 152 473 152 473 201 473 c 0,19,20
 331 473 331 473 382 368 c 0,21,22
 407 317 407 317 407 262 c 128,-1,23
 407 207 407 207 390 152 c 0,24,25
 352 25 352 25 252 -44 c 0,26,27
 174 -98 174 -98 77 -98 c 0,28,29
 32 -98 32 -98 -3.5 -88 c 128,-1,30
 -39 -78 -39 -78 -58 -64 c 1,31,32
 -95 -34 -95 -34 -95 -9 c 0,33,34
 -95 7 -95 7 -84.5 19.5 c 128,-1,35
 -74 32 -74 32 -53 42 c 1,36,37
 -53 9 -53 9 -29 -26 c 0,38,39
 0 -67 0 -67 77 -67 c 0,40,41
 189 -67 189 -67 262 43 c 0,42,43
 324 136 324 136 324 248 c 0,44,45
 324 369 324 369 253 415 c 0,46,47
 220 437 220 437 182.5 437 c 128,-1,48
 145 437 145 437 120.5 420.5 c 128,-1,49
 96 404 96 404 78.5 387.5 c 128,-1,50
 61 371 61 371 47.5 371 c 128,-1,51
 34 371 34 371 25.5 378 c 128,-1,52
 17 385 17 385 13 399 c 1,53,54
 43 399 43 399 63 449.5 c 128,-1,55
 83 500 83 500 90 560 c 0,56,57
 109 721 109 721 140 721 c 0,58,59
 142 721 142 721 162 713.5 c 128,-1,0
 182 706 182 706 216 698 c 128,-1,1
EndSplineSet
EndChar

StartChar: six
Encoding: 54 54 25
Width: 525
GlyphClass: 2
Flags: W
LayerCount: 2
Fore
SplineSet
91 226 m 0,0,1
 91 310 91 310 146 404 c 1,2,3
 173 448 173 448 217.5 477.5 c 128,-1,4
 262 507 262 507 314 507 c 0,5,6
 407 507 407 507 436 414 c 0,7,8
 446 379 446 379 446 328 c 128,-1,9
 446 277 446 277 419 205 c 0,10,11
 373 83 373 83 283 29 c 0,12,13
 233 -1 233 -1 177 -1 c 0,14,15
 59 -1 59 -1 17 120 c 1,16,17
 -1 175 -1 175 -1 246.5 c 128,-1,18
 -1 318 -1 318 25 411 c 0,19,20
 75 589 75 589 184 695 c 128,-1,21
 293 801 293 801 420 801 c 0,22,23
 431 801 431 801 437 793.5 c 128,-1,24
 443 786 443 786 445 772 c 1,25,26
 302 772 302 772 196 607 c 0,27,28
 109 471 109 471 86 295 c 0,29,30
 80 247 80 247 80 208 c 0,31,32
 80 115 80 115 114 66 c 0,33,34
 139 31 139 31 178 31 c 0,35,36
 263 31 263 31 322 140 c 0,37,38
 374 235 374 235 374 341.5 c 128,-1,39
 374 448 374 448 319 470 c 0,40,41
 308 474 308 474 295 474 c 0,42,43
 228 474 228 474 175.5 390.5 c 128,-1,44
 123 307 123 307 123 225 c 0,45,46
 123 219 123 219 115 217 c 128,-1,47
 107 215 107 215 99 217.5 c 128,-1,48
 91 220 91 220 91 226 c 0,0,1
EndSplineSet
EndChar

StartChar: seven
Encoding: 55 55 26
Width: 428
GlyphClass: 2
Flags: W
LayerCount: 2
Fore
SplineSet
430 735 m 0,0,1
 448 735 448 735 448 717 c 1,2,3
 408 682 408 682 347.5 598.5 c 128,-1,4
 287 515 287 515 227.5 414 c 128,-1,5
 168 313 168 313 125.5 202 c 128,-1,6
 83 91 83 91 83 16 c 0,7,8
 83 1 83 1 67 1 c 0,9,10
 33 1 33 1 33 57 c 0,11,12
 33 88 33 88 43 135 c 0,13,14
 76 288 76 288 168.5 459.5 c 128,-1,15
 261 631 261 631 344 697 c 1,16,17
 314 692 314 692 222.5 668.5 c 128,-1,18
 131 645 131 645 87 645 c 0,19,20
 61 645 61 645 52.5 662 c 128,-1,21
 44 679 44 679 48 696 c 2,22,-1
 53 713 l 1,23,24
 73 695 73 695 109.5 695 c 128,-1,25
 146 695 146 695 263.5 715 c 128,-1,26
 381 735 381 735 430 735 c 0,0,1
EndSplineSet
EndChar

StartChar: eight
Encoding: 56 56 27
Width: 522
GlyphClass: 2
Flags: W
LayerCount: 2
Fore
SplineSet
422 808 m 1,0,1
 424 808 424 808 432.5 803.5 c 128,-1,2
 441 799 441 799 446 794 c 0,3,4
 459 781 459 781 459 757 c 0,5,6
 459 695 459 695 428 634.5 c 128,-1,7
 397 574 397 574 359.5 534 c 128,-1,8
 322 494 322 494 260 440 c 1,9,10
 269 429 269 429 298.5 395.5 c 128,-1,11
 328 362 328 362 341.5 344.5 c 128,-1,12
 355 327 355 327 374 298 c 0,13,14
 409 243 409 243 409 182 c 0,15,16
 409 82 409 82 338 25.5 c 128,-1,17
 267 -31 267 -31 177.5 -31 c 128,-1,18
 88 -31 88 -31 27.5 11.5 c 128,-1,19
 -33 54 -33 54 -33 131 c 0,20,21
 -33 212 -33 212 34 287 c 0,22,23
 70 328 70 328 94.5 350 c 128,-1,24
 119 372 119 372 175 420 c 1,25,26
 123 493 123 493 123 564.5 c 128,-1,27
 123 636 123 636 172 684.5 c 128,-1,28
 221 733 221 733 298 733 c 0,29,30
 320 733 320 733 333 724.5 c 128,-1,31
 346 716 346 716 348 708 c 2,32,-1
 350 700 l 1,33,34
 335 705 335 705 307 705 c 0,35,36
 248 705 248 705 218.5 671 c 128,-1,37
 189 637 189 637 189 586 c 128,-1,38
 189 535 189 535 235 472 c 1,39,40
 323 552 323 552 372.5 630 c 128,-1,41
 422 708 422 708 422 808 c 1,0,1
339 154 m 0,42,43
 339 209 339 209 307 258 c 0,44,45
 280 299 280 299 245.5 337.5 c 128,-1,46
 211 376 211 376 200 389 c 1,47,48
 115 315 115 315 70 254.5 c 128,-1,49
 25 194 25 194 25 130 c 128,-1,50
 25 66 25 66 69 32.5 c 128,-1,51
 113 -1 113 -1 176.5 -1 c 128,-1,52
 240 -1 240 -1 289.5 40.5 c 128,-1,53
 339 82 339 82 339 154 c 0,42,43
EndSplineSet
EndChar

StartChar: nine
Encoding: 57 57 28
Width: 536
GlyphClass: 2
Flags: W
LayerCount: 2
Fore
SplineSet
69 406 m 0,0,1
 69 258 69 258 155 258 c 0,2,3
 200 258 200 258 239 299 c 128,-1,4
 278 340 278 340 298 395 c 128,-1,5
 318 450 318 450 318 498 c 0,6,7
 318 502 318 502 318 507 c 0,8,9
 318 513 318 513 325.5 515 c 128,-1,10
 333 517 333 517 341.5 514.5 c 128,-1,11
 350 512 350 512 350 506 c 0,12,13
 350 503 350 503 350 483 c 128,-1,14
 350 463 350 463 337.5 418 c 128,-1,15
 325 373 325 373 300.5 328.5 c 128,-1,16
 276 284 276 284 232.5 254.5 c 128,-1,17
 189 225 189 225 137 225 c 0,18,19
 44 225 44 225 12 319 c 1,20,21
 0 358 0 358 0 409.5 c 128,-1,22
 0 461 0 461 23 529 c 0,23,24
 65 651 65 651 153 704 c 0,25,26
 201 733 201 733 256 733 c 0,27,28
 382 733 382 733 429 605 c 0,29,30
 452 543 452 543 452 468 c 128,-1,31
 452 393 452 393 430 305 c 0,32,33
 384 123 384 123 276.5 12.5 c 128,-1,34
 169 -98 169 -98 42 -98 c 0,35,36
 -30 -98 -30 -98 -70 -67.5 c 128,-1,37
 -110 -37 -110 -37 -111 -9 c 0,38,39
 -111 7 -111 7 -101 19.5 c 128,-1,40
 -91 32 -91 32 -71 42 c 1,41,42
 -70 4 -70 4 -44 -31.5 c 128,-1,43
 -18 -67 -18 -67 41 -67 c 0,44,45
 158 -67 158 -67 254 87 c 0,46,47
 340 225 340 225 366 404 c 0,48,49
 374 460 374 460 374 505 c 0,50,51
 374 604 374 604 337 658 c 0,52,53
 307 701 307 701 256 701 c 0,54,55
 169 701 169 701 114 590 c 0,56,57
 69 499 69 499 69 406 c 0,0,1
EndSplineSet
EndChar

StartChar: colon
Encoding: 58 58 29
Width: 281
GlyphClass: 2
Flags: W
LayerCount: 2
Fore
SplineSet
88 -8 m 1,0,1
 65 -8 65 -8 65 37 c 0,2,3
 65 64 65 64 79 94 c 128,-1,4
 93 124 93 124 120 124 c 0,5,6
 143 124 143 124 143 98 c 0,7,8
 143 85 143 85 129.5 58.5 c 128,-1,9
 116 32 116 32 102 12 c 2,10,-1
 88 -8 l 1,0,1
115 290 m 1,11,12
 92 290 92 290 92 335 c 0,13,14
 92 362 92 362 106 392 c 128,-1,15
 120 422 120 422 147 422 c 0,16,17
 170 422 170 422 170 396 c 0,18,19
 170 371 170 371 128 310 c 1,20,-1
 115 290 l 1,11,12
EndSplineSet
EndChar

StartChar: semicolon
Encoding: 59 59 30
Width: 270
GlyphClass: 2
Flags: W
LayerCount: 2
Fore
SplineSet
121 290 m 1,0,1
 98 290 98 290 98 335 c 0,2,3
 98 362 98 362 112 392 c 128,-1,4
 126 422 126 422 153 422 c 0,5,6
 176 422 176 422 176 396 c 0,7,8
 176 371 176 371 134 310 c 1,9,-1
 121 290 l 1,0,1
102 126 m 0,10,11
 133 126 133 126 133 85 c 0,12,13
 133 29 133 29 95 -15 c 0,14,15
 73 -39 73 -39 49 -39 c 0,16,17
 34 -39 34 -39 32 -29 c 1,18,-1
 32 -26 l 1,19,20
 51 -26 51 -26 62 12 c 128,-1,21
 73 50 73 50 73 88 c 128,-1,22
 73 126 73 126 102 126 c 0,10,11
EndSplineSet
EndChar

StartChar: less
Encoding: 60 60 31
Width: 599
GlyphClass: 2
Flags: W
LayerCount: 2
Fore
SplineSet
10 268 m 1,0,1
 31 310 31 310 80 310 c 0,2,3
 198 310 198 310 297.5 391 c 128,-1,4
 397 472 397 472 397 542 c 1,5,6
 409 539 409 539 419 524 c 128,-1,7
 429 509 429 509 429 484 c 128,-1,8
 429 459 429 459 388 414.5 c 128,-1,9
 347 370 347 370 281.5 333.5 c 128,-1,10
 216 297 216 297 157 291 c 1,11,12
 232 257 232 257 295.5 182.5 c 128,-1,13
 359 108 359 108 359 56 c 0,14,15
 359 40 359 40 351 27 c 128,-1,16
 343 14 343 14 327 5 c 1,17,18
 327 43 327 43 301 88.5 c 128,-1,19
 275 134 275 134 233 174 c 128,-1,20
 191 214 191 214 131 241 c 128,-1,21
 71 268 71 268 10 268 c 1,0,1
EndSplineSet
EndChar

StartChar: equal
Encoding: 61 61 32
Width: 735
GlyphClass: 2
Flags: W
LayerCount: 2
Fore
SplineSet
551 422 m 2,0,1
 551 422 551 422 108 413 c 0,2,3
 77 413 77 413 71 435 c 1,4,5
 71 439 71 439 71 445.5 c 128,-1,6
 71 452 71 452 80 455 c 0,7,8
 82 456 82 456 84 456 c 1,9,10
 89 449 89 449 108 449 c 2,11,-1
 565 449 l 2,12,13
 575 449 575 449 574 438 c 1,14,15
 571 423 571 423 551 422 c 2,0,1
551 254 m 2,16,17
 551 254 551 254 108 245 c 0,18,19
 77 245 77 245 71 267 c 1,20,21
 71 271 71 271 71 277.5 c 128,-1,22
 71 284 71 284 80 287 c 0,23,24
 82 288 82 288 84 288 c 1,25,26
 89 281 89 281 108 281 c 2,27,-1
 565 281 l 2,28,29
 575 281 575 281 574 270 c 1,30,31
 571 255 571 255 551 254 c 2,16,17
EndSplineSet
EndChar

StartChar: greater
Encoding: 62 62 33
Width: 520
GlyphClass: 2
Flags: W
LayerCount: 2
Fore
SplineSet
449 279 m 1,0,1
 428 237 428 237 379 237 c 0,2,3
 261 237 261 237 161.5 156 c 128,-1,4
 62 75 62 75 62 5 c 1,5,6
 50 8 50 8 40 23 c 128,-1,7
 30 38 30 38 30 58 c 0,8,9
 30 107 30 107 121 177 c 128,-1,10
 212 247 212 247 302 256 c 1,11,12
 226 290 226 290 163 364.5 c 128,-1,13
 100 439 100 439 100 491 c 0,14,15
 100 507 100 507 108 520 c 128,-1,16
 116 533 116 533 132 542 c 1,17,18
 132 504 132 504 158 458.5 c 128,-1,19
 184 413 184 413 226 373 c 128,-1,20
 268 333 268 333 328 306 c 128,-1,21
 388 279 388 279 449 279 c 1,0,1
EndSplineSet
EndChar

StartChar: question
Encoding: 63 63 34
Width: 553
GlyphClass: 2
Flags: W
LayerCount: 2
Fore
SplineSet
220 752 m 0,0,1
 182 698 182 698 182 659.5 c 128,-1,2
 182 621 182 621 204 621 c 1,3,4
 204 603 204 603 192.5 588 c 128,-1,5
 181 573 181 573 162 573 c 0,6,7
 118 573 118 573 118 624 c 0,8,9
 118 687 118 687 175 759 c 0,10,11
 254 858 254 858 365 870 c 1,12,-1
 393 872 l 1,13,14
 470 872 470 872 510 834 c 128,-1,15
 550 796 550 796 550 735 c 128,-1,16
 550 674 550 674 512.5 610.5 c 128,-1,17
 475 547 475 547 421.5 494.5 c 128,-1,18
 368 442 368 442 315 393 c 0,19,20
 187 275 187 275 187 214 c 0,21,22
 187 202 187 202 167.5 201.5 c 128,-1,23
 148 201 148 201 148 214 c 0,24,25
 148 278 148 278 261 406 c 0,26,27
 308 460 308 460 354.5 516 c 128,-1,28
 401 572 401 572 434 634 c 128,-1,29
 467 696 467 696 467 749 c 0,30,31
 467 836 467 836 374 836 c 128,-1,32
 281 836 281 836 220 752 c 0,0,1
160 123 m 128,-1,34
 187 123 187 123 187 97 c 0,35,36
 187 73 187 73 162 12 c 1,37,-1
 153 -9 l 1,38,39
 134 -9 134 -9 124 24 c 0,40,41
 119 41 119 41 119 57.5 c 128,-1,42
 119 74 119 74 124 90 c 0,43,33
 133 123 133 123 160 123 c 128,-1,34
EndSplineSet
EndChar

StartChar: at
Encoding: 64 64 35
Width: 940
GlyphClass: 2
Flags: W
LayerCount: 2
Fore
SplineSet
371 150 m 0,0,1
 303 150 303 150 303 257 c 0,2,3
 303 330 303 330 344 415 c 1,4,5
 394 522 394 522 470 550 c 1,6,7
 520 567 520 567 548 546 c 0,8,9
 563 534 563 534 568 523 c 2,10,-1
 572 512 l 1,11,12
 575 496 575 496 557 496 c 0,13,14
 544 496 544 496 537 507 c 1,15,16
 528 529 528 529 507 529 c 0,17,18
 458 529 458 529 416 440 c 1,19,20
 366 337 366 337 366 243 c 0,21,22
 366 196 366 196 380 186 c 1,23,24
 394 186 394 186 410 206.5 c 128,-1,25
 426 227 426 227 436.5 241.5 c 128,-1,26
 447 256 447 256 462 279 c 128,-1,27
 477 302 477 302 488 319.5 c 128,-1,28
 499 337 499 337 515.5 364 c 128,-1,29
 532 391 532 391 541.5 406.5 c 128,-1,30
 551 422 551 422 563 442.5 c 128,-1,31
 575 463 575 463 581.5 474.5 c 128,-1,32
 588 486 588 486 596 498 c 0,33,34
 612 519 612 519 628.5 519 c 128,-1,35
 645 519 645 519 645 499 c 1,36,37
 623 458 623 458 605.5 391.5 c 128,-1,38
 588 325 588 325 588 270 c 0,39,40
 588 256 588 256 589 242 c 0,41,42
 594 174 594 174 641 174 c 0,43,44
 703 174 703 174 749.5 259.5 c 128,-1,45
 796 345 796 345 796 446 c 0,46,47
 796 609 796 609 687 674 c 0,48,49
 631 707 631 707 551 707 c 0,50,51
 373 707 373 707 259 565 c 0,52,53
 153 433 153 433 153 255 c 0,54,55
 153 129 153 129 219 47 c 128,-1,56
 285 -35 285 -35 402 -35 c 0,57,58
 449 -35 449 -35 487.5 -23.5 c 128,-1,59
 526 -12 526 -12 546 5 c 0,60,61
 587 39 587 39 598 68 c 1,62,-1
 603 79 l 1,63,-1
 624 78 l 1,64,65
 621 61 621 61 602.5 32.5 c 128,-1,66
 584 4 584 4 561 -14.5 c 128,-1,67
 538 -33 538 -33 493.5 -48.5 c 128,-1,68
 449 -64 449 -64 392 -64 c 0,69,70
 214 -64 214 -64 136 66 c 0,71,72
 90 142 90 142 90 240 c 0,73,74
 90 286 90 286 100 336 c 0,75,76
 132 496 132 496 247 607 c 0,77,78
 380 734 380 734 562.5 734 c 128,-1,79
 745 734 745 734 809 599 c 0,80,81
 838 538 838 538 838 476 c 128,-1,82
 838 414 838 414 824 357 c 0,83,84
 793 238 793 238 721 181 c 0,85,86
 681 149 681 149 638 149 c 0,87,88
 578 149 578 149 554 200 c 1,89,90
 534 240 534 240 534 294 c 0,91,92
 534 309 534 309 536 326 c 1,93,-1
 527 326 l 1,94,95
 423 150 423 150 371 150 c 0,0,1
EndSplineSet
EndChar

StartChar: A
Encoding: 65 65 36
Width: 1188
GlyphClass: 2
Flags: W
LayerCount: 2
Fore
SplineSet
415 -16 m 1,0,1
 361 37 361 37 361 144 c 0,2,3
 361 229 361 229 394 304 c 128,-1,4
 427 379 427 379 469.5 430 c 128,-1,5
 512 481 512 481 576 513.5 c 128,-1,6
 640 546 640 546 712 546 c 0,7,8
 753 546 753 546 794 533 c 1,9,10
 891 692 891 692 984 792 c 1,11,12
 1090 903 1090 903 1207 903 c 0,13,14
 1225 903 1225 903 1225 885 c 1,15,16
 1150 723 1150 723 1110.5 556 c 128,-1,17
 1071 389 1071 389 1049 233 c 128,-1,18
 1027 77 1027 77 1027 -32 c 0,19,20
 1027 -47 1027 -47 1011 -47 c 0,21,22
 972 -47 972 -47 972 43 c 0,23,24
 972 155 972 155 946 273 c 0,25,26
 931 341 931 341 897 396.5 c 128,-1,27
 863 452 863 452 814 480 c 1,28,29
 800 454 800 454 767 389.5 c 128,-1,30
 734 325 734 325 717 293 c 128,-1,31
 700 261 700 261 668.5 206.5 c 128,-1,32
 637 152 637 152 614 118 c 0,33,34
 555 30 555 30 497 -25 c 1,35,36
 508 -28 508 -28 524 -28 c 0,37,38
 618 -28 618 -28 679.5 34.5 c 128,-1,39
 741 97 741 97 765 182 c 0,40,41
 768 194 768 194 782 193 c 0,42,43
 792 192 792 192 790 184 c 0,44,45
 766 87 766 87 696.5 15 c 128,-1,46
 627 -57 627 -57 523 -57 c 0,47,48
 496 -57 496 -57 470 -49 c 1,49,50
 367 -133 367 -133 249 -133 c 0,51,52
 101 -133 101 -133 36 -17 c 0,53,54
 -17 78 -17 78 7 195 c 128,-1,55
 31 312 31 312 109 366 c 0,56,57
 154 397 154 397 210 397 c 0,58,59
 226 397 226 397 236 387 c 128,-1,60
 246 377 246 377 250 357 c 1,61,62
 184 357 184 357 131 310.5 c 128,-1,63
 78 264 78 264 60.5 203.5 c 128,-1,64
 43 143 43 143 43 90 c 0,65,66
 43 77 43 77 44 65 c 0,67,68
 48 -1 48 -1 98 -47.5 c 128,-1,69
 148 -94 148 -94 235 -94 c 128,-1,70
 322 -94 322 -94 415 -16 c 1,0,1
711 506 m 0,71,72
 647 506 647 506 591 477 c 128,-1,73
 535 448 535 448 497 402 c 128,-1,74
 459 356 459 356 433 299 c 0,75,76
 395 217 395 217 395 139 c 0,77,78
 395 50 395 50 439 5 c 1,79,80
 481 45 481 45 530 111.5 c 128,-1,81
 579 178 579 178 606 221 c 0,82,83
 639 273 639 273 772 498 c 1,84,85
 742 506 742 506 711 506 c 0,71,72
1148 859 m 1,86,87
 1059 836 1059 836 985.5 749 c 128,-1,88
 912 662 912 662 833 516 c 1,89,90
 943 456 943 456 985 277 c 1,91,92
 1006 468 1006 468 1051.5 628 c 128,-1,93
 1097 788 1097 788 1148 859 c 1,86,87
EndSplineSet
EndChar

StartChar: B
Encoding: 66 66 37
Width: 856
GlyphClass: 2
Flags: W
LayerCount: 2
Fore
SplineSet
410 831 m 0,0,1
 428 831 428 831 428 813 c 1,2,3
 351 636 351 636 296 318 c 1,4,-1
 305 318 l 1,5,6
 369 522 369 522 458 682 c 0,7,8
 506 769 506 769 563.5 819 c 128,-1,9
 621 869 621 869 680 869 c 0,10,11
 772 869 772 869 791 796 c 0,12,13
 796 778 796 778 796 760 c 0,14,15
 796 703 796 703 752 632.5 c 128,-1,16
 708 562 708 562 632 518 c 1,17,18
 724 489 724 489 751 382 c 0,19,20
 761 343 761 343 761 302 c 0,21,22
 761 224 761 224 724 139 c 0,23,24
 660 -6 660 -6 523 -77 c 0,25,26
 421 -130 421 -130 295 -130 c 0,27,28
 127 -130 127 -130 74 -34 c 0,29,30
 54 1 54 1 54 35.5 c 128,-1,31
 54 70 54 70 68 104 c 0,32,33
 94 164 94 164 145 179 c 0,34,35
 157 183 157 183 166.5 183 c 128,-1,36
 176 183 176 183 177.5 176.5 c 128,-1,37
 179 170 179 170 176.5 163.5 c 128,-1,38
 174 157 174 157 169 157 c 0,39,40
 131 157 131 157 105 109 c 0,41,42
 87 77 87 77 87 48.5 c 128,-1,43
 87 20 87 20 98 -4 c 0,44,45
 134 -86 134 -86 275 -86 c 0,46,47
 442 -86 442 -86 567 52 c 0,48,49
 663 157 663 157 690 288 c 0,50,51
 697 326 697 326 697 357 c 0,52,53
 697 427 697 427 660 466 c 1,54,55
 633 493 633 493 591 497 c 1,56,57
 531 471 531 471 461 471 c 0,58,59
 453 471 453 471 453 486 c 128,-1,60
 453 501 453 501 461 501 c 0,61,62
 572 501 572 501 656 604 c 0,63,64
 727 690 727 690 727 773 c 0,65,66
 727 826 727 826 686 834 c 0,67,68
 680 835 680 835 674 835 c 0,69,70
 618 835 618 835 555.5 756.5 c 128,-1,71
 493 678 493 678 442.5 565.5 c 128,-1,72
 392 453 392 453 350 335.5 c 128,-1,73
 308 218 308 218 284.5 134.5 c 128,-1,74
 261 51 261 51 261 36 c 128,-1,75
 261 21 261 21 245 21 c 0,76,77
 211 21 211 21 211 111 c 0,78,79
 211 329 211 329 260 533 c 128,-1,80
 309 737 309 737 369 806 c 1,81,82
 273 794 273 794 166 737 c 0,83,84
 116 710 116 710 83.5 669 c 128,-1,85
 51 628 51 628 51 582 c 0,86,87
 51 553 51 553 73 553 c 1,88,89
 69 537 69 537 48.5 537 c 128,-1,90
 28 537 28 537 13 553 c 128,-1,91
 -2 569 -2 569 -2 597 c 0,92,93
 -2 647 -2 647 45.5 693 c 128,-1,94
 93 739 93 739 160 768 c 128,-1,95
 227 797 227 797 295 814 c 128,-1,96
 363 831 363 831 410 831 c 0,0,1
EndSplineSet
EndChar

StartChar: C
Encoding: 67 67 38
Width: 680
GlyphClass: 2
Flags: W
LayerCount: 2
Fore
SplineSet
651 577 m 0,0,1
 651 572 651 572 641.5 571.5 c 128,-1,2
 632 571 632 571 622 575.5 c 128,-1,3
 612 580 612 580 612 588 c 0,4,5
 612 702 612 702 637.5 772.5 c 128,-1,6
 663 843 663 843 706 843 c 0,7,8
 717 843 717 843 725 835 c 128,-1,9
 733 827 733 827 733 814 c 1,10,11
 682 763 682 763 660 663 c 0,12,13
 651 622 651 622 651 577 c 0,0,1
583 816 m 0,14,15
 432 816 432 816 311 644 c 1,16,17
 207 494 207 494 170 291 c 0,18,19
 156 212 156 212 156 131.5 c 128,-1,20
 156 51 156 51 187 -15 c 0,21,22
 227 -99 227 -99 310 -99 c 0,23,24
 407 -99 407 -99 476 10 c 0,25,26
 522 82 522 82 525 144 c 0,27,28
 527 175 527 175 512 175 c 1,29,30
 519 201 519 201 546 201 c 0,31,32
 578 201 578 201 578 156 c 0,33,34
 578 76 578 76 510 -15 c 0,35,36
 425 -129 425 -129 309 -137 c 1,37,-1
 295 -137 l 2,38,39
 149 -137 149 -137 95 6 c 0,40,41
 68 77 68 77 68 163.5 c 128,-1,42
 68 250 68 250 91 348 c 0,43,44
 141 556 141 556 264 702 c 0,45,46
 405 870 405 870 581 870 c 0,47,48
 603 870 603 870 613 855.5 c 128,-1,49
 623 841 623 841 622 826 c 1,50,-1
 622 812 l 1,51,52
 614 816 614 816 583 816 c 0,14,15
EndSplineSet
EndChar

StartChar: D
Encoding: 68 68 39
Width: 843
GlyphClass: 2
Flags: W
LayerCount: 2
Fore
SplineSet
49 537 m 0,0,1
 8 537 8 537 8 592.5 c 128,-1,2
 8 648 8 648 60 716 c 0,3,4
 148 830 148 830 308 861 c 0,5,6
 358 870 358 870 411 870 c 0,7,8
 611 870 611 870 704 714 c 1,9,10
 763 613 763 613 763 477 c 0,11,12
 763 432 763 432 757 383 c 0,13,14
 731 189 731 189 618 47 c 0,15,16
 488 -118 488 -118 303 -129 c 1,17,-1
 277 -130 l 1,18,19
 110 -130 110 -130 60 -34 c 0,20,21
 43 -1 43 -1 43 33.5 c 128,-1,22
 43 68 43 68 59 104 c 0,23,24
 86 164 86 164 138 179 c 0,25,26
 150 183 150 183 159.5 183 c 128,-1,27
 169 183 169 183 170.5 176.5 c 128,-1,28
 172 170 172 170 169 163.5 c 128,-1,29
 166 157 166 157 161 157 c 0,30,31
 123 157 123 157 96 109 c 0,32,33
 76 75 76 75 76 46.5 c 128,-1,34
 76 18 76 18 85 -4 c 0,35,36
 119 -86 119 -86 264.5 -86 c 128,-1,37
 410 -86 410 -86 533 65 c 0,38,39
 643 200 643 200 680 385 c 0,40,41
 694 456 694 456 694 518 c 0,42,43
 694 626 694 626 652 706 c 0,44,45
 581 840 581 840 410 840 c 0,46,47
 219 840 219 840 121 714 c 0,48,49
 70 648 70 648 67 588 c 0,50,51
 66 560 66 560 78 560 c 1,52,53
 71 537 71 537 49 537 c 0,0,1
211 111 m 0,54,55
 211 283 211 283 241 443.5 c 128,-1,56
 271 604 271 604 315.5 698 c 128,-1,57
 360 792 360 792 402 792 c 0,58,59
 420 792 420 792 420 774 c 1,60,61
 370 670 370 670 331 495 c 0,62,63
 261 176 261 176 261 36 c 0,64,65
 261 21 261 21 245 21 c 0,66,67
 211 21 211 21 211 111 c 0,54,55
EndSplineSet
EndChar

StartChar: E
Encoding: 69 69 40
Width: 710
GlyphClass: 2
Flags: W
LayerCount: 2
Fore
SplineSet
385 535 m 1,0,1
 295 568 295 568 295 651 c 0,2,3
 295 722 295 722 361 786 c 1,4,5
 450 869 450 869 576 870 c 0,6,7
 597 870 597 870 607 854.5 c 128,-1,8
 617 839 617 839 616 824 c 1,9,-1
 616 808 l 1,10,11
 607 812 607 812 577 812 c 0,12,13
 478 812 478 812 408 742 c 0,14,15
 357 692 357 692 357 640 c 0,16,17
 357 568 357 568 447 551 c 0,18,19
 470 547 470 547 489 547 c 0,20,21
 521 547 521 547 528 525 c 1,22,-1
 531 518 l 1,23,24
 342 518 342 518 212 375 c 1,25,26
 111 266 111 266 88 124 c 0,27,28
 82 90 82 90 82 59 c 0,29,30
 82 -28 82 -28 127.5 -81 c 128,-1,31
 173 -134 173 -134 253 -134 c 0,32,33
 409 -134 409 -134 494 -5 c 0,34,35
 553 85 553 85 553 188 c 0,36,37
 553 281 553 281 508 306 c 0,38,39
 495 313 495 313 482 313 c 1,40,41
 497 339 497 339 536 339 c 0,42,43
 591 339 591 339 608 268 c 0,44,45
 614 240 614 240 614 211 c 0,46,47
 614 146 614 146 583 68 c 0,48,49
 528 -69 528 -69 413 -131 c 0,50,51
 340 -171 340 -171 252 -171 c 0,52,53
 90 -171 90 -171 28 -55 c 0,54,55
 -27 48 -27 48 16 192.5 c 128,-1,56
 59 337 59 337 181 437 c 1,57,58
 272 510 272 510 385 535 c 1,0,1
655 616 m 0,59,60
 655 610 655 610 645 610 c 128,-1,61
 635 610 635 610 625.5 614.5 c 128,-1,62
 616 619 616 619 616 627 c 0,63,64
 616 741 616 741 641.5 811.5 c 128,-1,65
 667 882 667 882 710 882 c 0,66,67
 721 882 721 882 729 874 c 128,-1,68
 737 866 737 866 737 853 c 1,69,70
 686 802 686 802 664 702 c 0,71,72
 655 661 655 661 655 616 c 0,59,60
EndSplineSet
EndChar

StartChar: F
Encoding: 70 70 41
Width: 764
GlyphClass: 2
Flags: W
LayerCount: 2
Fore
SplineSet
659 538 m 0,0,1
 658 522 658 522 634.5 522 c 128,-1,2
 611 522 611 522 547 511 c 1,3,4
 496 261 496 261 460 157 c 0,5,6
 361 -130 361 -130 173 -130 c 0,7,8
 55 -130 55 -130 15 -26 c 0,9,10
 -2 17 -2 17 -2 67.5 c 128,-1,11
 -2 118 -2 118 18 177 c 0,12,13
 54 286 54 286 129 329 c 0,14,15
 165 350 165 350 192 350 c 0,16,17
 234 350 234 350 238 330 c 1,18,-1
 240 324 l 1,19,20
 146 324 146 324 84 229 c 0,21,22
 32 150 32 150 32 62 c 0,23,24
 32 -48 32 -48 105 -80 c 0,25,26
 129 -91 129 -91 159 -91 c 0,27,28
 286 -91 286 -91 365 105 c 0,29,30
 405 203 405 203 459 442 c 0,31,32
 468 479 468 479 472 497 c 1,33,34
 414 487 414 487 380 487 c 128,-1,35
 346 487 346 487 341 514 c 1,36,37
 336 535 336 535 349 540 c 0,38,39
 351 541 351 541 353 541 c 1,40,41
 358 534 358 534 388.5 534 c 128,-1,42
 419 534 419 534 482 539 c 1,43,44
 538 764 538 764 597 824 c 1,45,46
 579 822 579 822 541 822 c 0,47,48
 329 822 329 822 241 700 c 0,49,50
 197 640 197 640 197 576 c 0,51,52
 197 498 197 498 237 488 c 0,53,54
 240 487 240 487 244 487 c 1,55,56
 240 471 240 471 218 471 c 0,57,58
 173 471 173 471 154 524 c 0,59,60
 144 550 144 550 144 586 c 128,-1,61
 144 622 144 622 167 671 c 0,62,63
 222 784 222 784 371 827 c 0,64,65
 446 849 446 849 527.5 849 c 128,-1,66
 609 849 609 849 657 862.5 c 128,-1,67
 705 876 705 876 723.5 893 c 128,-1,68
 742 910 742 910 760.5 923.5 c 128,-1,69
 779 937 779 937 797.5 937 c 128,-1,70
 816 937 816 937 816 922 c 0,71,72
 816 895 816 895 769.5 869.5 c 128,-1,73
 723 844 723 844 667 833 c 1,74,75
 630 817 630 817 605.5 746.5 c 128,-1,76
 581 676 581 676 554 544 c 1,77,78
 612 549 612 549 650 549 c 0,79,80
 660 549 660 549 659 538 c 0,0,1
691 345 m 0,81,82
 691 339 691 339 681 339 c 128,-1,83
 671 339 671 339 661.5 343.5 c 128,-1,84
 652 348 652 348 652 356 c 0,85,86
 652 470 652 470 677.5 540.5 c 128,-1,87
 703 611 703 611 746 611 c 0,88,89
 757 611 757 611 765 603 c 128,-1,90
 773 595 773 595 773 582 c 1,91,92
 722 531 722 531 700 431 c 0,93,94
 691 390 691 390 691 345 c 0,81,82
EndSplineSet
EndChar

StartChar: G
Encoding: 71 71 42
Width: 848
GlyphClass: 2
Flags: W
LayerCount: 2
Fore
SplineSet
263 499 m 1,0,1
 201 513 201 513 164 551 c 0,2,3
 124 593 124 593 124 652 c 0,4,5
 124 744 124 744 185 792 c 0,6,7
 221 821 221 821 266 821 c 0,8,9
 277 821 277 821 282.5 815 c 128,-1,10
 288 809 288 809 289 797 c 1,11,12
 243 797 243 797 210 761 c 0,13,14
 166 714 166 714 166 658 c 0,15,16
 166 623 166 623 186 588 c 0,17,18
 213 543 213 543 274 528 c 1,19,20
 333 674 333 674 422.5 772 c 128,-1,21
 512 870 512 870 607 870 c 0,22,23
 687 870 687 870 702 805 c 0,24,25
 705 791 705 791 705 776 c 0,26,27
 705 721 705 721 661 656 c 0,28,29
 590 553 590 553 465 512 c 0,30,31
 411 494 411 494 351 492 c 1,32,33
 301 341 301 341 301 205.5 c 128,-1,34
 301 70 301 70 363 70 c 0,35,36
 406 70 406 70 460.5 129.5 c 128,-1,37
 515 189 515 189 564 276 c 0,38,39
 656 443 656 443 696 548 c 0,40,41
 713 590 713 590 729 610 c 128,-1,42
 745 630 745 630 767 630 c 0,43,44
 792 630 792 630 792 604 c 1,45,46
 752 509 752 509 713 284 c 1,47,48
 673 66 673 66 653 7.5 c 128,-1,49
 633 -51 633 -51 611.5 -103 c 128,-1,50
 590 -155 590 -155 567 -189 c 128,-1,51
 544 -223 544 -223 511 -259.5 c 128,-1,52
 478 -296 478 -296 440 -318 c 0,53,54
 354 -366 354 -366 249 -366 c 0,55,56
 79 -366 79 -366 11 -255 c 0,57,58
 -23 -200 -23 -200 -23 -138 c 0,59,60
 -23 -107 -23 -107 -15 -74 c 0,61,62
 7 14 7 14 73 49 c 0,63,64
 102 65 102 65 126 65 c 0,65,66
 164 65 164 65 170 43 c 2,67,-1
 172 36 l 1,68,69
 104 36 104 36 64 -37 c 0,70,71
 37 -87 37 -87 37 -141 c 0,72,73
 37 -168 37 -168 44 -196 c 0,74,75
 67 -294 67 -294 161 -327 c 0,76,77
 200 -340 200 -340 256.5 -340 c 128,-1,78
 313 -340 313 -340 365.5 -318 c 128,-1,79
 418 -296 418 -296 456.5 -242 c 128,-1,80
 495 -188 495 -188 520.5 -146.5 c 128,-1,81
 546 -105 546 -105 570 -15.5 c 128,-1,82
 594 74 594 74 603 114 c 0,83,84
 626 214 626 214 635 266.5 c 128,-1,85
 644 319 644 319 647 333 c 1,86,-1
 636 333 l 1,87,88
 476 32 476 32 348 32 c 0,89,90
 287 32 287 32 252 73 c 0,91,92
 209 124 209 124 209 239.5 c 128,-1,93
 209 355 209 355 263 499 c 1,0,1
607 837 m 0,94,95
 536 837 536 837 471.5 748 c 128,-1,96
 407 659 407 659 361 523 c 1,97,98
 502 533 502 533 595 635 c 0,99,100
 663 709 663 709 663 779 c 0,101,102
 663 829 663 829 619 836 c 0,103,104
 613 837 613 837 607 837 c 0,94,95
EndSplineSet
EndChar

StartChar: H
Encoding: 72 72 43
Width: 1014
GlyphClass: 2
Flags: W
LayerCount: 2
Fore
SplineSet
683 833 m 0,0,1
 692 833 692 833 697.5 828.5 c 128,-1,2
 703 824 703 824 705 815 c 1,3,4
 655 815 655 815 624 694 c 0,5,6
 613 651 613 651 578 451 c 1,7,8
 821 470 821 470 840 471 c 1,9,10
 876 658 876 658 930.5 780.5 c 128,-1,11
 985 903 985 903 1033 903 c 0,12,13
 1051 903 1051 903 1051 885 c 1,14,15
 976 723 976 723 936.5 556 c 128,-1,16
 897 389 897 389 875 233 c 128,-1,17
 853 77 853 77 853 -32 c 0,18,19
 853 -47 853 -47 837 -47 c 0,20,21
 798 -47 798 -47 798 43 c 0,22,23
 798 238 798 238 834 443 c 1,24,25
 798 439 798 439 703 426.5 c 128,-1,26
 608 414 608 414 571 410 c 1,27,28
 525 154 525 154 462 42 c 0,29,30
 397 -72 397 -72 314 -108 c 1,31,32
 266 -130 266 -130 207 -130 c 0,33,34
 120 -130 120 -130 66.5 -80.5 c 128,-1,35
 13 -31 13 -31 5 40 c 0,36,37
 2 64 2 64 2 99 c 128,-1,38
 2 134 2 134 12 180 c 0,39,40
 28 251 28 251 77 300.5 c 128,-1,41
 126 350 126 350 189 350 c 0,42,43
 205 350 205 350 215 340 c 128,-1,44
 225 330 225 330 229 310 c 1,45,46
 137 310 137 310 79 221 c 1,47,48
 34 154 34 154 34 78 c 0,49,50
 34 -42 34 -42 122 -78 c 0,51,52
 152 -91 152 -91 193.5 -91 c 128,-1,53
 235 -91 235 -91 272 -72.5 c 128,-1,54
 309 -54 309 -54 338 -16 c 128,-1,55
 367 22 367 22 388.5 63 c 128,-1,56
 410 104 410 104 430 167 c 0,57,58
 460 265 460 265 488 400 c 1,59,60
 452 396 452 396 424 396 c 128,-1,61
 396 396 396 396 391 423 c 1,62,63
 386 444 386 444 399 449 c 0,64,65
 401 450 401 450 403 450 c 1,66,67
 408 443 408 443 429.5 443 c 128,-1,68
 451 443 451 443 498 446 c 1,69,70
 518 545 518 545 531.5 600 c 128,-1,71
 545 655 545 655 569 716.5 c 128,-1,72
 593 778 593 778 621 805 c 1,73,74
 465 777 465 777 375 690 c 0,75,76
 324 641 324 641 324 584 c 0,77,78
 324 555 324 555 346 555 c 1,79,80
 342 539 342 539 321.5 539 c 128,-1,81
 301 539 301 539 286 555 c 128,-1,82
 271 571 271 571 271 599 c 0,83,84
 271 649 271 649 318.5 695 c 128,-1,85
 366 741 366 741 433 770 c 128,-1,86
 500 799 500 799 568 816 c 128,-1,87
 636 833 636 833 683 833 c 0,0,1
EndSplineSet
EndChar

StartChar: I
Encoding: 73 73 44
Width: 660
GlyphClass: 2
Flags: W
LayerCount: 2
Fore
SplineSet
662 856 m 0,0,1
 671 856 671 856 676.5 851.5 c 128,-1,2
 682 847 682 847 684 838 c 1,3,4
 617 838 617 838 586 646 c 0,5,6
 573 560 573 560 560 457 c 128,-1,7
 547 354 547 354 524.5 251 c 128,-1,8
 502 148 502 148 467 62.5 c 128,-1,9
 432 -23 432 -23 367 -76.5 c 128,-1,10
 302 -130 302 -130 213.5 -130 c 128,-1,11
 125 -130 125 -130 71.5 -80.5 c 128,-1,12
 18 -31 18 -31 10 40 c 0,13,14
 7 64 7 64 7 99 c 128,-1,15
 7 134 7 134 18 180 c 1,16,17
 33 251 33 251 82 300.5 c 128,-1,18
 131 350 131 350 194 350 c 0,19,20
 210 350 210 350 220 340 c 128,-1,21
 230 330 230 330 234 310 c 1,22,23
 142 310 142 310 84 221 c 1,24,25
 39 154 39 154 39 78 c 0,26,27
 39 -42 39 -42 127 -78 c 0,28,29
 157 -91 157 -91 195 -91 c 0,30,31
 268 -91 268 -91 321 -35 c 128,-1,32
 374 21 374 21 402 107 c 128,-1,33
 430 193 430 193 453 301.5 c 128,-1,34
 476 410 476 410 491 508.5 c 128,-1,35
 506 607 506 607 532 694.5 c 128,-1,36
 558 782 558 782 592 821 c 1,37,38
 505 791 505 791 433.5 725.5 c 128,-1,39
 362 660 362 660 362 582 c 0,40,41
 362 547 362 547 385 547 c 1,42,43
 383 531 383 531 362 531 c 128,-1,44
 341 531 341 531 325 548 c 128,-1,45
 309 565 309 565 309 597 c 0,46,47
 309 647 309 647 348.5 696.5 c 128,-1,48
 388 746 388 746 444 780 c 128,-1,49
 500 814 500 814 559.5 835 c 128,-1,50
 619 856 619 856 662 856 c 0,0,1
EndSplineSet
EndChar

StartChar: J
Encoding: 74 74 45
Width: 823
GlyphClass: 2
Flags: W
LayerCount: 2
Fore
SplineSet
254 -230 m 0,0,1
 338 -230 338 -230 401 -180.5 c 128,-1,2
 464 -131 464 -131 501 -48.5 c 128,-1,3
 538 34 538 34 565 135 c 128,-1,4
 592 236 592 236 610.5 344.5 c 128,-1,5
 629 453 629 453 646 548 c 0,6,7
 687 769 687 769 756 830 c 1,8,9
 600 806 600 806 517 680 c 0,10,11
 463 598 463 598 463 518 c 0,12,13
 463 433 463 433 513 419 c 0,14,15
 521 417 521 417 529 417 c 1,16,17
 529 407 529 407 517.5 398.5 c 128,-1,18
 506 390 506 390 489 390 c 0,19,20
 425 390 425 390 405 458 c 0,21,22
 398 482 398 482 398 509 c 0,23,24
 398 566 398 566 430 633 c 0,25,26
 489 754 489 754 615 813 c 0,27,28
 707 856 707 856 821 856 c 0,29,30
 833 856 833 856 839.5 850.5 c 128,-1,31
 846 845 846 845 848 834 c 1,32,33
 786 834 786 834 755 696 c 0,34,35
 741 633 741 633 729.5 551.5 c 128,-1,36
 718 470 718 470 703 379.5 c 128,-1,37
 688 289 688 289 668.5 198.5 c 128,-1,38
 649 108 649 108 615.5 26.5 c 128,-1,39
 582 -55 582 -55 536 -118 c 128,-1,40
 490 -181 490 -181 418 -218.5 c 128,-1,41
 346 -256 346 -256 255 -256 c 0,42,43
 193 -256 193 -256 144.5 -237 c 128,-1,44
 96 -218 96 -218 68 -186 c 0,45,46
 3 -112 3 -112 3 -17 c 0,47,48
 3 86 3 86 44 158 c 0,49,50
 125 303 125 303 258 303 c 0,51,52
 282 303 282 303 296 291 c 128,-1,53
 310 279 310 279 312 267 c 2,54,-1
 315 255 l 1,55,56
 295 257 295 257 286 257 c 0,57,58
 182 257 182 257 115 158 c 0,59,60
 60 77 60 77 60 -19 c 0,61,62
 60 -150 60 -150 147 -203 c 0,63,64
 192 -230 192 -230 254 -230 c 0,0,1
EndSplineSet
EndChar

StartChar: K
Encoding: 75 75 46
Width: 742
GlyphClass: 2
Flags: W
LayerCount: 2
Fore
SplineSet
736 -142.5 m 128,-1,1
 778 -199 778 -199 810 -199 c 128,-1,2
 842 -199 842 -199 857 -178 c 1,3,4
 864 -178 864 -178 864 -183.5 c 128,-1,5
 864 -189 864 -189 859 -199 c 0,6,7
 837 -237 837 -237 794 -237 c 128,-1,8
 751 -237 751 -237 702 -194 c 128,-1,9
 653 -151 653 -151 614 -86 c 128,-1,10
 575 -21 575 -21 536.5 54.5 c 128,-1,11
 498 130 498 130 470 195 c 0,12,13
 403 346 403 346 375 346 c 1,14,15
 369 352 369 352 386 380 c 0,16,17
 692 869 692 869 811 869 c 0,18,19
 827 869 827 869 836 855.5 c 128,-1,20
 845 842 845 842 846 828 c 2,21,-1
 847 814 l 1,22,23
 797 814 797 814 730 748 c 0,24,25
 694 712 694 712 666.5 683 c 128,-1,26
 639 654 639 654 592 593 c 128,-1,27
 545 532 545 532 522 501 c 128,-1,28
 499 470 499 470 447 400 c 1,29,30
 484 376 484 376 578 164 c 0,31,32
 615 80 615 80 654.5 -3 c 128,-1,0
 694 -86 694 -86 736 -142.5 c 128,-1,1
412 831 m 0,33,34
 430 831 430 831 430 813 c 1,35,36
 383 705 383 705 346 550 c 128,-1,37
 309 395 309 395 286 248 c 128,-1,38
 263 101 263 101 263 36 c 0,39,40
 263 21 263 21 247 21 c 0,41,42
 213 21 213 21 213 111 c 0,43,44
 213 329 213 329 262 533 c 128,-1,45
 311 737 311 737 371 806 c 1,46,47
 275 794 275 794 168 737 c 0,48,49
 118 710 118 710 85.5 669 c 128,-1,50
 53 628 53 628 53 582 c 0,51,52
 53 553 53 553 75 553 c 1,53,54
 71 537 71 537 50.5 537 c 128,-1,55
 30 537 30 537 15 553 c 128,-1,56
 0 569 0 569 0 597 c 0,57,58
 0 647 0 647 47.5 693 c 128,-1,59
 95 739 95 739 162 768 c 128,-1,60
 229 797 229 797 297 814 c 128,-1,61
 365 831 365 831 412 831 c 0,33,34
EndSplineSet
EndChar

StartChar: L
Encoding: 76 76 47
Width: 656
GlyphClass: 2
Flags: W
LayerCount: 2
Fore
SplineSet
603 818 m 0,0,1
 560 818 560 818 529.5 768.5 c 128,-1,2
 499 719 499 719 482 641.5 c 128,-1,3
 465 564 465 564 444.5 464.5 c 128,-1,4
 424 365 424 365 404 270.5 c 128,-1,5
 384 176 384 176 344 86 c 128,-1,6
 304 -4 304 -4 250 -56 c 1,7,8
 289 -71 289 -71 367 -103.5 c 128,-1,9
 445 -136 445 -136 491 -154 c 0,10,11
 616 -203 616 -203 681 -203 c 0,12,13
 730 -203 730 -203 757 -181 c 0,14,15
 780 -162 780 -162 788 -142 c 1,16,17
 806 -142 806 -142 806 -169 c 0,18,19
 806 -211 806 -211 766 -240.5 c 128,-1,20
 726 -270 726 -270 671 -270 c 128,-1,21
 616 -270 616 -270 550 -249.5 c 128,-1,22
 484 -229 484 -229 443 -210.5 c 128,-1,23
 402 -192 402 -192 315 -146.5 c 128,-1,24
 228 -101 228 -101 207 -91 c 1,25,26
 144 -132 144 -132 57 -132 c 128,-1,27
 -30 -132 -30 -132 -58 -84 c 0,28,29
 -66 -70 -66 -70 -66 -54 c 128,-1,30
 -66 -38 -66 -38 -45.5 -17.5 c 128,-1,31
 -25 3 -25 3 29.5 3 c 128,-1,32
 84 3 84 3 200 -38 c 1,33,34
 252 20 252 20 287.5 138 c 128,-1,35
 323 256 323 256 343.5 376.5 c 128,-1,36
 364 497 364 497 389 611 c 128,-1,37
 414 725 414 725 461 797.5 c 128,-1,38
 508 870 508 870 579 870 c 0,39,40
 611 870 611 870 627 854 c 128,-1,41
 643 838 643 838 644 822 c 1,42,-1
 644 807 l 1,43,44
 633 818 633 818 603 818 c 0,0,1
671 577 m 0,45,46
 671 572 671 572 661.5 571.5 c 128,-1,47
 652 571 652 571 642 575.5 c 128,-1,48
 632 580 632 580 632 588 c 0,49,50
 632 702 632 702 657.5 772.5 c 128,-1,51
 683 843 683 843 726 843 c 0,52,53
 737 843 737 843 745 835 c 128,-1,54
 753 827 753 827 753 814 c 1,55,56
 702 763 702 763 680 663 c 0,57,58
 671 622 671 622 671 577 c 0,45,46
9 -25 m 0,59,60
 -25 -25 -25 -25 -33 -48 c 0,61,62
 -35 -53 -35 -53 -35 -58 c 0,63,64
 -35 -76 -35 -76 -8 -89 c 256,65,66
 19 -102 19 -102 68.5 -102 c 128,-1,67
 118 -102 118 -102 164 -70 c 1,68,69
 66 -25 66 -25 9 -25 c 0,59,60
EndSplineSet
EndChar

StartChar: M
Encoding: 77 77 48
Width: 1088
GlyphClass: 2
Flags: W
LayerCount: 2
Fore
SplineSet
887 28 m 0,0,1
 887 -127 887 -127 957 -127 c 0,2,3
 1000 -127 1000 -127 1033 -61 c 0,4,5
 1039 -49 1039 -49 1049 -52.5 c 128,-1,6
 1059 -56 1059 -56 1057 -61 c 0,7,8
 1052 -74 1052 -74 1042 -93 c 128,-1,9
 1032 -112 1032 -112 1005 -138 c 128,-1,10
 978 -164 978 -164 949 -164 c 0,11,12
 813 -164 813 -164 813 53 c 0,13,14
 813 293 813 293 985 810 c 0,15,16
 989 823 989 823 979 823 c 1,17,18
 970 822 970 822 960 813 c 0,19,20
 882 739 882 739 799 598 c 0,21,22
 670 378 670 378 606 193 c 0,23,24
 579 114 579 114 557 75.5 c 128,-1,25
 535 37 535 37 512 37 c 128,-1,26
 489 37 489 37 489 61 c 0,27,28
 489 62 489 62 489.5 63 c 128,-1,29
 490 64 490 64 497 88 c 128,-1,30
 504 112 504 112 511.5 139.5 c 128,-1,31
 519 167 519 167 530.5 209 c 128,-1,32
 542 251 542 251 552.5 293 c 128,-1,33
 563 335 563 335 574.5 383 c 128,-1,34
 586 431 586 431 595.5 476 c 128,-1,35
 605 521 605 521 613 563 c 0,36,37
 630 652 630 652 630 706.5 c 128,-1,38
 630 761 630 761 604 761 c 0,39,40
 571 761 571 761 506.5 672 c 128,-1,41
 442 583 442 583 376 445.5 c 128,-1,42
 310 308 310 308 277 192 c 128,-1,43
 244 76 244 76 212 13 c 128,-1,44
 180 -50 180 -50 155 -50 c 0,45,46
 132 -50 132 -50 132 -26 c 1,47,48
 133 -22 133 -22 138 -8 c 128,-1,49
 143 6 143 6 153 39 c 128,-1,50
 163 72 163 72 182 137.5 c 128,-1,51
 201 203 201 203 215 267 c 0,52,53
 259 467 259 467 259 567 c 0,54,55
 259 617 259 617 252.5 666 c 128,-1,56
 246 715 246 715 219 745.5 c 128,-1,57
 192 776 192 776 148 776 c 0,58,59
 80 776 80 776 52 720 c 0,60,61
 42 699 42 699 42 685 c 128,-1,62
 42 671 42 671 50 671 c 1,63,64
 47 655 47 655 25 655 c 0,65,66
 0 655 0 655 0 691 c 128,-1,67
 0 727 0 727 44 765 c 128,-1,68
 88 803 88 803 162 803 c 0,69,70
 213 803 213 803 248 773.5 c 128,-1,71
 283 744 283 744 299 694 c 0,72,73
 324 615 324 615 324 520 c 0,74,75
 324 482 324 482 320 443 c 1,76,-1
 331 443 l 1,77,78
 512 804 512 804 631 804 c 0,79,80
 701 804 701 804 701 685 c 0,81,82
 701 627 701 627 675 484 c 1,83,-1
 685 484 l 1,84,85
 892 872 892 872 1022 872 c 0,86,87
 1073 872 1073 872 1073 816 c 1,88,89
 1038 729 1038 729 995 580 c 0,90,91
 887 209 887 209 887 28 c 0,0,1
EndSplineSet
EndChar

StartChar: N
Encoding: 78 78 49
Width: 779
GlyphClass: 2
Flags: W
LayerCount: 2
Fore
SplineSet
593 28 m 0,0,1
 593 -127 593 -127 663 -127 c 0,2,3
 706 -127 706 -127 739 -61 c 0,4,5
 745 -49 745 -49 755 -52.5 c 128,-1,6
 765 -56 765 -56 763 -61 c 0,7,8
 758 -74 758 -74 748 -93 c 128,-1,9
 738 -112 738 -112 711 -138 c 128,-1,10
 684 -164 684 -164 655 -164 c 0,11,12
 519 -164 519 -164 519 48 c 128,-1,13
 519 260 519 260 640 661 c 0,14,15
 649 688 649 688 664 736 c 2,16,-1
 682 797 l 2,17,18
 685 806 685 806 675 806 c 1,19,20
 668 804 668 804 663 800 c 0,21,22
 600 745 600 745 528.5 638 c 128,-1,23
 457 531 457 531 397 412 c 0,24,25
 297 213 297 213 243.5 81.5 c 128,-1,26
 190 -50 190 -50 156 -50 c 0,27,28
 133 -50 133 -50 133 -26 c 2,29,-1
 133 -24 l 1,30,31
 140 -8 140 -8 166 79 c 128,-1,32
 192 166 192 166 208 235 c 0,33,34
 254 432 254 432 258 526 c 0,35,36
 260 552 260 552 260 584.5 c 128,-1,37
 260 617 260 617 255 663 c 128,-1,38
 250 709 250 709 222.5 742.5 c 128,-1,39
 195 776 195 776 149 776 c 0,40,41
 81 776 81 776 53 720 c 0,42,43
 43 699 43 699 43 685 c 128,-1,44
 43 671 43 671 51 671 c 1,45,46
 48 655 48 655 26 655 c 0,47,48
 1 655 1 655 1 691 c 128,-1,49
 1 727 1 727 45 765 c 128,-1,50
 89 803 89 803 154.5 803 c 128,-1,51
 220 803 220 803 257.5 766.5 c 128,-1,52
 295 730 295 730 309 670 c 0,53,54
 326 598 326 598 326 520.5 c 128,-1,55
 326 443 326 443 315 376 c 1,56,-1
 325 376 l 1,57,58
 588 872 588 872 728 872 c 0,59,60
 779 872 779 872 779 816 c 1,61,62
 744 729 744 729 701 580 c 0,63,64
 593 209 593 209 593 28 c 0,0,1
EndSplineSet
EndChar

StartChar: O
Encoding: 79 79 50
Width: 768
GlyphClass: 2
Flags: W
LayerCount: 2
Fore
SplineSet
324 -27 m 0,0,1
 447 -27 447 -27 536 137 c 1,2,3
 612 280 612 280 628 466 c 0,4,5
 631 504 631 504 631 537 c 0,6,7
 631 650 631 650 594 702 c 1,8,9
 571 731 571 731 540 732 c 1,10,-1
 542 740 l 2,11,12
 544 744 544 744 555.5 751 c 128,-1,13
 567 758 567 758 584 758 c 0,14,15
 657 758 657 758 682 648 c 0,16,17
 693 599 693 599 693 525.5 c 128,-1,18
 693 452 693 452 665 340 c 1,19,20
 612 136 612 136 502 25 c 0,21,22
 414 -65 414 -65 308 -65 c 0,23,24
 161 -65 161 -65 105 81 c 0,25,26
 77 155 77 155 77 240.5 c 128,-1,27
 77 326 77 326 97 418 c 0,28,29
 141 615 141 615 247.5 742.5 c 128,-1,30
 354 870 354 870 479 870 c 0,31,32
 528 870 528 870 542 834 c 0,33,34
 545 826 545 826 545 820 c 2,35,-1
 545 814 l 1,36,37
 534 818 534 818 503 818 c 0,38,39
 385 818 385 818 293 670 c 128,-1,40
 201 522 201 522 175 332 c 0,41,42
 167 273 167 273 167 223 c 0,43,44
 167 110 167 110 208 41.5 c 128,-1,45
 249 -27 249 -27 324 -27 c 0,0,1
EndSplineSet
EndChar

StartChar: P
Encoding: 80 80 51
Width: 732
GlyphClass: 2
Flags: W
LayerCount: 2
Fore
SplineSet
680 869 m 0,0,1
 802 869 802 869 802 739 c 0,2,3
 802 666 802 666 753 574 c 0,4,5
 689 454 689 454 587 397 c 1,6,7
 523 360 523 360 458 360 c 0,8,9
 445 360 445 360 437.5 367.5 c 128,-1,10
 430 375 430 375 428 390 c 1,11,12
 531 390 531 390 625 512 c 0,13,14
 701 610 701 610 722 716 c 0,15,16
 728 744 728 744 728 766 c 0,17,18
 728 819 728 819 694 832 c 0,19,20
 685 835 685 835 674 835 c 0,21,22
 616 835 616 835 552 754.5 c 128,-1,23
 488 674 488 674 438 559.5 c 128,-1,24
 388 445 388 445 347 326.5 c 128,-1,25
 306 208 306 208 283.5 127 c 128,-1,26
 261 46 261 46 261 36 c 0,27,28
 261 21 261 21 245 21 c 0,29,30
 211 21 211 21 211 111 c 0,31,32
 211 329 211 329 260 533 c 128,-1,33
 309 737 309 737 369 806 c 1,34,35
 273 794 273 794 166 737 c 0,36,37
 116 710 116 710 83.5 669 c 128,-1,38
 51 628 51 628 51 582 c 0,39,40
 51 553 51 553 73 553 c 1,41,42
 69 537 69 537 48.5 537 c 128,-1,43
 28 537 28 537 13 553 c 128,-1,44
 -2 569 -2 569 -2 597 c 0,45,46
 -2 647 -2 647 45.5 693 c 128,-1,47
 93 739 93 739 160 768 c 128,-1,48
 227 797 227 797 295 814 c 128,-1,49
 363 831 363 831 410 831 c 0,50,51
 428 831 428 831 428 813 c 1,52,53
 381 705 381 705 349.5 571 c 128,-1,54
 318 437 318 437 296 317 c 1,55,-1
 305 317 l 1,56,57
 381 555 381 555 460 685 c 0,58,59
 533 806 533 806 600 846 c 0,60,61
 640 869 640 869 680 869 c 0,0,1
EndSplineSet
EndChar

StartChar: Q
Encoding: 81 81 52
Width: 766
GlyphClass: 2
Flags: W
LayerCount: 2
Fore
SplineSet
600 758 m 0,0,1
 704 758 704 758 704 567 c 0,2,3
 704 412 704 412 609.5 214.5 c 128,-1,4
 515 17 515 17 343 -74 c 1,5,6
 370 -85 370 -85 426.5 -109 c 128,-1,7
 483 -133 483 -133 515 -145.5 c 128,-1,8
 547 -158 547 -158 590 -173.5 c 128,-1,9
 633 -189 633 -189 665.5 -196 c 128,-1,10
 698 -203 698 -203 723 -203 c 128,-1,11
 748 -203 748 -203 768 -196.5 c 128,-1,12
 788 -190 788 -190 800 -181 c 0,13,14
 824 -162 824 -162 833 -142 c 1,15,16
 849 -142 849 -142 849 -166 c 0,17,18
 849 -210 849 -210 807 -240 c 128,-1,19
 765 -270 765 -270 716 -270 c 128,-1,20
 667 -270 667 -270 627 -261.5 c 128,-1,21
 587 -253 587 -253 532 -229 c 128,-1,22
 477 -205 477 -205 453.5 -194.5 c 128,-1,23
 430 -184 430 -184 358 -145 c 128,-1,24
 286 -106 286 -106 278 -102 c 1,25,26
 196 -132 196 -132 105.5 -132 c 128,-1,27
 15 -132 15 -132 -10 -84 c 1,28,29
 -18 -71 -18 -71 -18 -55 c 128,-1,30
 -18 -39 -18 -39 4.5 -18 c 128,-1,31
 27 3 27 3 72 3 c 0,32,33
 152 3 152 3 304 -58 c 1,34,35
 471 22 471 22 566 230 c 0,36,37
 641 393 641 393 641 541 c 128,-1,38
 641 689 641 689 587 723 c 0,39,40
 573 732 573 732 556 732 c 1,41,-1
 558 740 l 2,42,43
 560 744 560 744 571.5 751 c 128,-1,44
 583 758 583 758 600 758 c 0,0,1
441.5 218 m 128,-1,46
 463 268 463 268 463 302 c 128,-1,47
 463 336 463 336 486.5 347.5 c 128,-1,48
 510 359 510 359 517 343 c 0,49,50
 519 339 519 339 519 334 c 0,51,52
 519 301 519 301 499.5 252.5 c 128,-1,53
 480 204 480 204 448.5 157 c 128,-1,54
 417 110 417 110 368.5 77 c 128,-1,55
 320 44 320 44 270 44 c 0,56,57
 144 44 144 44 105 173 c 0,58,59
 89 224 89 224 89 298 c 128,-1,60
 89 372 89 372 121 476 c 1,61,62
 175 658 175 658 280.5 764 c 128,-1,63
 386 870 386 870 498 870 c 0,64,65
 538 870 538 870 552 850 c 0,66,67
 564 832 564 832 562 814 c 1,68,69
 552 818 552 818 521 818 c 0,70,71
 401 818 401 818 302 665 c 0,72,73
 214 530 214 530 187 358 c 0,74,75
 178 302 178 302 178 258 c 0,76,77
 178 168 178 168 213 120 c 0,78,79
 241 82 241 82 288 82 c 128,-1,80
 335 82 335 82 377.5 125 c 128,-1,45
 420 168 420 168 441.5 218 c 128,-1,46
59 -25 m 0,81,82
 26 -25 26 -25 16 -48 c 0,83,84
 14 -54 14 -54 14 -59 c 0,85,86
 14 -77 14 -77 39.5 -89.5 c 128,-1,87
 65 -102 65 -102 120.5 -102 c 128,-1,88
 176 -102 176 -102 239 -83 c 1,89,90
 123 -25 123 -25 59 -25 c 0,81,82
EndSplineSet
EndChar

StartChar: R
Encoding: 82 82 53
Width: 822
GlyphClass: 2
Flags: W
LayerCount: 2
Fore
SplineSet
748 -67.5 m 128,-1,1
 779 -122 779 -122 810.5 -122 c 128,-1,2
 842 -122 842 -122 855 -101 c 1,3,4
 862 -101 862 -101 862 -106.5 c 128,-1,5
 862 -112 862 -112 857 -122 c 0,6,7
 835 -160 835 -160 791.5 -160 c 128,-1,8
 748 -160 748 -160 704 -108.5 c 128,-1,9
 660 -57 660 -57 627 20.5 c 128,-1,10
 594 98 594 98 565.5 177 c 128,-1,11
 537 256 537 256 509.5 323.5 c 128,-1,12
 482 391 482 391 460 410 c 1,13,14
 448 410 448 410 440.5 417.5 c 128,-1,15
 433 425 433 425 431 440 c 1,16,17
 548 440 548 440 641 555 c 0,18,19
 712 642 712 642 726 735 c 0,20,21
 729 753 729 753 729 767 c 0,22,23
 729 820 729 820 693 832 c 1,24,-1
 674 835 l 1,25,26
 615 835 615 835 551 754.5 c 128,-1,27
 487 674 487 674 437.5 560 c 128,-1,28
 388 446 388 446 346.5 327.5 c 128,-1,29
 305 209 305 209 283 127.5 c 128,-1,30
 261 46 261 46 261 36 c 0,31,32
 261 21 261 21 245 21 c 0,33,34
 211 21 211 21 211 111 c 0,35,36
 211 329 211 329 260 533 c 128,-1,37
 309 737 309 737 369 806 c 1,38,39
 273 794 273 794 166 737 c 0,40,41
 116 710 116 710 83.5 669 c 128,-1,42
 51 628 51 628 51 582 c 0,43,44
 51 553 51 553 73 553 c 1,45,46
 69 537 69 537 48.5 537 c 128,-1,47
 28 537 28 537 13 553 c 128,-1,48
 -2 569 -2 569 -2 597 c 0,49,50
 -2 647 -2 647 45.5 693 c 128,-1,51
 93 739 93 739 160 768 c 128,-1,52
 227 797 227 797 295 814 c 128,-1,53
 363 831 363 831 410 831 c 0,54,55
 428 831 428 831 428 813 c 1,56,57
 352 639 352 639 294 306 c 1,58,-1
 302 306 l 1,59,60
 395 595 395 595 496 742 c 0,61,62
 535 797 535 797 583.5 833 c 128,-1,63
 632 869 632 869 680 869 c 0,64,65
 776 869 776 869 797 787 c 0,66,67
 803 766 803 766 803 743 c 0,68,69
 803 680 803 680 761 604 c 0,70,71
 701 495 701 495 597 443 c 0,72,73
 565 426 565 426 531 418 c 1,74,75
 580 414 580 414 641 224 c 0,76,77
 666 145 666 145 691.5 66 c 128,-1,0
 717 -13 717 -13 748 -67.5 c 128,-1,1
EndSplineSet
EndChar

StartChar: S
Encoding: 83 83 54
Width: 678
GlyphClass: 2
Flags: W
LayerCount: 2
Fore
SplineSet
116 88 m 0,0,1
 55 22 55 22 55 -49.5 c 128,-1,2
 55 -121 55 -121 128 -142 c 0,3,4
 151 -149 151 -149 181 -149 c 0,5,6
 321 -149 321 -149 403 -59 c 128,-1,7
 485 31 485 31 485 169 c 0,8,9
 485 233 485 233 458 284 c 128,-1,10
 431 335 431 335 392 369.5 c 128,-1,11
 353 404 353 404 314 436 c 0,12,13
 221 511 221 511 221 592 c 0,14,15
 221 695 221 695 314 782.5 c 128,-1,16
 407 870 407 870 513 870 c 0,17,18
 535 870 535 870 545 854.5 c 128,-1,19
 555 839 555 839 554 824 c 1,20,-1
 554 808 l 1,21,22
 546 812 546 812 515 812 c 0,23,24
 443 812 443 812 375.5 745 c 128,-1,25
 308 678 308 678 308 589 c 0,26,27
 308 514 308 514 401 434 c 0,28,29
 440 401 440 401 478.5 365 c 128,-1,30
 517 329 517 329 544 278.5 c 128,-1,31
 571 228 571 228 571 166 c 128,-1,32
 571 104 571 104 541.5 41 c 128,-1,33
 512 -22 512 -22 461.5 -70.5 c 128,-1,34
 411 -119 411 -119 337.5 -149 c 128,-1,35
 264 -179 264 -179 181 -179 c 0,36,37
 44 -179 44 -179 6 -92 c 0,38,39
 -6 -64 -6 -64 -6 -25 c 128,-1,40
 -6 14 -6 14 22 67 c 0,41,42
 69 154 69 154 159 190 c 0,43,44
 204 208 204 208 252 208 c 0,45,46
 269 208 269 208 279 198 c 128,-1,47
 289 188 289 188 293 169 c 1,48,49
 190 169 190 169 116 88 c 0,0,1
576 575 m 0,50,51
 576 569 576 569 565.5 569 c 128,-1,52
 555 569 555 569 546 573.5 c 128,-1,53
 537 578 537 578 537 586 c 0,54,55
 537 700 537 700 562.5 770.5 c 128,-1,56
 588 841 588 841 631 841 c 0,57,58
 642 841 642 841 650 833 c 128,-1,59
 658 825 658 825 658 812 c 1,60,61
 607 761 607 761 585 661 c 0,62,63
 576 620 576 620 576 575 c 0,50,51
EndSplineSet
EndChar

StartChar: T
Encoding: 84 84 55
Width: 664
GlyphClass: 2
Flags: W
LayerCount: 2
Fore
SplineSet
550 822 m 2,0,1
 325 822 325 822 233 698 c 0,2,3
 188 639 188 639 188 575 c 0,4,5
 188 500 188 500 227 488 c 0,6,7
 231 487 231 487 235 487 c 1,8,9
 231 471 231 471 209 471 c 0,10,11
 164 471 164 471 145 524 c 0,12,13
 135 550 135 550 135 586 c 128,-1,14
 135 622 135 622 159 670 c 0,15,16
 216 785 216 785 373 828 c 0,17,18
 451 849 451 849 539.5 849 c 128,-1,19
 628 849 628 849 690.5 867.5 c 128,-1,20
 753 886 753 886 782.5 907.5 c 128,-1,21
 812 929 812 929 838.5 947.5 c 128,-1,22
 865 966 865 966 882.5 966 c 128,-1,23
 900 966 900 966 900 951 c 0,24,25
 900 915 900 915 830 876 c 128,-1,26
 760 837 760 837 637 826 c 1,27,28
 588 798 588 798 554 601 c 0,29,30
 540 516 540 516 524.5 416.5 c 128,-1,31
 509 317 509 317 483.5 221 c 128,-1,32
 458 125 458 125 422 46 c 128,-1,33
 386 -33 386 -33 324.5 -81.5 c 128,-1,34
 263 -130 263 -130 182 -130 c 128,-1,35
 101 -130 101 -130 54 -80.5 c 128,-1,36
 7 -31 7 -31 3 40 c 0,37,38
 2 52 2 52 2 87.5 c 128,-1,39
 2 123 2 123 18.5 187 c 128,-1,40
 35 251 35 251 84 300.5 c 128,-1,41
 133 350 133 350 194 350 c 0,42,43
 209 350 209 350 218.5 343.5 c 128,-1,44
 228 337 228 337 232 324 c 1,45,46
 138 324 138 324 79 229 c 0,47,48
 33 155 33 155 33 72 c 0,49,50
 33 -47 33 -47 111 -80 c 0,51,52
 135 -91 135 -91 165 -91 c 0,53,54
 235 -91 235 -91 287 -33.5 c 128,-1,55
 339 24 339 24 367 111.5 c 128,-1,56
 395 199 395 199 419.5 308 c 128,-1,57
 444 417 444 417 461 516.5 c 128,-1,58
 478 616 478 616 507 701.5 c 128,-1,59
 536 787 536 787 573 822 c 1,60,-1
 550 822 l 2,0,1
EndSplineSet
EndChar

StartChar: U
Encoding: 85 85 56
Width: 862
GlyphClass: 2
Flags: W
LayerCount: 2
Fore
SplineSet
687 41 m 0,0,1
 687 -127 687 -127 746 -127 c 0,2,3
 777 -127 777 -127 810 -61 c 0,4,5
 816 -49 816 -49 825 -52.5 c 128,-1,6
 834 -56 834 -56 834 -60 c 128,-1,7
 834 -64 834 -64 826.5 -78.5 c 128,-1,8
 819 -93 819 -93 806.5 -114.5 c 128,-1,9
 794 -136 794 -136 775.5 -150 c 128,-1,10
 757 -164 757 -164 738 -164 c 0,11,12
 621 -164 621 -164 621 69 c 0,13,14
 621 189 621 189 643 326 c 1,15,-1
 631 326 l 1,16,17
 459 0 459 0 366 0 c 0,18,19
 253 0 253 0 253 135 c 0,20,21
 253 189 253 189 286.5 298.5 c 128,-1,22
 320 408 320 408 353.5 524.5 c 128,-1,23
 387 641 387 641 387 706 c 0,24,25
 387 841 387 841 276 841 c 0,26,27
 174 841 174 841 124 724 c 0,28,29
 90 646 90 646 90 567 c 0,30,31
 90 529 90 529 98 490 c 0,32,33
 123 373 123 373 202 373 c 1,34,35
 194 357 194 357 181 357 c 0,36,37
 80 357 80 357 50 485 c 0,38,39
 40 526 40 526 40 567 c 0,40,41
 40 654 40 654 84 741 c 0,42,43
 148 869 148 869 275 869 c 0,44,45
 373 869 373 869 417.5 814.5 c 128,-1,46
 462 760 462 760 462 681 c 128,-1,47
 462 602 462 602 430.5 488.5 c 128,-1,48
 399 375 399 375 367.5 268 c 128,-1,49
 336 161 336 161 336 100 c 128,-1,50
 336 39 336 39 380 39 c 0,51,52
 416 39 416 39 487 150 c 0,53,54
 605 332 605 332 694 546 c 0,55,56
 729 630 729 630 767 630 c 0,57,58
 792 630 792 630 792 604 c 1,59,60
 744 490 744 490 715.5 327.5 c 128,-1,61
 687 165 687 165 687 41 c 0,0,1
EndSplineSet
EndChar

StartChar: V
Encoding: 86 86 57
Width: 706
GlyphClass: 2
Flags: W
LayerCount: 2
Fore
SplineSet
25 655 m 0,0,1
 -2 655 -2 655 -2 692 c 128,-1,2
 -2 729 -2 729 39 766 c 128,-1,3
 80 803 80 803 144.5 803 c 128,-1,4
 209 803 209 803 249.5 774 c 128,-1,5
 290 745 290 745 312 694 c 0,6,7
 355 599 355 599 355 451 c 0,8,9
 355 245 355 245 282 -20 c 0,10,11
 280 -27 280 -27 284 -32 c 0,12,13
 294 -42 294 -42 311 -25 c 0,14,15
 389 47 389 47 467.5 198 c 128,-1,16
 546 349 546 349 593.5 505.5 c 128,-1,17
 641 662 641 662 641 762 c 0,18,19
 641 831 641 831 610 831 c 1,20,21
 614 846 614 846 627.5 857.5 c 128,-1,22
 641 869 641 869 658 869 c 0,23,24
 708 869 708 869 708 782 c 128,-1,25
 708 695 708 695 661.5 547 c 128,-1,26
 615 399 615 399 547.5 260 c 128,-1,27
 480 121 480 121 397 19.5 c 128,-1,28
 314 -82 314 -82 252.5 -82 c 128,-1,29
 191 -82 191 -82 191 -26 c 1,30,31
 201 5 201 5 215 57.5 c 128,-1,32
 229 110 229 110 252.5 251 c 128,-1,33
 276 392 276 392 276 507 c 0,34,35
 276 776 276 776 142 776 c 0,36,37
 74 776 74 776 49 720 c 0,38,39
 40 701 40 701 40 686 c 128,-1,40
 40 671 40 671 49 671 c 1,41,42
 47 655 47 655 25 655 c 0,0,1
EndSplineSet
EndChar

StartChar: W
Encoding: 87 87 58
Width: 1047
GlyphClass: 2
Flags: W
LayerCount: 2
Fore
SplineSet
71 720 m 0,0,1
 61 699 61 699 61 685 c 128,-1,2
 61 671 61 671 69 671 c 1,3,4
 66 655 66 655 44 655 c 0,5,6
 19 655 19 655 19 691 c 128,-1,7
 19 727 19 727 63 765 c 128,-1,8
 107 803 107 803 175 803 c 128,-1,9
 243 803 243 803 282.5 766 c 128,-1,10
 322 729 322 729 336.5 674 c 128,-1,11
 351 619 351 619 351 536 c 128,-1,12
 351 453 351 453 332.5 347.5 c 128,-1,13
 314 242 314 242 295 174 c 128,-1,14
 276 106 276 106 257.5 48 c 128,-1,15
 239 -10 239 -10 235.5 -21.5 c 128,-1,16
 232 -33 232 -33 242 -33 c 0,17,18
 249 -33 249 -33 261 -23 c 0,19,20
 321 30 321 30 379.5 112.5 c 128,-1,21
 438 195 438 195 478 276 c 0,22,23
 549 418 549 418 577 500 c 1,24,25
 633 671 633 671 683 671 c 0,26,27
 706 671 706 671 706 647 c 1,28,29
 692 601 692 601 670 503 c 0,30,31
 626 305 626 305 626 171 c 0,32,33
 626 117 626 117 641 78 c 128,-1,34
 656 39 656 39 692 39 c 0,35,36
 744 39 744 39 797.5 130 c 128,-1,37
 851 221 851 221 885.5 352 c 128,-1,38
 920 483 920 483 923 600 c 1,39,40
 868 644 868 644 823 716 c 128,-1,41
 778 788 778 788 778 809 c 128,-1,42
 778 830 778 830 797 851 c 128,-1,43
 816 872 816 872 837 872 c 0,44,45
 884 872 884 872 919.5 802 c 128,-1,46
 955 732 955 732 958 634 c 1,47,48
 999 598 999 598 1037 598 c 0,49,50
 1059 598 1059 598 1070 617 c 1,51,52
 1083 617 1083 617 1083 599 c 0,53,54
 1083 570 1083 570 1052 560 c 0,55,56
 1041 556 1041 556 1018 556 c 128,-1,57
 995 556 995 556 958 576 c 1,58,59
 952 448 952 448 914.5 316 c 128,-1,60
 877 184 877 184 816.5 92 c 128,-1,61
 756 0 756 0 692 0 c 0,62,63
 645 0 645 0 612 26 c 0,64,65
 555 70 555 70 542 194 c 0,66,67
 540 222 540 222 540 251 c 128,-1,68
 540 280 540 280 542 310 c 1,69,70
 327 -82 327 -82 199 -82 c 0,71,72
 144 -82 144 -82 144 -31 c 0,73,74
 144 -29 144 -29 144 -26 c 1,75,76
 278 340 278 340 278 584 c 0,77,78
 278 776 278 776 167 776 c 0,79,80
 99 776 99 776 71 720 c 0,0,1
845 837 m 1,81,82
 840 835 840 835 840 827.5 c 128,-1,83
 840 820 840 820 844.5 804 c 128,-1,84
 849 788 849 788 871 747.5 c 128,-1,85
 893 707 893 707 920 674 c 1,86,87
 912 744 912 744 889 790.5 c 128,-1,88
 866 837 866 837 845 837 c 1,81,82
EndSplineSet
EndChar

StartChar: X
Encoding: 88 88 59
Width: 729
GlyphClass: 2
Flags: W
LayerCount: 2
Fore
SplineSet
25 655 m 0,0,1
 -2 655 -2 655 -2 691.5 c 128,-1,2
 -2 728 -2 728 41 765.5 c 128,-1,3
 84 803 84 803 169.5 803 c 128,-1,4
 255 803 255 803 320.5 717 c 128,-1,5
 386 631 386 631 437 482 c 1,6,7
 595 697 595 697 658 767 c 1,8,9
 754 871 754 871 812 871 c 0,10,11
 832 871 832 871 844.5 857.5 c 128,-1,12
 857 844 857 844 859 830 c 2,13,-1
 861 817 l 1,14,15
 776 817 776 817 664 700 c 0,16,17
 572 604 572 604 451 442 c 1,18,19
 475 370 475 370 515.5 218 c 128,-1,20
 556 66 556 66 578 4 c 0,21,22
 621 -122 621 -122 673 -122 c 0,23,24
 703 -122 703 -122 718 -101 c 1,25,26
 728 -101 728 -101 723 -119 c 0,27,28
 715 -150 715 -150 677 -158 c 1,29,-1
 656 -160 l 1,30,31
 610 -160 610 -160 572 -126 c 128,-1,32
 534 -92 534 -92 500.5 -10 c 128,-1,33
 467 72 467 72 449.5 127 c 128,-1,34
 432 182 432 182 411 259 c 128,-1,35
 390 336 390 336 385 353 c 1,36,37
 318 261 318 261 283 215.5 c 128,-1,38
 248 170 248 170 196 110 c 0,39,40
 100 -2 100 -2 43 -2 c 0,41,42
 19 -2 19 -2 5.5 11.5 c 128,-1,43
 -8 25 -8 25 -10 38 c 1,44,-1
 -11 52 l 1,45,46
 65 52 65 52 158 142 c 128,-1,47
 251 232 251 232 373 395 c 1,48,49
 330 542 330 542 303.5 605.5 c 128,-1,50
 277 669 277 669 255 701 c 0,51,52
 203 776 203 776 138.5 776 c 128,-1,53
 74 776 74 776 49 720 c 0,54,55
 40 701 40 701 40 686 c 128,-1,56
 40 671 40 671 49 671 c 1,57,58
 47 655 47 655 25 655 c 0,0,1
EndSplineSet
EndChar

StartChar: Y
Encoding: 89 89 60
Width: 839
GlyphClass: 2
Flags: W
LayerCount: 2
Fore
SplineSet
152 -323 m 0,0,1
 194 -340 194 -340 253.5 -340 c 128,-1,2
 313 -340 313 -340 365.5 -318 c 128,-1,3
 418 -296 418 -296 456.5 -242 c 128,-1,4
 495 -188 495 -188 520.5 -146.5 c 128,-1,5
 546 -105 546 -105 570 -15.5 c 128,-1,6
 594 74 594 74 603 114 c 0,7,8
 626 214 626 214 638 289 c 1,9,10
 644 316 644 316 648 342 c 1,11,-1
 640 342 l 1,12,13
 483 36 483 36 387 36 c 0,14,15
 274 36 274 36 274 171 c 0,16,17
 274 232 274 232 330.5 427.5 c 128,-1,18
 387 623 387 623 387 712 c 0,19,20
 387 770 387 770 360 805.5 c 128,-1,21
 333 841 333 841 276 841 c 0,22,23
 174 841 174 841 124 724 c 0,24,25
 90 646 90 646 90 567 c 0,26,27
 90 529 90 529 98 490 c 0,28,29
 123 373 123 373 202 373 c 1,30,31
 194 357 194 357 181 357 c 0,32,33
 80 357 80 357 50 485 c 0,34,35
 40 526 40 526 40 567 c 0,36,37
 40 654 40 654 84 741 c 0,38,39
 148 869 148 869 275 869 c 0,40,41
 373 869 373 869 417.5 814.5 c 128,-1,42
 462 760 462 760 462 672.5 c 128,-1,43
 462 585 462 585 409.5 395 c 128,-1,44
 357 205 357 205 357 140 c 128,-1,45
 357 75 357 75 401 75 c 0,46,47
 429 75 429 75 475 135.5 c 128,-1,48
 521 196 521 196 567 282 c 0,49,50
 648 434 648 434 697 552 c 1,51,52
 728 630 728 630 767 630 c 0,53,54
 792 630 792 630 792 604 c 1,55,56
 753 509 753 509 713 284 c 1,57,58
 679 83 679 83 648 -12 c 1,59,60
 608 -130 608 -130 568 -190 c 1,61,62
 506 -280 506 -280 440 -318 c 0,63,64
 356 -366 356 -366 249 -366 c 0,65,66
 80 -366 80 -366 11 -253 c 1,67,68
 -25 -196 -25 -196 -25 -130 c 0,69,70
 -25 -99 -25 -99 -17 -66 c 0,71,72
 5 27 5 27 73 67 c 0,73,74
 107 86 107 86 146 86 c 0,75,76
 161 86 161 86 170 79 c 128,-1,77
 179 72 179 72 183 57 c 1,78,79
 108 57 108 57 64 -20 c 0,80,81
 34 -74 34 -74 34 -133 c 0,82,83
 34 -159 34 -159 39 -185 c 0,84,85
 60 -286 60 -286 152 -323 c 0,0,1
EndSplineSet
EndChar

StartChar: Z
Encoding: 90 90 61
Width: 750
GlyphClass: 2
Flags: W
LayerCount: 2
Fore
SplineSet
266 842 m 1,0,1
 326 868 326 868 391 868 c 128,-1,2
 456 868 456 868 555 842 c 128,-1,3
 654 816 654 816 683.5 816 c 128,-1,4
 713 816 713 816 747 843 c 128,-1,5
 781 870 781 870 807 870 c 0,6,7
 817 870 817 870 822.5 859 c 128,-1,8
 828 848 828 848 827.5 838.5 c 128,-1,9
 827 829 827 829 827 827 c 1,10,11
 790 827 790 827 742 741 c 0,12,13
 706 675 706 675 655.5 568.5 c 128,-1,14
 605 462 605 462 583 417 c 1,15,16
 641 419 641 419 662 419 c 0,17,18
 672 419 672 419 671 408 c 1,19,20
 668 393 668 393 650.5 392.5 c 128,-1,21
 633 392 633 392 567 386 c 1,22,23
 424 104 424 104 289 3 c 1,24,25
 330 -16 330 -16 407.5 -53.5 c 128,-1,26
 485 -91 485 -91 532 -113 c 0,27,28
 660 -173 660 -173 725 -173 c 0,29,30
 774 -173 774 -173 801 -151 c 0,31,32
 824 -132 824 -132 832 -112 c 1,33,34
 850 -112 850 -112 850 -140 c 0,35,36
 850 -184 850 -184 810 -214.5 c 128,-1,37
 770 -245 770 -245 714.5 -245 c 128,-1,38
 659 -245 659 -245 592 -220.5 c 128,-1,39
 525 -196 525 -196 480 -171 c 128,-1,40
 435 -146 435 -146 351.5 -95 c 128,-1,41
 268 -44 268 -44 240 -28 c 1,42,43
 171 -64 171 -64 107 -64 c 0,44,45
 14 -64 14 -64 -14 -16 c 0,46,47
 -22 -2 -22 -2 -22 14 c 128,-1,48
 -22 30 -22 30 -1.5 50.5 c 128,-1,49
 19 71 19 71 74 71 c 128,-1,50
 129 71 129 71 241 24 c 1,51,52
 343 111 343 111 478 375 c 1,53,54
 424 369 424 369 383.5 369 c 128,-1,55
 343 369 343 369 337 395 c 0,56,57
 334 411 334 411 346 415 c 0,58,59
 348 416 348 416 350 416 c 1,60,61
 356 409 356 409 395 409 c 128,-1,62
 434 409 434 409 497 412 c 1,63,64
 510 438 510 438 546.5 512 c 128,-1,65
 583 586 583 586 600 620 c 0,66,67
 653 724 653 724 692 779 c 1,68,69
 671 773 671 773 640.5 773 c 128,-1,70
 610 773 610 773 510 800 c 128,-1,71
 410 827 410 827 360 827 c 0,72,73
 234 827 234 827 180 724 c 0,74,75
 152 671 152 671 152 613 c 0,76,77
 152 586 152 586 158 557 c 0,78,79
 175 482 175 482 225 464 c 0,80,81
 237 460 237 460 250 460 c 1,82,83
 241 434 241 434 214 434 c 0,84,85
 149 434 149 434 120 506 c 0,86,87
 105 545 105 545 105 588.5 c 128,-1,88
 105 632 105 632 121 680 c 0,89,90
 160 794 160 794 266 842 c 1,0,1
107 -34 m 128,-1,92
 152 -34 152 -34 200 -5 c 1,93,94
 106 43 106 43 53 43 c 0,95,96
 19 43 19 43 11 20 c 0,97,98
 9 15 9 15 9 10 c 0,99,100
 9 -8 9 -8 35.5 -21 c 128,-1,91
 62 -34 62 -34 107 -34 c 128,-1,92
EndSplineSet
EndChar

StartChar: bracketleft
Encoding: 91 91 62
Width: 293
GlyphClass: 2
Flags: W
LayerCount: 2
Fore
SplineSet
101 -84 m 2,0,1
 134 -84 134 -84 155.5 -91 c 128,-1,2
 177 -98 177 -98 182 -104 c 2,3,-1
 188 -111 l 1,4,-1
 4 -111 l 1,5,6
 15 -33 15 -33 55 351.5 c 128,-1,7
 95 736 95 736 105 845 c 1,8,-1
 290 845 l 1,9,10
 289 842 289 842 285.5 837.5 c 128,-1,11
 282 833 282 833 261 825.5 c 128,-1,12
 240 818 240 818 208 818 c 2,13,-1
 158 818 l 1,14,15
 70 26 70 26 56 -84 c 1,16,-1
 101 -84 l 2,0,1
EndSplineSet
EndChar

StartChar: backslash
Encoding: 92 92 63
Width: 529
GlyphClass: 2
Flags: W
LayerCount: 2
Fore
SplineSet
93 780 m 0,0,1
 93 825 93 825 121 825 c 0,2,3
 127 825 127 825 134.5 817.5 c 128,-1,4
 142 810 142 810 149 777.5 c 128,-1,5
 156 745 156 745 231 380.5 c 128,-1,6
 306 16 306 16 318 -35 c 128,-1,7
 330 -86 330 -86 330 -104.5 c 128,-1,8
 330 -123 330 -123 320 -128 c 0,9,10
 317 -130 317 -130 315 -130 c 0,11,12
 306 -130 306 -130 300 -109 c 1,13,14
 280 -16 280 -16 195 333 c 128,-1,15
 110 682 110 682 101.5 720 c 128,-1,16
 93 758 93 758 93 780 c 0,0,1
EndSplineSet
EndChar

StartChar: bracketright
Encoding: 93 93 64
Width: 365
GlyphClass: 2
Flags: W
LayerCount: 2
Fore
SplineSet
209 818 m 2,0,1
 176 818 176 818 154.5 825 c 128,-1,2
 133 832 133 832 128 838 c 2,3,-1
 122 845 l 1,4,-1
 306 845 l 1,5,6
 295 767 295 767 255 382.5 c 128,-1,7
 215 -2 215 -2 205 -111 c 1,8,-1
 20 -111 l 1,9,10
 21 -108 21 -108 24.5 -103.5 c 128,-1,11
 28 -99 28 -99 49 -91.5 c 128,-1,12
 70 -84 70 -84 102 -84 c 2,13,-1
 152 -84 l 1,14,15
 240 708 240 708 254 818 c 1,16,-1
 209 818 l 2,0,1
EndSplineSet
EndChar

StartChar: asciicircum
Encoding: 94 94 65
Width: 515
GlyphClass: 2
Flags: W
LayerCount: 2
Fore
SplineSet
514 501 m 1,0,-1
 475 501 l 1,1,-1
 306 659 l 1,2,-1
 42 501 l 1,3,-1
 2 501 l 1,4,-1
 268 691 l 1,5,-1
 324 691 l 1,6,-1
 514 501 l 1,0,-1
EndSplineSet
EndChar

StartChar: underscore
Encoding: 95 95 66
Width: 689
GlyphClass: 2
Flags: W
LayerCount: 2
Fore
SplineSet
522 -76 m 2,0,-1
 18 -78 l 2,1,2
 6 -78 6 -78 6 -68 c 0,3,4
 6 -46 6 -46 38 -38 c 1,5,-1
 57 -36 l 1,6,-1
 554 -45 l 2,7,8
 566 -45 566 -45 564 -56 c 1,9,10
 556 -75 556 -75 522 -76 c 2,0,-1
EndSplineSet
EndChar

StartChar: grave
Encoding: 96 96 67
Width: 478
GlyphClass: 2
Flags: W
LayerCount: 2
Fore
SplineSet
261 769 m 1,0,1
 302 730 302 730 340 684 c 128,-1,2
 378 638 378 638 378 627.5 c 128,-1,3
 378 617 378 617 366 617 c 128,-1,4
 354 617 354 617 313.5 646 c 128,-1,5
 273 675 273 675 230 717 c 0,6,7
 213 733 213 733 213 744.5 c 128,-1,8
 213 756 213 756 220 767.5 c 128,-1,9
 227 779 227 779 238 779 c 128,-1,10
 249 779 249 779 261 769 c 1,0,1
EndSplineSet
EndChar

StartChar: a
Encoding: 97 97 68
Width: 537
GlyphClass: 2
Flags: W
LayerCount: 2
Fore
SplineSet
409 -88 m 0,0,1
 423 -88 423 -88 434 -76 c 128,-1,2
 445 -64 445 -64 450 -52 c 2,3,-1
 454 -40 l 2,4,5
 457 -28 457 -28 470 -28 c 0,6,7
 480 -28 480 -28 477.5 -39 c 128,-1,8
 475 -50 475 -50 469 -64 c 128,-1,9
 463 -78 463 -78 444.5 -102 c 128,-1,10
 426 -126 426 -126 406 -126 c 0,11,12
 358 -126 358 -126 333 -64 c 128,-1,13
 308 -2 308 -2 308 83.5 c 128,-1,14
 308 169 308 169 320 244 c 1,15,-1
 309 244 l 1,16,17
 165 0 165 0 94 0 c 128,-1,18
 23 0 23 0 6 90 c 0,19,20
 2 116 2 116 2 144 c 0,21,22
 2 224 2 224 39 322 c 0,23,24
 94 464 94 464 186 523 c 0,25,26
 235 555 235 555 286 555 c 0,27,28
 315 555 315 555 335.5 539.5 c 128,-1,29
 356 524 356 524 362 508 c 1,30,-1
 369 493 l 1,31,32
 365 474 365 474 349 474 c 256,33,34
 333 474 333 474 328 484 c 1,35,-1
 323 498 l 2,36,37
 320 504 320 504 307.5 514.5 c 128,-1,38
 295 525 295 525 279 525 c 0,39,40
 208 525 208 525 147 393 c 0,41,42
 91 274 91 274 80 146 c 0,43,44
 78 124 78 124 78 107 c 0,45,46
 78 41 78 41 105.5 40.5 c 128,-1,47
 133 40 133 40 194 126 c 1,48,49
 282 253 282 253 367 423 c 0,50,51
 406 503 406 503 446 503 c 0,52,53
 467 503 467 503 467 477 c 1,54,55
 456 456 456 456 437.5 401 c 128,-1,56
 419 346 419 346 406 296 c 0,57,58
 374 168 374 168 374 40 c 128,-1,59
 374 -88 374 -88 409 -88 c 0,0,1
EndSplineSet
EndChar

StartChar: b
Encoding: 98 98 69
Width: 563
GlyphClass: 2
Flags: W
LayerCount: 2
Fore
SplineSet
214 104 m 0,0,1
 214 36 214 36 250 36 c 0,2,3
 295 36 295 36 349 152.5 c 128,-1,4
 403 269 403 269 414 389 c 0,5,6
 416 409 416 409 416 426 c 0,7,8
 416 508 416 508 372 508.5 c 128,-1,9
 328 509 328 509 273.5 437.5 c 128,-1,10
 219 366 219 366 178.5 277.5 c 128,-1,11
 138 189 138 189 109.5 117.5 c 128,-1,12
 81 46 81 46 81 38 c 0,13,14
 81 21 81 21 64 21 c 0,15,16
 30 21 30 21 30 111 c 0,17,18
 30 290 30 290 66 470 c 128,-1,19
 102 650 102 650 152 758.5 c 128,-1,20
 202 867 202 867 244 867 c 0,21,22
 262 867 262 867 262 849 c 1,23,24
 202 718 202 718 160 538.5 c 128,-1,25
 118 359 118 359 94 184 c 1,26,-1
 102 184 l 1,27,28
 154 313 154 313 222 421 c 0,29,30
 258 479 258 479 299.5 513 c 128,-1,31
 341 547 341 547 381 547 c 0,32,33
 487 547 487 547 487 379 c 0,34,35
 487 258 487 258 425 137 c 0,36,37
 355 0 355 0 260 0 c 0,38,39
 183 0 183 0 183 100 c 0,40,41
 183 155 183 155 213 225 c 128,-1,42
 243 295 243 295 291 329 c 0,43,44
 300 335 300 335 305 327.5 c 128,-1,45
 310 320 310 320 307 317 c 0,46,47
 264 283 264 283 239 218.5 c 128,-1,48
 214 154 214 154 214 104 c 0,0,1
EndSplineSet
EndChar

StartChar: c
Encoding: 99 99 70
Width: 436
GlyphClass: 2
Flags: W
LayerCount: 2
Fore
SplineSet
317 103 m 128,-1,1
 332 103 332 103 332 96 c 2,2,-1
 332 93 l 1,3,4
 329 88 329 88 324.5 79 c 128,-1,5
 320 70 320 70 303.5 48 c 128,-1,6
 287 26 287 26 268.5 9 c 128,-1,7
 250 -8 250 -8 221 -22 c 128,-1,8
 192 -36 192 -36 161 -36 c 0,9,10
 46 -36 46 -36 12 72 c 0,11,12
 0 111 0 111 0 168 c 128,-1,13
 0 225 0 225 30 307 c 0,14,15
 78 439 78 439 168 503 c 0,16,17
 224 542 224 542 283 542 c 0,18,19
 320 542 320 542 340 516 c 1,20,21
 370 613 370 613 418 613 c 0,22,23
 436 613 436 613 436 594 c 1,24,25
 427 581 427 581 413 559 c 128,-1,26
 399 537 399 537 375.5 480.5 c 128,-1,27
 352 424 352 424 352 382 c 0,28,29
 352 367 352 367 340 367 c 0,30,31
 322 367 322 367 322 393 c 0,32,33
 322 432 322 432 330 475 c 1,34,35
 327 491 327 491 313 500.5 c 128,-1,36
 299 510 299 510 281 510 c 0,37,38
 200 510 200 510 139 387.5 c 128,-1,39
 78 265 78 265 78 148 c 0,40,41
 78 2 78 2 170 2 c 0,42,43
 206 2 206 2 238 24.5 c 128,-1,44
 270 47 270 47 284 70 c 2,45,-1
 298 93 l 1,46,0
 302 103 302 103 317 103 c 128,-1,1
EndSplineSet
EndChar

StartChar: d
Encoding: 100 100 71
Width: 547
GlyphClass: 2
Flags: W
LayerCount: 2
Fore
SplineSet
327 88 m 0,0,1
 327 173 327 173 343 277 c 1,2,-1
 328 277 l 1,3,4
 168 0 168 0 94 0 c 0,5,6
 23 0 23 0 6 88 c 0,7,8
 0 115 0 115 0 144 c 0,9,10
 0 221 0 221 37 316 c 0,11,12
 90 455 90 455 182 514 c 0,13,14
 230 545 230 545 281 545 c 0,15,16
 306 545 306 545 324 533 c 128,-1,17
 342 521 342 521 348 509 c 2,18,-1
 353 497 l 1,19,20
 349 478 349 478 333 478 c 256,21,22
 317 478 317 478 312 488 c 1,23,-1
 311 491 l 1,24,25
 301 515 301 515 274 515 c 0,26,27
 203 515 203 515 143 384 c 0,28,29
 78 242 78 242 78 107 c 0,30,31
 78 40 78 40 106.5 40 c 128,-1,32
 135 40 135 40 202 140 c 0,33,34
 301 286 301 286 372 433 c 1,35,36
 413 608 413 608 471 739 c 128,-1,37
 529 870 529 870 566 870 c 0,38,39
 585 870 585 870 585 851 c 1,40,41
 557 791 557 791 521 690.5 c 128,-1,42
 485 590 485 590 460 498.5 c 128,-1,43
 435 407 435 407 414 280.5 c 128,-1,44
 393 154 393 154 393 60 c 0,45,46
 393 -127 393 -127 466 -127 c 0,47,48
 494 -127 494 -127 518 -102.5 c 128,-1,49
 542 -78 542 -78 553 -55 c 0,50,51
 558 -43 558 -43 572 -48 c 0,52,53
 579 -50 579 -50 576.5 -56 c 128,-1,54
 574 -62 574 -62 566.5 -76 c 128,-1,55
 559 -90 559 -90 544 -112 c 128,-1,56
 529 -134 529 -134 506.5 -149 c 128,-1,57
 484 -164 484 -164 461 -164 c 0,58,59
 327 -164 327 -164 327 88 c 0,0,1
EndSplineSet
EndChar

StartChar: e
Encoding: 101 101 72
Width: 437
GlyphClass: 2
Flags: W
LayerCount: 2
Fore
SplineSet
77 148 m 0,0,1
 77 3 77 3 171 3 c 0,2,3
 216 3 216 3 250 36 c 1,4,5
 281 64 281 64 299 95 c 1,6,7
 303 104 303 104 316 104 c 0,8,9
 336 104 336 104 334 98 c 1,10,-1
 334 95 l 1,11,12
 331 90 331 90 326.5 81 c 128,-1,13
 322 72 322 72 305 49.5 c 128,-1,14
 288 27 288 27 269.5 9.5 c 128,-1,15
 251 -8 251 -8 221.5 -22 c 128,-1,16
 192 -36 192 -36 161 -36 c 0,17,18
 45 -36 45 -36 11 72 c 0,19,20
 -20 172 -20 172 29 305 c 128,-1,21
 78 438 78 438 171 503 c 0,22,23
 230 545 230 545 295.5 545 c 128,-1,24
 361 545 361 545 375 479 c 0,25,26
 379 462 379 462 379 445 c 0,27,28
 379 392 379 392 345 333 c 0,29,30
 294 245 294 245 208 225 c 0,31,32
 188 220 188 220 169.5 220 c 128,-1,33
 151 220 151 220 140 226 c 128,-1,34
 129 232 129 232 123 243 c 1,35,36
 201 243 201 243 266 331 c 0,37,38
 322 406 322 406 322 471 c 0,39,40
 322 517 322 517 285 517 c 0,41,42
 205 517 205 517 141 392.5 c 128,-1,43
 77 268 77 268 77 148 c 0,0,1
EndSplineSet
EndChar

StartChar: f
Encoding: 102 102 73
Width: 348
GlyphClass: 2
Flags: W
LayerCount: 2
Fore
SplineSet
-47 -352 m 0,0,1
 -105 -352 -105 -352 -105 -283 c 0,2,3
 -105 -236 -105 -236 -74.5 -152 c 128,-1,4
 -44 -68 -44 -68 -13 -6 c 0,5,6
 34 88 34 88 65 144 c 1,7,8
 89 376 89 376 111 490 c 1,9,10
 84 487 84 487 57.5 487 c 128,-1,11
 31 487 31 487 26 514 c 1,12,13
 21 535 21 535 34 540 c 0,14,15
 36 541 36 541 38 541 c 1,16,17
 43 534 43 534 71 534 c 128,-1,18
 99 534 99 534 121 536 c 1,19,20
 195 872 195 872 371 872 c 0,21,22
 392 872 392 872 391.5 859 c 128,-1,23
 391 846 391 846 384 844 c 1,24,25
 304 844 304 844 257 756 c 0,26,27
 214 677 214 677 188 540 c 1,28,29
 318 551 318 551 350 551 c 0,30,31
 360 551 360 551 359 540 c 0,32,33
 358 524 358 524 339 524 c 128,-1,34
 320 524 320 524 180 501 c 1,35,36
 165 408 165 408 148.5 254.5 c 128,-1,37
 132 101 132 101 122 17.5 c 128,-1,38
 112 -66 112 -66 98.5 -128.5 c 128,-1,39
 85 -191 85 -191 66 -244 c 0,40,41
 27 -352 27 -352 -47 -352 c 0,0,1
-74 -280 m 0,42,43
 -74 -319 -74 -319 -46 -319 c 0,44,45
 -8 -319 -8 -319 14 -240 c 0,46,47
 39 -148 39 -148 60 85 c 0,48,49
 60 87 60 87 60 88 c 1,50,51
 -74 -194 -74 -194 -74 -280 c 0,42,43
415 709.5 m 128,-1,53
 415 691 415 691 405 691 c 1,54,55
 392 695 392 695 390 714 c 1,56,57
 390 784 390 784 414.5 843.5 c 128,-1,58
 439 903 439 903 474 903 c 0,59,60
 488 903 488 903 488 887 c 1,61,-1
 480 876 l 1,62,63
 439 811 439 811 427 769.5 c 128,-1,52
 415 728 415 728 415 709.5 c 128,-1,53
EndSplineSet
EndChar

StartChar: g
Encoding: 103 103 74
Width: 519
GlyphClass: 2
Flags: W
LayerCount: 2
Fore
SplineSet
38 -352 m 0,0,1
 140 -352 140 -352 196 -256 c 0,2,3
 246 -172 246 -172 273 -46 c 1,4,5
 71 -50 71 -50 -39 -201 c 0,6,7
 -47 -211 -47 -211 -61 -205 c 1,8,9
 -68 -199 -68 -199 -65 -193 c 0,10,11
 -17 -120 -17 -120 69.5 -69 c 128,-1,12
 156 -18 156 -18 280 -14 c 1,13,14
 294 58 294 58 302.5 113 c 128,-1,15
 311 168 311 168 318 205 c 128,-1,16
 325 242 325 242 327 255 c 1,17,-1
 315 255 l 1,18,19
 166 0 166 0 94.5 0 c 128,-1,20
 23 0 23 0 6 90 c 0,21,22
 2 116 2 116 2 144 c 0,23,24
 2 224 2 224 39 322 c 0,25,26
 94 464 94 464 186 523 c 0,27,28
 235 555 235 555 286 555 c 0,29,30
 315 555 315 555 335.5 539.5 c 128,-1,31
 356 524 356 524 362 508 c 1,32,-1
 369 493 l 1,33,34
 365 474 365 474 349 474 c 256,35,36
 333 474 333 474 328 484 c 1,37,-1
 323 498 l 2,38,39
 320 504 320 504 307.5 514.5 c 128,-1,40
 295 525 295 525 279 525 c 0,41,42
 208 525 208 525 147 393 c 0,43,44
 91 274 91 274 80 146 c 0,45,46
 78 124 78 124 78 107 c 0,47,48
 78 41 78 41 106 40 c 1,49,50
 143 40 143 40 225 169.5 c 128,-1,51
 307 299 307 299 374 436 c 0,52,53
 407 504 407 504 445 504 c 0,54,55
 469 504 469 504 469 478 c 1,56,57
 464 470 464 470 455.5 452 c 128,-1,58
 447 434 447 434 423 349 c 128,-1,59
 399 264 399 264 380 153.5 c 128,-1,60
 361 43 361 43 347 -17 c 1,61,62
 431 -31 431 -31 446 -89 c 1,63,64
 448 -101 448 -101 448 -118 c 128,-1,65
 448 -135 448 -135 435 -148.5 c 128,-1,66
 422 -162 422 -162 411 -162 c 1,67,68
 414 -152 414 -152 412.5 -133 c 128,-1,69
 411 -114 411 -114 405 -100.5 c 128,-1,70
 399 -87 399 -87 382 -73 c 128,-1,71
 365 -59 365 -59 338 -52 c 1,72,73
 302 -190 302 -190 238 -277 c 0,74,75
 164 -377 164 -377 38 -377 c 0,76,77
 -53 -377 -53 -377 -84 -312 c 0,78,79
 -85 -309 -85 -309 -85 -307 c 0,80,81
 -85 -300 -85 -300 -73 -297 c 128,-1,82
 -61 -294 -61 -294 -56 -306 c 0,83,84
 -36 -352 -36 -352 38 -352 c 0,0,1
EndSplineSet
EndChar

StartChar: h
Encoding: 104 104 75
Width: 512
GlyphClass: 2
Flags: W
LayerCount: 2
Fore
SplineSet
113 135 m 128,-1,1
 80 52 80 52 80 36.5 c 128,-1,2
 80 21 80 21 64 21 c 0,3,4
 30 21 30 21 30 111 c 0,5,6
 30 290 30 290 66 470 c 128,-1,7
 102 650 102 650 152 758.5 c 128,-1,8
 202 867 202 867 244 867 c 0,9,10
 262 867 262 867 262 849 c 1,11,12
 159 623 159 623 95 190 c 1,13,-1
 103 190 l 1,14,15
 247 541 247 541 383 541 c 0,16,17
 441 541 441 541 441 485 c 1,18,19
 412 393 412 393 389.5 275 c 128,-1,20
 367 157 367 157 367 75 c 0,21,22
 367 -44 367 -44 402 -44 c 0,23,24
 415 -44 415 -44 427.5 -33.5 c 128,-1,25
 440 -23 440 -23 444 -23 c 0,26,27
 453 -23 453 -23 451 -34 c 1,28,29
 422 -82 422 -82 393 -82 c 0,30,31
 350 -82 350 -82 325.5 -21 c 128,-1,32
 301 40 301 40 301 138 c 0,33,34
 301 297 301 297 350 479 c 0,35,36
 352 486 352 486 348 490 c 0,37,38
 338 501 338 501 321 484 c 1,39,40
 265 433 265 433 205.5 325.5 c 128,-1,0
 146 218 146 218 113 135 c 128,-1,1
EndSplineSet
EndChar

StartChar: i
Encoding: 105 105 76
Width: 245
GlyphClass: 2
Flags: W
LayerCount: 2
Fore
SplineSet
29 96 m 0,0,1
 29 263 29 263 63 393 c 128,-1,2
 97 523 97 523 150 523 c 0,3,4
 176 523 176 523 176 494 c 1,5,6
 116 344 116 344 87 152 c 0,7,8
 76 79 76 79 76 17 c 0,9,10
 76 1 76 1 59 1 c 0,11,12
 29 1 29 1 29 96 c 0,0,1
180 628 m 1,13,14
 157 628 157 628 157 673 c 0,15,16
 157 700 157 700 171 730 c 128,-1,17
 185 760 185 760 212 760 c 0,18,19
 235 760 235 760 235 734 c 0,20,21
 235 721 235 721 221.5 694.5 c 128,-1,22
 208 668 208 668 194 648 c 2,23,-1
 180 628 l 1,13,14
EndSplineSet
EndChar

StartChar: j
Encoding: 106 106 77
Width: 282
GlyphClass: 2
Flags: W
LayerCount: 2
Fore
SplineSet
-47 -352 m 0,0,1
 -104 -352 -104 -352 -104 -282 c 0,2,3
 -104 -162 -104 -162 68 148 c 1,4,5
 89 342 89 342 103 391.5 c 128,-1,6
 117 441 117 441 129 468 c 0,7,8
 153 523 153 523 191 523 c 0,9,10
 217 523 217 523 217 494 c 1,11,12
 161 359 161 359 141 179 c 0,13,14
 112 -78 112 -78 88 -174 c 1,15,16
 41 -351 41 -351 -47 -352 c 0,0,1
-46 -319 m 0,17,18
 1 -319 1 -319 24 -198 c 1,19,20
 45 -94 45 -94 53 -5 c 128,-1,21
 61 84 61 84 62 92 c 1,22,23
 -21 -83 -21 -83 -41 -143 c 0,24,25
 -74 -245 -74 -245 -74 -282 c 128,-1,26
 -74 -319 -74 -319 -46 -319 c 0,17,18
221 628 m 1,27,28
 198 628 198 628 198 673 c 0,29,30
 198 700 198 700 212 730 c 128,-1,31
 226 760 226 760 253 760 c 0,32,33
 276 760 276 760 276 734 c 0,34,35
 276 721 276 721 262.5 694.5 c 128,-1,36
 249 668 249 668 235 648 c 2,37,-1
 221 628 l 1,27,28
EndSplineSet
EndChar

StartChar: k
Encoding: 107 107 78
Width: 512
GlyphClass: 2
Flags: W
LayerCount: 2
Fore
SplineSet
343 345 m 0,0,1
 383 407 383 407 383 460.5 c 128,-1,2
 383 514 383 514 351 514 c 0,3,4
 312 514 312 514 261.5 444.5 c 128,-1,5
 211 375 211 375 172.5 287.5 c 128,-1,6
 134 200 134 200 107 125.5 c 128,-1,7
 80 51 80 51 80 35 c 1,8,9
 79 21 79 21 64 21 c 0,10,11
 30 21 30 21 30 111 c 0,12,13
 30 290 30 290 66 470 c 128,-1,14
 102 650 102 650 152 758.5 c 128,-1,15
 202 867 202 867 244 867 c 0,16,17
 262 867 262 867 262 849 c 1,18,19
 202 718 202 718 161 544 c 128,-1,20
 120 370 120 370 98 216 c 1,21,-1
 107 216 l 1,22,23
 235 545 235 545 363 545 c 0,24,25
 442 545 442 545 442 454 c 0,26,27
 442 400 442 400 405 340 c 0,28,29
 360 266 360 266 290 244 c 1,30,31
 306 229 306 229 345 90 c 0,32,33
 359 39 359 39 385 -2.5 c 128,-1,34
 411 -44 411 -44 441.5 -44 c 128,-1,35
 472 -44 472 -44 485 -23 c 1,36,37
 492 -23 492 -23 492 -28.5 c 128,-1,38
 492 -34 492 -34 487 -44 c 0,39,40
 465 -82 465 -82 422.5 -82 c 128,-1,41
 380 -82 380 -82 339.5 -34.5 c 128,-1,42
 299 13 299 13 276.5 69 c 128,-1,43
 254 125 254 125 234.5 180.5 c 128,-1,44
 215 236 215 236 210 243 c 1,45,46
 202 249 202 249 200 256 c 1,47,48
 286 256 286 256 343 345 c 0,0,1
EndSplineSet
EndChar

StartChar: l
Encoding: 108 108 79
Width: 296
GlyphClass: 2
Flags: W
LayerCount: 2
Fore
SplineSet
165 -164 m 0,0,1
 99 -164 99 -164 68.5 -95.5 c 128,-1,2
 38 -27 38 -27 38 110.5 c 128,-1,3
 38 248 38 248 78.5 435.5 c 128,-1,4
 119 623 119 623 173.5 746.5 c 128,-1,5
 228 870 228 870 269 870 c 0,6,7
 288 870 288 870 288 847 c 1,8,9
 281 829 281 829 268.5 797.5 c 128,-1,10
 256 766 256 766 224 671.5 c 128,-1,11
 192 577 192 577 168 484.5 c 128,-1,12
 144 392 144 392 124 268.5 c 128,-1,13
 104 145 104 145 104 56.5 c 128,-1,14
 104 -32 104 -32 121.5 -79.5 c 128,-1,15
 139 -127 139 -127 170 -127 c 0,16,17
 195 -127 195 -127 219 -102.5 c 128,-1,18
 243 -78 243 -78 253 -55 c 0,19,20
 258 -43 258 -43 272 -48 c 0,21,22
 279 -50 279 -50 276.5 -56.5 c 128,-1,23
 274 -63 274 -63 267 -76.5 c 128,-1,24
 260 -90 260 -90 245.5 -112 c 128,-1,25
 231 -134 231 -134 209.5 -149 c 128,-1,26
 188 -164 188 -164 165 -164 c 0,0,1
EndSplineSet
EndChar

StartChar: m
Encoding: 109 109 80
Width: 747
GlyphClass: 2
Flags: W
LayerCount: 2
Fore
SplineSet
654 454 m 1,0,1
 596 241 596 241 596 75 c 0,2,3
 596 -44 596 -44 631 -44 c 0,4,5
 644 -44 644 -44 656.5 -33.5 c 128,-1,6
 669 -23 669 -23 674 -23 c 0,7,8
 682 -23 682 -23 680 -34 c 1,9,10
 651 -82 651 -82 622 -82 c 0,11,12
 579 -82 579 -82 554.5 -21 c 128,-1,13
 530 40 530 40 530 138 c 0,14,15
 530 306 530 306 566 440 c 0,16,17
 568 448 568 448 561 448 c 128,-1,18
 554 448 554 448 547 442 c 0,19,20
 502 404 502 404 447.5 313.5 c 128,-1,21
 393 223 393 223 359.5 149 c 128,-1,22
 326 75 326 75 326 66 c 0,23,24
 326 48 326 48 310 48 c 0,25,26
 290 48 290 48 282.5 69 c 128,-1,27
 275 90 275 90 275 137 c 0,28,29
 275 283 275 283 326 487 c 0,30,31
 329 497 329 497 319 497 c 1,32,33
 313 496 313 496 305 490 c 0,34,35
 256 448 256 448 196 336 c 128,-1,36
 136 224 136 224 100 131.5 c 128,-1,37
 64 39 64 39 64 28 c 0,38,39
 64 9 64 9 48 9 c 0,40,41
 28 9 28 9 20.5 30 c 128,-1,42
 13 51 13 51 13 98 c 0,43,44
 13 265 13 265 46.5 401 c 128,-1,45
 80 537 80 537 129 537 c 0,46,47
 150 537 150 537 150 513 c 1,48,49
 99 350 99 350 76 179 c 1,50,-1
 87 179 l 1,51,52
 141 316 141 316 205 421 c 0,53,54
 241 480 241 480 281 514.5 c 128,-1,55
 321 549 321 549 359 549 c 0,56,57
 413 549 413 549 413 497 c 1,58,59
 361 339 361 339 337 186 c 1,60,-1
 346 186 l 1,61,62
 400 301 400 301 448.5 373 c 128,-1,63
 497 445 497 445 533 475.5 c 128,-1,64
 569 506 569 506 600 506 c 0,65,66
 654 506 654 506 654 454 c 1,0,1
EndSplineSet
EndChar

StartChar: n
Encoding: 110 110 81
Width: 503
GlyphClass: 2
Flags: W
LayerCount: 2
Fore
SplineSet
99 133 m 128,-1,1
 65 47 65 47 65 38 c 0,2,3
 65 19 65 19 49 19 c 0,4,5
 29 19 29 19 21.5 40 c 128,-1,6
 14 61 14 61 14 108 c 0,7,8
 14 275 14 275 47.5 411 c 128,-1,9
 81 547 81 547 130 547 c 0,10,11
 151 547 151 547 151 523 c 1,12,13
 99 355 99 355 76 182 c 1,14,-1
 86 182 l 1,15,16
 191 445 191 445 299 518 c 0,17,18
 334 541 334 541 368 541 c 0,19,20
 426 541 426 541 426 485 c 1,21,22
 397 393 397 393 374.5 275 c 128,-1,23
 352 157 352 157 352 75 c 0,24,25
 352 -44 352 -44 387 -44 c 0,26,27
 400 -44 400 -44 412.5 -33.5 c 128,-1,28
 425 -23 425 -23 430 -23 c 0,29,30
 438 -23 438 -23 436 -34 c 1,31,32
 407 -82 407 -82 378 -82 c 0,33,34
 335 -82 335 -82 310.5 -21 c 128,-1,35
 286 40 286 40 286 138 c 0,36,37
 286 297 286 297 335 479 c 0,38,39
 339 493 339 493 326 493 c 0,40,41
 317 493 317 493 306 484 c 0,42,43
 253 437 253 437 193 328 c 128,-1,0
 133 219 133 219 99 133 c 128,-1,1
EndSplineSet
EndChar

StartChar: o
Encoding: 111 111 82
Width: 464
GlyphClass: 2
Flags: W
LayerCount: 2
Fore
SplineSet
373 507 m 1,0,1
 407 483 407 483 432.5 483 c 128,-1,2
 458 483 458 483 476 492 c 1,3,4
 476 476 476 476 465 464 c 128,-1,5
 454 452 454 452 429 452 c 128,-1,6
 404 452 404 452 376 463 c 1,7,8
 375 355 375 355 343.5 246 c 128,-1,9
 312 137 312 137 256 63.5 c 128,-1,10
 200 -10 200 -10 137 -10 c 0,11,12
 37 -10 37 -10 9 97 c 0,13,14
 -1 134 -1 134 -1 190 c 128,-1,15
 -1 246 -1 246 28 329 c 0,16,17
 71 455 71 455 146 505 c 0,18,19
 181 528 181 528 216 528 c 0,20,21
 229 528 229 528 238 521 c 128,-1,22
 247 514 247 514 251 501 c 1,23,24
 180 501 180 501 128.5 387.5 c 128,-1,25
 77 274 77 274 77 164 c 0,26,27
 77 30 77 30 149 30 c 0,28,29
 191 30 191 30 236 93.5 c 128,-1,30
 281 157 281 157 311 260.5 c 128,-1,31
 341 364 341 364 341 468 c 2,32,-1
 341 482 l 1,33,34
 306 505 306 505 283.5 538 c 128,-1,35
 261 571 261 571 261 587 c 128,-1,36
 261 603 261 603 274.5 617.5 c 128,-1,37
 288 632 288 632 303 632 c 0,38,39
 325 632 325 632 345 593.5 c 128,-1,40
 365 555 365 555 373 507 c 1,0,1
EndSplineSet
EndChar

StartChar: p
Encoding: 112 112 83
Width: 544
GlyphClass: 2
Flags: W
LayerCount: 2
Fore
SplineSet
212 104 m 0,0,1
 212 36 212 36 248 36 c 0,2,3
 293 36 293 36 347 152.5 c 128,-1,4
 401 269 401 269 412 389 c 0,5,6
 414 409 414 409 414 426 c 0,7,8
 414 508 414 508 370 508.5 c 128,-1,9
 326 509 326 509 272.5 440.5 c 128,-1,10
 219 372 219 372 178 281.5 c 128,-1,11
 137 191 137 191 107.5 110.5 c 128,-1,12
 78 30 78 30 72 -9.5 c 128,-1,13
 66 -49 66 -49 63 -67 c 128,-1,14
 60 -85 60 -85 52 -129 c 128,-1,15
 44 -173 44 -173 38 -194 c 128,-1,16
 32 -215 32 -215 22 -250.5 c 128,-1,17
 12 -286 12 -286 1.5 -304 c 128,-1,18
 -9 -322 -9 -322 -23 -342 c 0,19,20
 -49 -379 -49 -379 -91 -379 c 0,21,22
 -144 -379 -144 -379 -144 -323 c 0,23,24
 -144 -258 -144 -258 -108 -171 c 0,25,26
 -68 -73 -68 -73 -40 -20.5 c 128,-1,27
 -12 32 -12 32 -1 53 c 128,-1,28
 10 74 10 74 24 98 c 1,29,30
 41 224 41 224 58 298 c 1,31,32
 97 479 97 479 141.5 578.5 c 128,-1,33
 186 678 186 678 222 678 c 0,34,35
 241 678 241 678 241 656 c 1,36,37
 186 513 186 513 129 294 c 1,38,-1
 123 268 l 1,39,-1
 137 268 l 1,40,41
 265 547 265 547 379 547 c 0,42,43
 485 547 485 547 485 379 c 0,44,45
 485 258 485 258 423 137 c 0,46,47
 353 0 353 0 258 0 c 0,48,49
 181 0 181 0 181 100 c 0,50,51
 181 155 181 155 211 225 c 128,-1,52
 241 295 241 295 289 329 c 0,53,54
 298 335 298 335 303 327.5 c 128,-1,55
 308 320 308 320 305 317 c 0,56,57
 262 283 262 283 237 218.5 c 128,-1,58
 212 154 212 154 212 104 c 0,0,1
-114 -307 m 0,59,60
 -114 -341 -114 -341 -90.5 -341 c 128,-1,61
 -67 -341 -67 -341 -50.5 -319.5 c 128,-1,62
 -34 -298 -34 -298 -22 -244 c 1,63,64
 -6 -164 -6 -164 4.5 -73 c 128,-1,65
 15 18 15 18 17 35 c 1,66,67
 -84 -162 -84 -162 -110 -272 c 0,68,69
 -114 -292 -114 -292 -114 -307 c 0,59,60
EndSplineSet
EndChar

StartChar: q
Encoding: 113 113 84
Width: 539
GlyphClass: 2
Flags: W
LayerCount: 2
Fore
SplineSet
328 484 m 1,0,-1
 323 498 l 2,1,2
 320 504 320 504 307.5 514.5 c 128,-1,3
 295 525 295 525 279 525 c 0,4,5
 208 525 208 525 147 393 c 0,6,7
 91 274 91 274 80 146 c 0,8,9
 78 124 78 124 78 107 c 0,10,11
 78 41 78 41 106 40 c 1,12,13
 136 40 136 40 203 139 c 128,-1,14
 270 238 270 238 322 337 c 2,15,-1
 374 436 l 1,16,17
 406 504 406 504 445 504 c 0,18,19
 469 504 469 504 469 478 c 1,20,21
 387 264 387 264 354 0 c 0,22,23
 340 -112 340 -112 340 -228.5 c 128,-1,24
 340 -345 340 -345 382 -345 c 0,25,26
 395 -345 395 -345 407.5 -334.5 c 128,-1,27
 420 -324 420 -324 424 -324 c 0,28,29
 433 -324 433 -324 431 -335 c 1,30,31
 402 -383 402 -383 373 -383 c 0,32,33
 279 -383 279 -383 279 -165 c 0,34,35
 279 27 279 27 319 244 c 1,36,-1
 309 244 l 1,37,38
 165 0 165 0 94 0 c 128,-1,39
 23 0 23 0 6 90 c 0,40,41
 2 116 2 116 2 144 c 0,42,43
 2 224 2 224 39 322 c 0,44,45
 94 464 94 464 186 523 c 0,46,47
 235 555 235 555 286 555 c 0,48,49
 315 555 315 555 335.5 539.5 c 128,-1,50
 356 524 356 524 362 508 c 1,51,-1
 369 493 l 1,52,53
 365 474 365 474 349 474 c 128,-1,54
 333 474 333 474 328 484 c 1,0,-1
EndSplineSet
EndChar

StartChar: r
Encoding: 114 114 85
Width: 430
GlyphClass: 2
Flags: W
LayerCount: 2
Fore
SplineSet
357 323 m 0,0,1
 315 323 315 323 315 415 c 0,2,3
 315 468 315 468 335 515 c 1,4,5
 259 448 259 448 164.5 268 c 128,-1,6
 70 88 70 88 70 33 c 0,7,8
 70 28 70 28 65.5 23.5 c 128,-1,9
 61 19 61 19 54 19 c 0,10,11
 34 19 34 19 26.5 40 c 128,-1,12
 19 61 19 61 19 108 c 0,13,14
 19 275 19 275 52.5 411 c 128,-1,15
 86 547 86 547 135 547 c 0,16,17
 156 547 156 547 156 523 c 1,18,19
 105 358 105 358 82 186 c 1,20,-1
 90 186 l 1,21,22
 131 280 131 280 179 363.5 c 128,-1,23
 227 447 227 447 290.5 514.5 c 128,-1,24
 354 582 354 582 406 582 c 0,25,26
 417 582 417 582 424.5 575 c 128,-1,27
 432 568 432 568 432 558 c 1,28,29
 423 549 423 549 409.5 526 c 128,-1,30
 396 503 396 503 387 480 c 0,31,32
 363 417 363 417 363 332 c 0,33,34
 363 323 363 323 357 323 c 0,0,1
EndSplineSet
EndChar

StartChar: s
Encoding: 115 115 86
Width: 426
GlyphClass: 2
Flags: W
LayerCount: 2
Fore
SplineSet
80 39 m 0,0,1
 80 -40 80 -40 130 -40 c 0,2,3
 177 -40 177 -40 218.5 37 c 128,-1,4
 260 114 260 114 260 233 c 0,5,6
 260 290 260 290 239 394 c 128,-1,7
 218 498 218 498 218 530.5 c 128,-1,8
 218 563 218 563 220 573 c 1,9,10
 206 550 206 550 136 416.5 c 128,-1,11
 66 283 66 283 12 206 c 0,12,13
 4 195 4 195 -13 210 c 0,14,15
 -18 215 -18 215 -18 217 c 128,-1,16
 -18 219 -18 219 -17 220 c 0,17,18
 51 320 51 320 168 543 c 0,19,20
 201 605 201 605 241 651.5 c 128,-1,21
 281 698 281 698 317 698 c 0,22,23
 341 698 341 698 341 677 c 0,24,25
 341 660 341 660 301 616 c 0,26,27
 286 599 286 599 273.5 568 c 128,-1,28
 261 537 261 537 261 498 c 128,-1,29
 261 459 261 459 293.5 336.5 c 128,-1,30
 326 214 326 214 326 159 c 0,31,32
 326 61 326 61 271 -8.5 c 128,-1,33
 216 -78 216 -78 146 -78 c 0,34,35
 47 -78 47 -78 47 35 c 0,36,37
 47 116 47 116 98 210.5 c 128,-1,38
 149 305 149 305 204 340 c 0,39,40
 214 346 214 346 217 332 c 128,-1,41
 220 318 220 318 213 314 c 0,42,43
 155 281 155 281 112 174 c 0,44,45
 80 95 80 95 80 39 c 0,0,1
EndSplineSet
EndChar

StartChar: t
Encoding: 116 116 87
Width: 325
GlyphClass: 2
Flags: W
LayerCount: 2
Fore
SplineSet
66 486 m 0,0,1
 22 486 22 486 22 521 c 0,2,3
 22 535 22 535 33 539 c 1,4,-1
 37 540 l 1,5,6
 44 533 44 533 62.5 533 c 128,-1,7
 81 533 81 533 121 535 c 1,8,9
 175 678 175 678 223 678 c 0,10,11
 242 678 242 678 242 656 c 1,12,13
 224 611 224 611 201 541 c 1,14,15
 323 553 323 553 346 553 c 0,16,17
 355 553 355 553 355 544 c 0,18,19
 355 526 355 526 331 526 c 0,20,21
 324 526 324 526 189 502 c 1,22,23
 100 224 100 224 100 48.5 c 128,-1,24
 100 -127 100 -127 170 -127 c 0,25,26
 198 -127 198 -127 222 -102.5 c 128,-1,27
 246 -78 246 -78 257 -55 c 0,28,29
 262 -43 262 -43 276 -48 c 0,30,31
 283 -50 283 -50 280.5 -56 c 128,-1,32
 278 -62 278 -62 270.5 -76 c 128,-1,33
 263 -90 263 -90 248 -112 c 128,-1,34
 233 -134 233 -134 210.5 -149 c 128,-1,35
 188 -164 188 -164 165 -164 c 0,36,37
 32 -164 32 -164 32 69 c 0,38,39
 32 162 32 162 52.5 276.5 c 128,-1,40
 73 391 73 391 105 489 c 1,41,42
 81 486 81 486 66 486 c 0,0,1
EndSplineSet
EndChar

StartChar: u
Encoding: 117 117 88
Width: 534
GlyphClass: 2
Flags: W
LayerCount: 2
Fore
SplineSet
86 4 m 0,0,1
 0 4 0 4 0 143 c 0,2,3
 0 260 0 260 52.5 391.5 c 128,-1,4
 105 523 105 523 152 542 c 1,5,-1
 165 545 l 1,6,7
 185 545 185 545 185 520 c 1,8,9
 143 418 143 418 107 288.5 c 128,-1,10
 71 159 71 159 71 101.5 c 128,-1,11
 71 44 71 44 97 44 c 128,-1,12
 123 44 123 44 178.5 123 c 128,-1,13
 234 202 234 202 282.5 290.5 c 128,-1,14
 331 379 331 379 359 442 c 0,15,16
 406 545 406 545 452 545 c 0,17,18
 474 545 474 545 474 520 c 1,19,20
 461 497 461 497 438 433.5 c 128,-1,21
 415 370 415 370 400 315 c 0,22,23
 360 168 360 168 360 26 c 0,24,25
 360 -84 360 -84 393 -84 c 0,26,27
 407 -84 407 -84 419 -72 c 128,-1,28
 431 -60 431 -60 436 -48 c 2,29,-1
 440 -36 l 1,30,31
 442 -26 442 -26 451 -26 c 0,32,33
 466 -26 466 -26 464 -34 c 0,34,35
 463 -40 463 -40 453 -61 c 128,-1,36
 443 -82 443 -82 435 -94 c 0,37,38
 414 -124 414 -124 389 -124 c 0,39,40
 344 -124 344 -124 320 -68 c 1,41,42
 294 -12 294 -12 294 71 c 128,-1,43
 294 154 294 154 306 242 c 1,44,-1
 295 242 l 1,45,46
 159 4 159 4 86 4 c 0,0,1
EndSplineSet
EndChar

StartChar: v
Encoding: 118 118 89
Width: 437
GlyphClass: 2
Flags: W
LayerCount: 2
Fore
SplineSet
355 509 m 1,0,1
 387 484 387 484 416.5 484 c 128,-1,2
 446 484 446 484 460 492 c 1,3,4
 460 477 460 477 447 464.5 c 128,-1,5
 434 452 434 452 409 452 c 128,-1,6
 384 452 384 452 357 463 c 1,7,8
 354 357 354 357 317 246 c 128,-1,9
 280 135 280 135 222 60.5 c 128,-1,10
 164 -14 164 -14 105.5 -14 c 128,-1,11
 47 -14 47 -14 20 38 c 0,12,13
 -2 82 -2 82 -2 141 c 0,14,15
 -2 213 -2 213 18.5 300 c 128,-1,16
 39 387 39 387 67 439 c 128,-1,17
 95 491 95 491 118 491 c 128,-1,18
 141 491 141 491 141 467 c 1,19,20
 70 223 70 223 70 124 c 128,-1,21
 70 25 70 25 113 25 c 0,22,23
 142 25 142 25 178 65.5 c 128,-1,24
 214 106 214 106 246 169 c 128,-1,25
 278 232 278 232 299.5 315.5 c 128,-1,26
 321 399 321 399 321 477 c 2,27,-1
 321 484 l 1,28,29
 289 507 289 507 268.5 540 c 128,-1,30
 248 573 248 573 248 589.5 c 128,-1,31
 248 606 248 606 263 619.5 c 128,-1,32
 278 633 278 633 294 633 c 0,33,34
 315 633 315 633 332 595.5 c 128,-1,35
 349 558 349 558 355 509 c 1,0,1
EndSplineSet
EndChar

StartChar: w
Encoding: 119 119 90
Width: 707
GlyphClass: 2
Flags: W
LayerCount: 2
Fore
SplineSet
609 509 m 1,0,1
 641 484 641 484 670.5 484 c 128,-1,2
 700 484 700 484 714 492 c 1,3,4
 714 477 714 477 701 464.5 c 128,-1,5
 688 452 688 452 663 452 c 128,-1,6
 638 452 638 452 611 463 c 1,7,8
 609 357 609 357 576.5 246.5 c 128,-1,9
 544 136 544 136 492 61 c 128,-1,10
 440 -14 440 -14 389.5 -14 c 128,-1,11
 339 -14 339 -14 312 26 c 0,12,13
 284 69 284 69 284 147 c 0,14,15
 284 195 284 195 290 249 c 1,16,17
 150 0 150 0 75.5 0 c 128,-1,18
 1 0 1 0 1 124 c 128,-1,19
 1 248 1 248 55 379 c 1,20,21
 115 528 115 528 164 528 c 0,22,23
 185 528 185 528 185 504 c 1,24,25
 172 472 172 472 152 421 c 128,-1,26
 132 370 132 370 98.5 257.5 c 128,-1,27
 65 145 65 145 65 91.5 c 128,-1,28
 65 38 65 38 89 38 c 0,29,30
 118 38 118 38 180 132 c 128,-1,31
 242 226 242 226 290 320 c 2,32,-1
 338 415 l 2,33,34
 370 478 370 478 396 478 c 0,35,36
 419 478 419 478 419 454 c 1,37,38
 351 219 351 219 351 87 c 0,39,40
 351 25 351 25 387 25 c 0,41,42
 427 25 427 25 471 92 c 128,-1,43
 515 159 515 159 545 266 c 128,-1,44
 575 373 575 373 575 477 c 2,45,-1
 575 484 l 1,46,47
 543 507 543 507 522.5 540 c 128,-1,48
 502 573 502 573 502 589.5 c 128,-1,49
 502 606 502 606 517 619.5 c 128,-1,50
 532 633 532 633 548 633 c 0,51,52
 569 633 569 633 586 595.5 c 128,-1,53
 603 558 603 558 609 509 c 1,0,1
EndSplineSet
EndChar

StartChar: x
Encoding: 120 120 91
Width: 450
GlyphClass: 2
Flags: W
LayerCount: 2
Fore
SplineSet
330 -39 m 0,0,1
 282 -39 282 -39 240 27.5 c 128,-1,2
 198 94 198 94 155 207 c 1,3,4
 96 114 96 114 60 67.5 c 128,-1,5
 24 21 24 21 2 21 c 0,6,7
 -10 21 -10 21 -16.5 28.5 c 128,-1,8
 -23 36 -23 36 -23 44 c 2,9,-1
 -23 52 l 1,10,11
 -9 52 -9 52 22.5 94 c 128,-1,12
 54 136 54 136 90.5 191.5 c 128,-1,13
 127 247 127 247 136 260 c 1,14,15
 130 276 130 276 121.5 300.5 c 128,-1,16
 113 325 113 325 107.5 340.5 c 128,-1,17
 102 356 102 356 94 377 c 128,-1,18
 86 398 86 398 80.5 411.5 c 128,-1,19
 75 425 75 425 68.5 440.5 c 128,-1,20
 62 456 62 456 56.5 465.5 c 128,-1,21
 51 475 51 475 46 484 c 0,22,23
 35 500 35 500 24 500 c 1,24,25
 25 505 25 505 27 512.5 c 128,-1,26
 29 520 29 520 41 532 c 128,-1,27
 53 544 53 544 73 544 c 0,28,29
 120 544 120 544 189 338 c 1,30,31
 319 522 319 522 377 522 c 0,32,33
 391 522 391 522 399.5 514 c 128,-1,34
 408 506 408 506 410 491 c 1,35,36
 370 491 370 491 319 435.5 c 128,-1,37
 268 380 268 380 206 285 c 1,38,39
 268 91 268 91 293 45 c 128,-1,40
 318 -1 318 -1 339 -1 c 0,41,42
 352 -1 352 -1 364.5 9.5 c 128,-1,43
 377 20 377 20 382 20 c 0,44,45
 390 20 390 20 388 9 c 1,46,47
 359 -39 359 -39 330 -39 c 0,0,1
EndSplineSet
EndChar

StartChar: y
Encoding: 121 121 92
Width: 523
GlyphClass: 2
Flags: W
LayerCount: 2
Fore
SplineSet
89 4 m 0,0,1
 3 4 3 4 3 143 c 0,2,3
 3 260 3 260 55.5 391.5 c 128,-1,4
 108 523 108 523 155 542 c 1,5,-1
 168 545 l 1,6,7
 188 545 188 545 188 520 c 1,8,9
 175 490 175 490 156 441.5 c 128,-1,10
 137 393 137 393 105.5 280.5 c 128,-1,11
 74 168 74 168 74 106 c 128,-1,12
 74 44 74 44 101 44 c 0,13,14
 125 44 125 44 171 106 c 128,-1,15
 217 168 217 168 264 254 c 0,16,17
 356 421 356 421 384 483 c 128,-1,18
 412 545 412 545 449 545 c 0,19,20
 473 545 473 545 473 519 c 1,21,22
 467 507 467 507 456 481.5 c 128,-1,23
 445 456 445 456 418 360 c 128,-1,24
 391 264 391 264 372 153.5 c 128,-1,25
 353 43 353 43 339 -17 c 1,26,27
 423 -31 423 -31 438 -89 c 1,28,29
 440 -101 440 -101 440 -118 c 128,-1,30
 440 -135 440 -135 427 -148.5 c 128,-1,31
 414 -162 414 -162 403 -162 c 1,32,33
 406 -152 406 -152 404.5 -133 c 128,-1,34
 403 -114 403 -114 397 -100.5 c 128,-1,35
 391 -87 391 -87 374 -73 c 128,-1,36
 357 -59 357 -59 330 -52 c 1,37,38
 294 -190 294 -190 230 -277 c 0,39,40
 156 -377 156 -377 30 -377 c 0,41,42
 -61 -377 -61 -377 -92 -312 c 0,43,44
 -93 -309 -93 -309 -93 -307 c 0,45,46
 -93 -300 -93 -300 -81 -297 c 128,-1,47
 -69 -294 -69 -294 -64 -306 c 0,48,49
 -44 -352 -44 -352 30 -352 c 0,50,51
 132 -352 132 -352 188 -256 c 0,52,53
 238 -172 238 -172 265 -46 c 1,54,55
 63 -50 63 -50 -47 -201 c 0,56,57
 -55 -211 -55 -211 -69 -205 c 1,58,59
 -76 -199 -76 -199 -73 -193 c 0,60,61
 -25 -120 -25 -120 61.5 -69 c 128,-1,62
 148 -18 148 -18 272 -14 c 1,63,64
 286 58 286 58 294.5 113 c 128,-1,65
 303 168 303 168 321 264 c 1,66,-1
 311 264 l 1,67,68
 164 4 164 4 89 4 c 0,0,1
EndSplineSet
EndChar

StartChar: z
Encoding: 122 122 93
Width: 468
GlyphClass: 2
Flags: W
LayerCount: 2
Fore
SplineSet
-12 -377 m 0,0,1
 -100 -377 -100 -377 -100 -293 c 0,2,3
 -100 -224 -100 -224 -36 -135 c 0,4,5
 46 -20 46 -20 166 26 c 0,6,7
 172 28 172 28 177.5 23 c 128,-1,8
 183 18 183 18 183 12 c 128,-1,9
 183 6 183 6 176 2 c 1,10,11
 64 -39 64 -39 -14 -150 c 0,12,13
 -70 -230 -70 -230 -70 -283 c 128,-1,14
 -70 -336 -70 -336 -31 -336 c 0,15,16
 59 -336 59 -336 166 -214 c 0,17,18
 257 -111 257 -111 294 -2 c 0,19,20
 309 41 309 41 309 75 c 128,-1,21
 309 109 309 109 279 120 c 0,22,23
 271 123 271 123 259 123 c 0,24,25
 221 123 221 123 166.5 97.5 c 128,-1,26
 112 72 112 72 96 72 c 0,27,28
 69 72 69 72 63 111 c 2,29,-1
 61 124 l 1,30,31
 142 124 142 124 225 234 c 0,32,33
 296 328 296 328 315 422 c 0,34,35
 319 444 319 444 319 461 c 0,36,37
 319 516 319 516 274.5 516 c 128,-1,38
 230 516 230 516 186.5 481.5 c 128,-1,39
 143 447 143 447 116 403 c 128,-1,40
 89 359 89 359 72 322.5 c 128,-1,41
 55 286 55 286 55 278.5 c 128,-1,42
 55 271 55 271 44.5 268 c 128,-1,43
 34 265 34 265 23 270.5 c 128,-1,44
 12 276 12 276 12 289 c 128,-1,45
 12 302 12 302 33.5 342 c 128,-1,46
 55 382 55 382 89.5 428.5 c 128,-1,47
 124 475 124 475 176 511 c 128,-1,48
 228 547 228 547 279 547 c 128,-1,49
 330 547 330 547 358 513.5 c 128,-1,50
 386 480 386 480 386 415 c 128,-1,51
 386 350 386 350 344 278.5 c 128,-1,52
 302 207 302 207 238 151 c 1,53,54
 252 153 252 153 259 153 c 0,55,56
 365 153 365 153 365 36 c 0,57,58
 365 -43 365 -43 308 -144 c 0,59,60
 237 -272 237 -272 130 -335 c 0,61,62
 59 -377 59 -377 -12 -377 c 0,0,1
EndSplineSet
EndChar

StartChar: braceleft
Encoding: 123 123 94
Width: 355
GlyphClass: 2
Flags: W
LayerCount: 2
Fore
SplineSet
100 286 m 0,0,1
 100 378 100 378 47 378 c 0,2,3
 41 378 41 378 41 390 c 0,4,5
 41 422 41 422 54 422 c 0,6,7
 110 422 110 422 135 512 c 0,8,9
 146 552 146 552 156 600.5 c 128,-1,10
 166 649 166 649 179 697 c 128,-1,11
 192 745 192 745 211 785 c 128,-1,12
 230 825 230 825 265.5 850 c 128,-1,13
 301 875 301 875 350 875 c 0,14,15
 364 875 364 875 371.5 868 c 128,-1,16
 379 861 379 861 381 847 c 1,17,18
 328 847 328 847 294.5 819.5 c 128,-1,19
 261 792 261 792 248.5 750 c 128,-1,20
 236 708 236 708 227 655 c 128,-1,21
 218 602 218 602 212 553.5 c 128,-1,22
 206 505 206 505 185.5 461.5 c 128,-1,23
 165 418 165 418 130 397 c 1,24,25
 155 373 155 373 155 314 c 128,-1,26
 155 255 155 255 144 191 c 0,27,28
 125 80 125 80 125 35 c 0,29,30
 125 -77 125 -77 212 -77 c 1,31,32
 212 -85 212 -85 203.5 -92.5 c 128,-1,33
 195 -100 195 -100 183 -100 c 0,34,35
 133 -100 133 -100 109 -64.5 c 128,-1,36
 85 -29 85 -29 85 24 c 0,37,38
 85 124 85 124 92.5 197.5 c 128,-1,39
 100 271 100 271 100 286 c 0,0,1
EndSplineSet
EndChar

StartChar: bar
Encoding: 124 124 95
Width: 409
GlyphClass: 2
Flags: W
LayerCount: 2
Fore
SplineSet
155 -139 m 0,0,1
 143 -139 143 -139 143 -117 c 0,2,3
 148 325 148 325 161 717 c 1,4,5
 162 810 162 810 203 810 c 0,6,7
 211 810 211 810 216 801.5 c 128,-1,8
 221 793 221 793 221 784 c 128,-1,9
 221 775 221 775 200.5 390.5 c 128,-1,10
 180 6 180 6 178 -65 c 0,11,12
 176 -139 176 -139 155 -139 c 0,0,1
EndSplineSet
EndChar

StartChar: braceright
Encoding: 125 125 96
Width: 361
GlyphClass: 2
Flags: W
LayerCount: 2
Fore
SplineSet
252 489 m 0,0,1
 252 397 252 397 305 397 c 0,2,3
 311 397 311 397 311 385 c 0,4,5
 311 353 311 353 298 353 c 0,6,7
 242 353 242 353 217 263 c 0,8,9
 206 223 206 223 196 175 c 128,-1,10
 186 127 186 127 173 78.5 c 128,-1,11
 160 30 160 30 141 -10 c 128,-1,12
 122 -50 122 -50 86.5 -75 c 128,-1,13
 51 -100 51 -100 2 -100 c 0,14,15
 -12 -100 -12 -100 -19.5 -93 c 128,-1,16
 -27 -86 -27 -86 -29 -72 c 1,17,18
 34 -72 34 -72 68.5 -34.5 c 128,-1,19
 103 3 103 3 114.5 61 c 128,-1,20
 126 119 126 119 132.5 180 c 128,-1,21
 139 241 139 241 160 297 c 128,-1,22
 181 353 181 353 222 377 c 1,23,24
 197 401 197 401 197 460 c 128,-1,25
 197 519 197 519 208 584 c 0,26,27
 227 696 227 696 227 740 c 0,28,29
 227 852 227 852 140 852 c 1,30,31
 140 860 140 860 148.5 867.5 c 128,-1,32
 157 875 157 875 169 875 c 0,33,34
 219 875 219 875 243 839.5 c 128,-1,35
 267 804 267 804 267 751 c 0,36,37
 267 651 267 651 259.5 577.5 c 128,-1,38
 252 504 252 504 252 489 c 0,0,1
EndSplineSet
EndChar

StartChar: asciitilde
Encoding: 126 126 97
Width: 534
GlyphClass: 2
Flags: W
LayerCount: 2
Fore
SplineSet
390 519 m 0,0,1
 350 519 350 519 282.5 502.5 c 128,-1,2
 215 486 215 486 185 486 c 128,-1,3
 155 486 155 486 128 503.5 c 128,-1,4
 101 521 101 521 89 538 c 2,5,-1
 77 556 l 1,6,-1
 115 556 l 1,7,8
 134 531 134 531 169.5 531 c 128,-1,9
 205 531 205 531 274 552.5 c 128,-1,10
 343 574 343 574 375 574 c 128,-1,11
 407 574 407 574 431 565 c 128,-1,12
 455 556 455 556 472 544 c 0,13,14
 508 519 508 519 532 489 c 1,15,-1
 494 489 l 1,16,17
 459 519 459 519 399 519 c 0,18,19
 395 519 395 519 390 519 c 0,0,1
EndSplineSet
EndChar

StartChar: exclamdown
Encoding: 161 161 98
Width: 350
GlyphClass: 2
Flags: W
LayerCount: 2
Fore
SplineSet
193 545 m 128,-1,1
 220 545 220 545 220 519 c 0,2,3
 220 495 220 495 194 434 c 1,4,-1
 186 413 l 1,5,6
 167 413 167 413 157 446 c 0,7,8
 152 463 152 463 152 479.5 c 128,-1,9
 152 496 152 496 156 512 c 0,10,0
 166 545 166 545 193 545 c 128,-1,1
202 247 m 0,11,12
 202 139 202 139 176 -1.5 c 128,-1,13
 150 -142 150 -142 106.5 -248.5 c 128,-1,14
 63 -355 63 -355 21 -355 c 0,15,16
 3 -355 3 -355 3 -337 c 1,17,18
 48 -237 48 -237 100 -13.5 c 128,-1,19
 152 210 152 210 152 298 c 0,20,21
 152 313 152 313 168 313 c 0,22,23
 202 313 202 313 202 247 c 0,11,12
EndSplineSet
EndChar

StartChar: cent
Encoding: 162 162 99
Width: 508
GlyphClass: 2
Flags: W
LayerCount: 2
Fore
SplineSet
131 -191 m 0,0,1
 131 -184 131 -184 156 -36 c 1,2,3
 43 -34 43 -34 11 75 c 0,4,5
 0 113 0 113 0 170 c 128,-1,6
 0 227 0 227 31 310 c 0,7,8
 80 442 80 442 170 504 c 0,9,10
 213 533 213 533 257 540 c 1,11,-1
 292 743 l 2,12,13
 294 754 294 754 303 754 c 0,14,15
 306 754 306 754 309 753 c 0,16,17
 329 746 329 746 329 722 c 128,-1,18
 329 698 329 698 298 541 c 1,19,20
 322 537 322 537 337 520 c 128,-1,21
 352 503 352 503 355 488 c 2,22,-1
 358 474 l 1,23,-1
 330 474 l 1,24,25
 330 483 330 483 318.5 494.5 c 128,-1,26
 307 506 307 506 292 509 c 1,27,28
 211 83 211 83 197 5 c 1,29,30
 226 13 226 13 251 35 c 128,-1,31
 276 57 276 57 287 75 c 2,32,-1
 298 93 l 1,33,34
 302 103 302 103 317 103 c 128,-1,35
 332 103 332 103 332 96 c 2,36,-1
 332 93 l 1,37,38
 299 27 299 27 238 -12 c 0,39,40
 214 -27 214 -27 189 -33 c 1,41,42
 161 -181 161 -181 157 -208 c 0,43,44
 155 -217 155 -217 149 -217 c 0,45,46
 147 -217 147 -217 144 -217 c 1,47,48
 131 -212 131 -212 131 -191 c 0,0,1
78 150 m 0,49,50
 78 9 78 9 163 2 c 1,51,52
 174 65 174 65 205 242 c 128,-1,53
 236 419 236 419 251 505 c 1,54,55
 178 480 178 480 128 365.5 c 128,-1,56
 78 251 78 251 78 150 c 0,49,50
EndSplineSet
EndChar

StartChar: sterling
Encoding: 163 163 100
Width: 817
GlyphClass: 2
Flags: W
LayerCount: 2
Fore
SplineSet
546 -29 m 0,0,1
 577 -29 577 -29 597 -22.5 c 128,-1,2
 617 -16 617 -16 628 -7 c 0,3,4
 651 12 651 12 659 32 c 1,5,6
 677 32 677 32 677 5 c 0,7,8
 677 -37 677 -37 636.5 -66.5 c 128,-1,9
 596 -96 596 -96 538.5 -96 c 128,-1,10
 481 -96 481 -96 421 -79 c 128,-1,11
 361 -62 361 -62 327.5 -46.5 c 128,-1,12
 294 -31 294 -31 233 1 c 1,13,14
 167 -36 167 -36 79 -36 c 128,-1,15
 -9 -36 -9 -36 -37 12 c 0,16,17
 -45 26 -45 26 -45 42 c 128,-1,18
 -45 58 -45 58 -24.5 78.5 c 128,-1,19
 -4 99 -4 99 54 99 c 128,-1,20
 112 99 112 99 230 58 c 1,21,22
 298 136 298 136 339 344 c 1,23,24
 298 342 298 342 238 342 c 0,25,26
 207 342 207 342 201 364 c 1,27,28
 198 380 198 380 210 384 c 0,29,30
 212 385 212 385 214 385 c 1,31,32
 219 378 219 378 238 378 c 2,33,-1
 345 378 l 1,34,35
 380 564 380 564 396 617 c 0,36,37
 441 764 441 764 528 785 c 0,38,39
 544 789 544 789 569.5 789 c 128,-1,40
 595 789 595 789 611 773.5 c 128,-1,41
 627 758 627 758 628 742 c 1,42,-1
 628 726 l 1,43,44
 617 737 617 737 591 737 c 128,-1,45
 565 737 565 737 547.5 728 c 128,-1,46
 530 719 530 719 516 697 c 128,-1,47
 502 675 502 675 492.5 654.5 c 128,-1,48
 483 634 483 634 473.5 594.5 c 128,-1,49
 464 555 464 555 458.5 530 c 128,-1,50
 453 505 453 505 443.5 454 c 128,-1,51
 434 403 434 403 429 378 c 1,52,-1
 577 378 l 2,53,54
 587 378 587 378 586 367 c 1,55,56
 583 352 583 352 559 351.5 c 128,-1,57
 535 351 535 351 423 347 c 1,58,59
 374 125 374 125 285 40 c 1,60,61
 475 -29 475 -29 546 -29 c 0,0,1
655 496 m 0,62,63
 655 491 655 491 645.5 490.5 c 128,-1,64
 636 490 636 490 626 494.5 c 128,-1,65
 616 499 616 499 616 507 c 0,66,67
 616 621 616 621 641.5 691.5 c 128,-1,68
 667 762 667 762 710 762 c 0,69,70
 721 762 721 762 729 754 c 128,-1,71
 737 746 737 746 737 733 c 1,72,73
 686 682 686 682 664 582 c 0,74,75
 655 541 655 541 655 496 c 0,62,63
-14 38 m 0,76,77
 -14 20 -14 20 12.5 7 c 128,-1,78
 39 -6 39 -6 90.5 -6 c 128,-1,79
 142 -6 142 -6 189 23 c 1,80,81
 93 71 93 71 30 71 c 0,82,83
 -4 71 -4 71 -12 48 c 0,84,85
 -14 43 -14 43 -14 38 c 0,76,77
EndSplineSet
EndChar

StartChar: currency
Encoding: 164 164 101
Width: 635
GlyphClass: 2
Flags: W
LayerCount: 2
Fore
SplineSet
526 528 m 0,0,1
 541 528 541 528 541 515 c 0,2,3
 541 508 541 508 534 500 c 2,4,-1
 456 422 l 1,5,6
 478 384 478 384 478 333 c 0,7,8
 478 235 478 235 419 147 c 1,9,-1
 506 60 l 2,10,11
 514 53 514 53 512 44 c 128,-1,12
 510 35 510 35 502 33.5 c 128,-1,13
 494 32 494 32 485 39 c 1,14,-1
 401 123 l 1,15,16
 341 48 341 48 266 48 c 128,-1,17
 191 48 191 48 156 96 c 1,18,-1
 93 34 l 2,19,20
 87 28 87 28 80 28 c 0,21,22
 66 28 66 28 66 41 c 0,23,24
 66 48 66 48 72 55 c 2,25,-1
 141 124 l 1,26,27
 131 152 131 152 131 191 c 128,-1,28
 131 230 131 230 156 284 c 0,29,30
 198 371 198 371 274 389 c 0,31,32
 281 391 281 391 285 385.5 c 128,-1,33
 289 380 289 380 288 373.5 c 128,-1,34
 287 367 287 367 283 366 c 0,35,36
 257 359 257 359 236 326 c 0,37,38
 199 268 199 268 199 175 c 0,39,40
 199 131 199 131 216.5 103 c 128,-1,41
 234 75 234 75 265 75 c 0,42,43
 331 75 331 75 376 168 c 0,44,45
 415 248 415 248 415 328 c 0,46,47
 415 445 415 445 347 445 c 0,48,49
 305 445 305 445 271 414 c 0,50,51
 256 401 256 401 241 401 c 128,-1,52
 226 401 226 401 230 408 c 1,53,54
 215 423 215 423 194 444.5 c 128,-1,55
 173 466 173 466 160 479 c 128,-1,56
 147 492 147 492 140.5 499 c 128,-1,57
 134 506 134 506 136 515 c 128,-1,58
 138 524 138 524 146 525.5 c 128,-1,59
 154 527 154 527 164 519 c 1,60,-1
 252 431 l 1,61,62
 300 471 300 471 353.5 471 c 128,-1,63
 407 471 407 471 436 445 c 1,64,-1
 513 522 l 2,65,66
 519 528 519 528 526 528 c 0,0,1
EndSplineSet
EndChar

StartChar: yen
Encoding: 165 165 102
Width: 657
GlyphClass: 2
Flags: W
LayerCount: 2
Fore
SplineSet
303 96 m 2,0,-1
 382 95 l 1,1,2
 418 182 418 182 452 328 c 1,3,-1
 443 328 l 1,4,5
 352 181 352 181 272 181 c 0,6,7
 196 181 196 181 196 273 c 0,8,9
 196 332 196 332 234.5 450.5 c 128,-1,10
 273 569 273 569 273 629 c 0,11,12
 273 727 273 727 183 727 c 0,13,14
 107 727 107 727 62 650 c 0,15,16
 30 596 30 596 30 543 c 0,17,18
 30 519 30 519 37 494 c 0,19,20
 58 417 58 417 141 417 c 1,21,22
 139 398 139 398 111 398 c 0,23,24
 33 398 33 398 8 475 c 0,25,26
 -1 504 -1 504 -1 543 c 128,-1,27
 -1 582 -1 582 22 634 c 0,28,29
 60 723 60 723 136 747 c 0,30,31
 159 754 159 754 183 754 c 0,32,33
 254 754 254 754 292.5 710 c 128,-1,34
 331 666 331 666 331 598 c 128,-1,35
 331 530 331 530 293.5 413 c 128,-1,36
 256 296 256 296 256 253 c 128,-1,37
 256 210 256 210 281 210 c 0,38,39
 319 210 319 210 368 276 c 0,40,41
 457 395 457 395 505 542 c 0,42,43
 533 627 533 627 567 627 c 0,44,45
 579 627 579 627 584 620 c 128,-1,46
 589 613 589 613 589 609.5 c 128,-1,47
 589 606 589 606 588 604 c 0,48,49
 555 532 555 532 512 350 c 128,-1,50
 469 168 469 168 440 93 c 1,51,-1
 485 93 l 2,52,53
 494 93 494 93 491.5 84 c 128,-1,54
 489 75 489 75 468.5 75 c 128,-1,55
 448 75 448 75 432 74 c 1,56,57
 422 47 422 47 408 23 c 1,58,-1
 469 23 l 2,59,60
 478 23 478 23 475.5 14 c 128,-1,61
 473 5 473 5 460 5 c 2,62,-1
 396 4 l 1,63,64
 322 -115 322 -115 193 -115 c 0,65,66
 88 -115 88 -115 56 -46 c 0,67,68
 46 -24 46 -24 46 0 c 128,-1,69
 46 24 46 24 60 49 c 0,70,71
 82 86 82 86 121 86 c 0,72,73
 132 86 132 86 139 81 c 128,-1,74
 146 76 146 76 149 67 c 1,75,76
 103 67 103 67 85 24 c 0,77,78
 78 7 78 7 78 -13 c 128,-1,79
 78 -33 78 -33 96 -55 c 0,80,81
 122 -88 122 -88 176 -88 c 0,82,83
 266 -88 266 -88 331 2 c 1,84,-1
 287 2 l 2,85,86
 264 2 264 2 262 19 c 0,87,88
 261 31 261 31 271 31 c 1,89,90
 274 26 274 26 299.5 26 c 128,-1,91
 325 26 325 26 346 25 c 1,92,93
 362 51 362 51 372 73 c 1,94,95
 347 72 347 72 303 72 c 0,96,97
 280 72 280 72 278 89 c 0,98,99
 277 101 277 101 287 101 c 1,100,101
 290 96 290 96 303 96 c 2,0,-1
EndSplineSet
EndChar

StartChar: brokenbar
Encoding: 166 166 103
Width: 469
GlyphClass: 2
Flags: W
LayerCount: 2
Fore
SplineSet
199 749 m 0,0,1
 216 749 216 749 216 721 c 0,2,3
 216 717 216 717 198 370 c 1,4,-1
 153 370 l 1,5,6
 159 648 159 648 160 663 c 0,7,8
 161 749 161 749 199 749 c 0,0,1
154 -140 m 0,9,10
 143 -140 143 -140 143 -119 c 0,11,12
 144 -45 144 -45 150 269 c 1,13,-1
 193 269 l 1,14,15
 176 -47 176 -47 175 -79 c 0,16,17
 174 -140 174 -140 154 -140 c 0,9,10
EndSplineSet
EndChar

StartChar: section
Encoding: 167 167 104
Width: 622
GlyphClass: 2
Flags: W
LayerCount: 2
Fore
SplineSet
21 46 m 0,0,1
 21 -18 21 -18 104 -18 c 0,2,3
 200 -18 200 -18 256 41 c 128,-1,4
 312 100 312 100 312 194 c 0,5,6
 312 275 312 275 248 332 c 0,7,8
 222 355 222 355 195 376 c 0,9,10
 131 427 131 427 131 487 c 128,-1,11
 131 547 131 547 184.5 603.5 c 128,-1,12
 238 660 238 660 305 671 c 1,13,-1
 305 675 l 2,14,15
 305 746 305 746 368.5 806 c 128,-1,16
 432 866 432 866 505 866 c 0,17,18
 528 866 528 866 539 853 c 128,-1,19
 550 840 550 840 550 827 c 2,20,-1
 549 814 l 1,21,22
 539 821 539 821 511 821 c 0,23,24
 461 821 461 821 415.5 777.5 c 128,-1,25
 370 734 370 734 370 673 c 0,26,27
 370 623 370 623 434 568 c 0,28,29
 460 545 460 545 486 520 c 0,30,31
 550 460 550 460 550 385.5 c 128,-1,32
 550 311 550 311 504 248.5 c 128,-1,33
 458 186 458 186 374 161 c 1,34,35
 362 75 362 75 290.5 15.5 c 128,-1,36
 219 -44 219 -44 111 -44 c 128,-1,37
 3 -44 3 -44 -19 24 c 0,38,39
 -24 41 -24 41 -24 58 c 0,40,41
 -24 99 -24 99 7 143 c 0,42,43
 55 212 55 212 134 220 c 1,44,-1
 152 221 l 2,45,46
 166 221 166 221 174.5 212.5 c 128,-1,47
 183 204 183 204 186 188 c 1,48,49
 113 188 113 188 59 127 c 0,50,51
 21 85 21 85 21 46 c 0,0,1
260 376 m 0,52,53
 287 353 287 353 313 328.5 c 128,-1,54
 339 304 339 304 358 269 c 128,-1,55
 377 234 377 234 377 194 c 1,56,57
 429 219 429 219 457 269.5 c 128,-1,58
 485 320 485 320 485 375.5 c 128,-1,59
 485 431 485 431 464 468.5 c 128,-1,60
 443 506 443 506 417 527 c 0,61,62
 336 592 336 592 317 626 c 1,63,64
 271 617 271 617 234 576.5 c 128,-1,65
 197 536 197 536 197 483.5 c 128,-1,66
 197 431 197 431 260 376 c 0,52,53
EndSplineSet
EndChar

StartChar: dieresis
Encoding: 168 168 105
Width: 506
GlyphClass: 2
Flags: W
LayerCount: 2
Fore
SplineSet
180 628 m 1,0,1
 157 628 157 628 157 673 c 0,2,3
 157 700 157 700 171 730 c 128,-1,4
 185 760 185 760 212 760 c 0,5,6
 235 760 235 760 235 734 c 0,7,8
 235 721 235 721 221.5 694.5 c 128,-1,9
 208 668 208 668 194 648 c 2,10,-1
 180 628 l 1,0,1
340 628 m 1,11,12
 317 628 317 628 317 673 c 0,13,14
 317 700 317 700 331 730 c 128,-1,15
 345 760 345 760 372 760 c 0,16,17
 395 760 395 760 395 734 c 0,18,19
 395 721 395 721 381.5 694.5 c 128,-1,20
 368 668 368 668 354 648 c 2,21,-1
 340 628 l 1,11,12
EndSplineSet
EndChar

StartChar: copyright
Encoding: 169 169 106
Width: 946
GlyphClass: 2
Flags: W
LayerCount: 2
Fore
SplineSet
508 649 m 128,-1,1
 651 649 651 649 742 548 c 0,2,3
 820 461 820 461 820 344 c 0,4,5
 820 176 820 176 691 60 c 0,6,7
 579 -41 579 -41 436.5 -41 c 128,-1,8
 294 -41 294 -41 204 60 c 0,9,10
 126 147 126 147 126 264 c 0,11,12
 126 431 126 431 254 548 c 0,13,0
 365 649 365 649 508 649 c 128,-1,1
150 267 m 0,14,15
 150 158 150 158 222 78 c 0,16,17
 306 -16 306 -16 439 -16 c 128,-1,18
 572 -16 572 -16 676 78 c 0,19,20
 796 185 796 185 796 339 c 0,21,22
 796 450 796 450 722 531 c 1,23,24
 638 625 638 625 505 625 c 128,-1,25
 372 625 372 625 269 531 c 0,26,27
 150 422 150 422 150 267 c 0,14,15
540 178 m 1,28,29
 543 186 543 186 554.5 186 c 128,-1,30
 566 186 566 186 566 180 c 2,31,-1
 566 178 l 1,32,33
 536 118 536 118 482 92 c 0,34,35
 460 82 460 82 437 82 c 0,36,37
 346 82 346 82 323 172 c 0,38,39
 316 198 316 198 316 227 c 0,40,41
 316 289 316 289 348 362 c 0,42,43
 393 465 393 465 468 502 c 0,44,45
 498 516 498 516 527 516 c 128,-1,46
 556 516 556 516 571 497 c 1,47,48
 594 569 594 569 630 569 c 0,49,50
 644 569 644 569 644 555 c 1,51,52
 619 519 619 519 600 473.5 c 128,-1,53
 581 428 581 428 581 396 c 0,54,55
 581 384 581 384 572 384 c 1,56,57
 560 388 560 388 558 404 c 1,58,59
 558 435 558 435 564 465 c 1,60,61
 564 474 564 474 553 483 c 128,-1,62
 542 492 542 492 527 492 c 0,63,64
 466 492 466 492 420.5 400 c 128,-1,65
 375 308 375 308 375 220 c 0,66,67
 375 110 375 110 444 110 c 0,68,69
 472 110 472 110 496 127 c 128,-1,70
 520 144 520 144 530 161 c 2,71,-1
 540 178 l 1,28,29
EndSplineSet
EndChar

StartChar: ordfeminine
Encoding: 170 170 107
Width: 513
GlyphClass: 2
Flags: W
LayerCount: 2
Fore
SplineSet
149 514 m 0,0,1
 90 514 90 514 90 607 c 0,2,3
 90 677 90 677 129 753 c 0,4,5
 179 850 179 850 250 864 c 1,6,-1
 270 866 l 1,7,8
 289 866 289 866 302.5 856 c 128,-1,9
 316 846 316 846 320 836 c 2,10,-1
 324 826 l 1,11,12
 323 813 323 813 308 813 c 0,13,14
 299 813 299 813 293 823 c 1,15,16
 289 843 289 843 267 843 c 0,17,18
 225 843 225 843 188 765 c 0,19,20
 144 674 144 674 144 594 c 0,21,22
 144 552 144 552 158 543 c 1,23,24
 174 543 174 543 216 605 c 128,-1,25
 258 667 258 667 292 729 c 2,26,-1
 326 791 l 1,27,28
 347 833 347 833 372 833 c 0,29,30
 379 833 379 833 384 828 c 128,-1,31
 389 823 389 823 389 816 c 1,32,33
 367 773 367 773 348.5 688.5 c 128,-1,34
 330 604 330 604 330 533.5 c 128,-1,35
 330 463 330 463 349 463 c 0,36,37
 357 463 357 463 363 469.5 c 128,-1,38
 369 476 369 476 372 486 c 128,-1,39
 375 496 375 496 383.5 496 c 128,-1,40
 392 496 392 496 392 490 c 2,41,-1
 392 488 l 1,42,43
 385 466 385 466 372 450 c 128,-1,44
 359 434 359 434 347 434 c 0,45,46
 316 434 316 434 300 473 c 128,-1,47
 284 512 284 512 284 566 c 128,-1,48
 284 620 284 620 292 673 c 1,49,-1
 286 673 l 1,50,51
 194 514 194 514 149 514 c 0,0,1
EndSplineSet
EndChar

StartChar: guillemotleft
Encoding: 171 171 108
Width: 685
GlyphClass: 2
Flags: W
LayerCount: 2
Fore
SplineSet
231 68 m 1,0,1
 40 290 40 290 40 305 c 0,2,3
 40 313 40 313 49 319 c 2,4,-1
 306 482 l 1,5,-1
 306 446 l 1,6,-1
 105 292 l 1,7,-1
 231 107 l 1,8,-1
 231 68 l 1,0,1
470 68 m 1,9,10
 279 290 279 290 279 305 c 0,11,12
 279 313 279 313 288 319 c 2,13,-1
 545 482 l 1,14,-1
 545 446 l 1,15,-1
 344 292 l 1,16,-1
 470 107 l 1,17,-1
 470 68 l 1,9,10
EndSplineSet
EndChar

StartChar: logicalnot
Encoding: 172 172 109
Width: 916
GlyphClass: 2
Flags: W
LayerCount: 2
Fore
SplineSet
758 428 m 0,0,1
 787 428 787 428 797.5 415.5 c 128,-1,2
 808 403 808 403 808 393.5 c 128,-1,3
 808 384 808 384 804 375 c 2,4,-1
 686 102 l 1,5,-1
 651 102 l 1,6,-1
 730 364 l 1,7,-1
 70 377 l 1,8,-1
 70 408 l 1,9,-1
 754 428 l 2,10,11
 756 428 756 428 758 428 c 0,0,1
EndSplineSet
EndChar

StartChar: uni00AD
Encoding: 173 173 110
Width: 556
GlyphClass: 2
Flags: W
LayerCount: 2
Fore
SplineSet
424 285 m 2,0,-1
 107 283 l 2,1,2
 96 283 96 283 96 291 c 0,3,4
 96 307 96 307 128 313 c 0,5,6
 136 314 136 314 146 314 c 2,7,-1
 456 305 l 2,8,9
 466 305 466 305 466 300 c 0,10,11
 466 286 466 286 424 285 c 2,0,-1
EndSplineSet
EndChar

StartChar: registered
Encoding: 174 174 111
Width: 505
GlyphClass: 2
Flags: W
LayerCount: 2
Fore
SplineSet
276.5 868 m 128,-1,1
 344 868 344 868 384.5 824 c 128,-1,2
 425 780 425 780 425 723 c 0,3,4
 425 645 425 645 368 593.5 c 128,-1,5
 311 542 311 542 243.5 542 c 128,-1,6
 176 542 176 542 136.5 586 c 128,-1,7
 97 630 97 630 97 686 c 0,8,9
 97 765 97 765 153 816.5 c 128,-1,0
 209 868 209 868 276.5 868 c 128,-1,1
311 765 m 0,10,11
 322 786 322 786 322 800 c 128,-1,12
 322 814 322 814 310 814 c 0,13,14
 278 814 278 814 243.5 727.5 c 128,-1,15
 209 641 209 641 209 621 c 0,16,17
 209 617 209 617 205 617 c 0,18,19
 194 617 194 617 194 638 c 0,20,21
 194 692 194 692 204 740.5 c 128,-1,22
 214 789 214 789 230 807 c 1,23,24
 204 802 204 802 182 788.5 c 128,-1,25
 160 775 160 775 160 755 c 0,26,27
 160 749 160 749 165 749 c 1,28,29
 164 742 164 742 158 742 c 0,30,31
 145 742 145 742 145 761.5 c 128,-1,32
 145 781 145 781 181.5 798 c 128,-1,33
 218 815 218 815 245 815 c 0,34,35
 249 815 249 815 249 811 c 1,36,37
 235 776 235 776 219 699 c 1,38,-1
 222 699 l 1,39,40
 266 824 266 824 311 824 c 0,41,42
 343 824 343 824 343 791 c 128,-1,43
 343 758 343 758 309 731 c 0,44,45
 293 718 293 718 274 714 c 1,46,47
 285 714 285 714 296 686 c 128,-1,48
 307 658 307 658 318 625 c 128,-1,49
 329 592 329 592 337 584 c 1,50,51
 412 636 412 636 412 721 c 0,52,53
 412 773 412 773 375 814 c 128,-1,54
 338 855 338 855 275.5 855 c 128,-1,55
 213 855 213 855 166 812 c 0,56,57
 110 761 110 761 110 687 c 0,58,59
 110 636 110 636 146 595.5 c 128,-1,60
 182 555 182 555 244 555 c 0,61,62
 285 555 285 555 324 576 c 1,63,64
 304 589 304 589 283.5 648 c 128,-1,65
 263 707 263 707 257 712 c 1,66,67
 250 712 250 712 250 718 c 2,68,-1
 250 721 l 1,69,70
 287 721 287 721 311 765 c 0,10,11
EndSplineSet
EndChar

StartChar: degree
Encoding: 176 176 112
Width: 398
GlyphClass: 2
Flags: W
LayerCount: 2
Fore
SplineSet
134.5 722 m 128,-1,1
 164 752 164 752 208.5 752 c 128,-1,2
 253 752 253 752 283 722.5 c 128,-1,3
 313 693 313 693 313 649.5 c 128,-1,4
 313 606 313 606 283 576 c 128,-1,5
 253 546 253 546 208.5 546 c 128,-1,6
 164 546 164 546 134.5 576 c 128,-1,7
 105 606 105 606 105 649 c 128,-1,0
 105 692 105 692 134.5 722 c 128,-1,1
207 580 m 128,-1,9
 236 580 236 580 257 600.5 c 128,-1,10
 278 621 278 621 278 650 c 128,-1,11
 278 679 278 679 257 699.5 c 128,-1,12
 236 720 236 720 207 720 c 128,-1,13
 178 720 178 720 157.5 699.5 c 128,-1,14
 137 679 137 679 137 650 c 128,-1,15
 137 621 137 621 157.5 600.5 c 128,-1,8
 178 580 178 580 207 580 c 128,-1,9
EndSplineSet
EndChar

StartChar: plusminus
Encoding: 177 177 113
Width: 655
GlyphClass: 2
Flags: W
LayerCount: 2
Fore
SplineSet
280 232 m 0,0,1
 261 232 261 232 261 272 c 0,2,3
 261 296 261 296 268 334 c 1,4,5
 169 331 169 331 108 331 c 0,6,7
 77 331 77 331 71 353 c 1,8,9
 71 357 71 357 71 363.5 c 128,-1,10
 71 370 71 370 80 373 c 0,11,12
 82 374 82 374 84 374 c 1,13,14
 89 367 89 367 108 367 c 2,15,-1
 274 367 l 1,16,17
 290 436 290 436 315.5 490 c 128,-1,18
 341 544 341 544 361 544 c 0,19,20
 374 544 374 544 374 531 c 1,21,22
 352 483 352 483 320 367 c 1,23,-1
 495 367 l 2,24,25
 505 367 505 367 504 356 c 1,26,27
 501 341 501 341 476.5 340.5 c 128,-1,28
 452 340 452 340 312 336 c 1,29,-1
 292 243 l 1,30,31
 292 232 292 232 280 232 c 0,0,1
481 172 m 2,32,-1
 108 163 l 2,33,34
 77 163 77 163 71 185 c 1,35,36
 71 189 71 189 71 196 c 0,37,38
 71 204 71 204 84 206 c 1,39,40
 89 199 89 199 108 199 c 2,41,-1
 495 199 l 2,42,43
 504 199 504 199 504 190 c 0,44,45
 504 172 504 172 481 172 c 2,32,-1
EndSplineSet
EndChar

StartChar: twosuperior
Encoding: 178 178 114
Width: 313
GlyphClass: 2
Flags: W
LayerCount: 2
Fore
SplineSet
132 806 m 0,0,1
 121 788 121 788 121 776.5 c 128,-1,2
 121 765 121 765 132 765 c 1,3,4
 128 736 128 736 107.5 736 c 128,-1,5
 87 736 87 736 87 757 c 0,6,7
 87 763 87 763 88 771 c 0,8,9
 97 815 97 815 135 843.5 c 128,-1,10
 173 872 173 872 211 872 c 0,11,12
 287 872 287 872 287 809 c 0,13,14
 287 760 287 760 225.5 693 c 128,-1,15
 164 626 164 626 100 584 c 1,16,17
 211 575 211 575 219.5 575 c 128,-1,18
 228 575 228 575 238 578 c 128,-1,19
 248 581 248 581 254 584 c 1,20,21
 264 592 264 592 268 602 c 1,22,23
 278 602 278 602 276 583 c 0,24,25
 273 550 273 550 238 538 c 0,26,27
 225 534 225 534 199.5 534 c 128,-1,28
 174 534 174 534 122.5 548.5 c 128,-1,29
 71 563 71 563 56 563 c 0,30,31
 52 563 52 563 52 574.5 c 128,-1,32
 52 586 52 586 56 586 c 0,33,34
 73 586 73 586 117 627 c 128,-1,35
 161 668 161 668 199.5 724.5 c 128,-1,36
 238 781 238 781 238 816 c 0,37,38
 238 848 238 848 198 848 c 128,-1,39
 158 848 158 848 132 806 c 0,0,1
EndSplineSet
EndChar

StartChar: threesuperior
Encoding: 179 179 115
Width: 326
GlyphClass: 2
Flags: W
LayerCount: 2
Fore
SplineSet
198 712 m 1,0,1
 269 692 269 692 269 620 c 0,2,3
 269 573 269 573 227 527 c 128,-1,4
 185 481 185 481 113 481 c 0,5,6
 85 481 85 481 66 489 c 0,7,8
 32 503 32 503 32 522 c 0,9,10
 32 531 32 531 38.5 538.5 c 128,-1,11
 45 546 45 546 58 552 c 1,12,13
 58 501 58 501 113 501 c 128,-1,14
 168 501 168 501 197 550 c 0,15,16
 216 582 216 582 216 607 c 0,17,18
 216 700 216 700 138 700 c 1,19,20
 139 718 139 718 154 718 c 0,21,22
 178 718 178 718 207 752.5 c 128,-1,23
 236 787 236 787 236 821 c 0,24,25
 236 849 236 849 200 849 c 128,-1,26
 164 849 164 849 145 817 c 0,27,28
 132 794 132 794 145 787 c 0,29,30
 148 786 148 786 151 786 c 1,31,32
 146 763 146 763 125 763 c 128,-1,33
 104 763 104 763 104 783 c 0,34,35
 104 821 104 821 150 851 c 0,36,37
 180 871 180 871 215 871 c 0,38,39
 284 871 284 871 284 817 c 0,40,41
 284 779 284 779 245 742 c 0,42,43
 224 723 224 723 198 712 c 1,0,1
EndSplineSet
EndChar

StartChar: acute
Encoding: 180 180 116
Width: 500
GlyphClass: 2
Flags: W
LayerCount: 2
Fore
SplineSet
429 734 m 1,0,1
 396 694 396 694 354.5 656.5 c 128,-1,2
 313 619 313 619 302.5 619 c 128,-1,3
 292 619 292 619 292 630 c 128,-1,4
 292 641 292 641 317.5 682 c 128,-1,5
 343 723 343 723 378 762 c 0,6,7
 392 779 392 779 404 779 c 128,-1,8
 416 779 416 779 426 773.5 c 128,-1,9
 436 768 436 768 436 757.5 c 128,-1,10
 436 747 436 747 429 734 c 1,0,1
EndSplineSet
EndChar

StartChar: mu
Encoding: 181 181 117
Width: 534
GlyphClass: 2
Flags: W
LayerCount: 2
Fore
SplineSet
-31 -324 m 0,0,1
 -90 -324 -90 -324 -90 -207 c 0,2,3
 -90 -91 -90 -91 -16 173 c 0,4,5
 87 545 87 545 165 545 c 0,6,7
 185 545 185 545 185 520 c 1,8,9
 143 418 143 418 107 288.5 c 128,-1,10
 71 159 71 159 71 101.5 c 128,-1,11
 71 44 71 44 98 44 c 128,-1,12
 125 44 125 44 182 124 c 0,13,14
 275 257 275 257 360 442 c 0,15,16
 407 545 407 545 452 545 c 0,17,18
 474 545 474 545 474 520 c 1,19,20
 444 476 444 476 403 327 c 128,-1,21
 362 178 362 178 362 88 c 128,-1,22
 362 -2 362 -2 398 -2 c 0,23,24
 412 -2 412 -2 424 10 c 128,-1,25
 436 22 436 22 440 34 c 2,26,-1
 445 46 l 1,27,28
 447 56 447 56 456 56 c 0,29,30
 471 56 471 56 470 48 c 1,31,32
 468 42 468 42 458 21 c 128,-1,33
 448 0 448 0 440 -12 c 0,34,35
 419 -42 419 -42 394 -42 c 0,36,37
 296 -42 296 -42 296 141 c 0,38,39
 296 185 296 185 306 244 c 1,40,-1
 297 244 l 1,41,42
 159 4 159 4 86 4 c 0,43,44
 28 4 28 4 9 69 c 1,45,46
 -23 -84 -23 -84 -23 -189 c 128,-1,47
 -23 -294 -23 -294 10 -294 c 1,48,49
 10 -305 10 -305 -2 -314.5 c 128,-1,50
 -14 -324 -14 -324 -31 -324 c 0,0,1
EndSplineSet
EndChar

StartChar: paragraph
Encoding: 182 182 118
Width: 784
GlyphClass: 2
Flags: W
LayerCount: 2
Fore
SplineSet
231 -113 m 0,0,1
 82 -113 82 -113 29 -23 c 0,2,3
 7 14 7 14 7 47.5 c 128,-1,4
 7 81 7 81 19 110 c 0,5,6
 42 171 42 171 96 185 c 0,7,8
 109 188 109 188 121 188 c 0,9,10
 144 188 144 188 152 173 c 1,11,-1
 154 168 l 1,12,13
 105 168 105 168 77 114 c 0,14,15
 60 82 60 82 60 52.5 c 128,-1,16
 60 23 60 23 71 -3 c 1,17,18
 111 -83 111 -83 231 -85 c 1,19,20
 320 -85 320 -85 382 -38 c 128,-1,21
 444 9 444 9 474.5 82 c 128,-1,22
 505 155 505 155 527 250.5 c 128,-1,23
 549 346 549 346 559.5 434 c 128,-1,24
 570 522 570 522 590.5 609.5 c 128,-1,25
 611 697 611 697 640 745 c 1,26,27
 564 775 564 775 515 775 c 0,28,29
 408 775 408 775 336 669 c 0,30,31
 275 579 275 579 275 475.5 c 128,-1,32
 275 372 275 372 338 338 c 0,33,34
 362 326 362 326 392 326 c 1,35,36
 389 309 389 309 367 309 c 0,37,38
 257 309 257 309 211 401 c 0,39,40
 187 449 187 449 187 497.5 c 128,-1,41
 187 546 187 546 201 591 c 0,42,43
 235 706 235 706 334 762 c 0,44,45
 470 838 470 838 655 765 c 1,46,47
 657 768 657 768 663 774 c 1,48,49
 700 914 700 914 770 914 c 0,50,51
 785 914 785 914 790 900 c 1,52,-1
 791 896 l 1,53,54
 732 896 732 896 699 803 c 1,55,56
 725 817 725 817 759 817 c 0,57,58
 811 817 811 817 822 782 c 0,59,60
 824 775 824 775 824 768 c 0,61,62
 824 746 824 746 802 730 c 128,-1,63
 780 714 780 714 750 714 c 128,-1,64
 720 714 720 714 680 729 c 1,65,66
 660 627 660 627 650.5 475 c 128,-1,67
 641 323 641 323 631 236.5 c 128,-1,68
 621 150 621 150 607 88.5 c 128,-1,69
 593 27 593 27 564.5 -13 c 128,-1,70
 536 -53 536 -53 496 -53 c 0,71,72
 484 -53 484 -53 479.5 -45.5 c 128,-1,73
 475 -38 475 -38 478 -24 c 1,74,75
 547 -24 547 -24 578 148 c 1,76,77
 595 248 595 248 613.5 433 c 128,-1,78
 632 618 632 618 644 687 c 1,79,80
 617 615 617 615 588 423 c 0,81,82
 578 352 578 352 563.5 272.5 c 128,-1,83
 549 193 549 193 524 126 c 128,-1,84
 499 59 499 59 463 4 c 128,-1,85
 427 -51 427 -51 368 -82 c 128,-1,86
 309 -113 309 -113 231 -113 c 0,0,1
760 793 m 0,87,88
 716 793 716 793 687 761 c 1,89,-1
 685 752 l 1,90,91
 724 738 724 738 748 738 c 0,92,93
 788 738 788 738 796 762 c 0,94,95
 798 766 798 766 798 770 c 0,96,97
 798 783 798 783 780 790 c 0,98,99
 771 793 771 793 760 793 c 0,87,88
EndSplineSet
EndChar

StartChar: periodcentered
Encoding: 183 183 119
Width: 339
GlyphClass: 2
Flags: W
LayerCount: 2
Fore
SplineSet
138 270 m 1,0,1
 115 270 115 270 115 315 c 0,2,3
 115 342 115 342 129 372 c 128,-1,4
 143 402 143 402 170 402 c 0,5,6
 193 402 193 402 193 376 c 0,7,8
 193 363 193 363 179.5 336.5 c 128,-1,9
 166 310 166 310 152 290 c 2,10,-1
 138 270 l 1,0,1
EndSplineSet
EndChar

StartChar: cedilla
Encoding: 184 184 120
Width: 285
GlyphClass: 2
Flags: W
LayerCount: 2
Fore
SplineSet
163 -172 m 0,0,1
 176 -152 176 -152 176 -136.5 c 128,-1,2
 176 -121 176 -121 166 -108 c 128,-1,3
 156 -95 156 -95 128 -95 c 128,-1,4
 100 -95 100 -95 62 -114 c 1,5,-1
 60 -114 l 2,6,7
 50 -114 50 -114 50 -104 c 0,8,9
 50 -79 50 -79 107 3 c 1,10,-1
 132 3 l 1,11,-1
 80 -89 l 1,12,13
 108 -74 108 -74 146 -74 c 0,14,15
 201 -74 201 -74 213 -115 c 0,16,17
 215 -124 215 -124 215 -133 c 0,18,19
 215 -164 215 -164 186 -193 c 0,20,21
 144 -235 144 -235 69 -235 c 0,22,23
 11 -235 11 -235 4 -200 c 0,24,25
 3 -196 3 -196 3 -191 c 0,26,27
 3 -176 3 -176 17 -167 c 0,28,29
 22 -164 22 -164 29 -164 c 0,30,31
 41 -164 41 -164 44 -174 c 2,32,-1
 45 -178 l 1,33,34
 30 -178 30 -178 27 -195 c 128,-1,35
 24 -212 24 -212 50 -218 c 0,36,37
 57 -220 57 -220 66 -220 c 0,38,39
 132 -220 132 -220 163 -172 c 0,0,1
EndSplineSet
EndChar

StartChar: onesuperior
Encoding: 185 185 121
Width: 274
GlyphClass: 2
Flags: W
LayerCount: 2
Fore
SplineSet
232 869 m 0,0,1
 240 869 240 869 240 861 c 1,2,3
 212 841 212 841 192 720.5 c 128,-1,4
 172 600 172 600 172 536 c 0,5,6
 172 529 172 529 165 529 c 0,7,8
 140 529 140 529 140 571 c 0,9,10
 140 659 140 659 156 736.5 c 128,-1,11
 172 814 172 814 198 848 c 1,12,13
 153 832 153 832 117.5 789 c 128,-1,14
 82 746 82 746 82 704 c 0,15,16
 82 681 82 681 102 681 c 1,17,-1
 102 680 l 2,18,19
 102 664 102 664 83.5 664 c 128,-1,20
 65 664 65 664 55 677 c 128,-1,21
 45 690 45 690 45 708 c 0,22,23
 45 762 45 762 108.5 815.5 c 128,-1,24
 172 869 172 869 232 869 c 0,0,1
EndSplineSet
EndChar

StartChar: ordmasculine
Encoding: 186 186 122
Width: 349
GlyphClass: 2
Flags: W
LayerCount: 2
Fore
SplineSet
125 509 m 0,0,1
 39 509 39 509 39 626 c 0,2,3
 39 689 39 689 72 752 c 0,4,5
 113 833 113 833 171 833 c 0,6,7
 182 833 182 833 188 828 c 128,-1,8
 194 823 194 823 195 813 c 1,9,10
 154 813 154 813 123.5 746.5 c 128,-1,11
 93 680 93 680 93 609 c 128,-1,12
 93 538 93 538 135 538 c 0,13,14
 173 538 173 538 210 619.5 c 128,-1,15
 247 701 247 701 247 794 c 2,16,-1
 247 803 l 1,17,18
 227 816 227 816 214 835.5 c 128,-1,19
 201 855 201 855 201 864.5 c 128,-1,20
 201 874 201 874 209 882 c 128,-1,21
 217 890 217 890 229 890 c 128,-1,22
 241 890 241 890 252.5 867.5 c 128,-1,23
 264 845 264 845 269 816 c 1,24,25
 286 805 286 805 305 805 c 1,26,-1
 326 810 l 1,27,28
 326 785 326 785 303 785 c 0,29,30
 288 785 288 785 271 790 c 1,31,32
 269 690 269 690 226 599.5 c 128,-1,33
 183 509 183 509 125 509 c 0,0,1
EndSplineSet
EndChar

StartChar: guillemotright
Encoding: 187 187 123
Width: 649
GlyphClass: 2
Flags: W
LayerCount: 2
Fore
SplineSet
370 482 m 1,0,1
 561 260 561 260 561 245 c 0,2,3
 561 237 561 237 552 231 c 2,4,-1
 295 68 l 1,5,-1
 295 104 l 1,6,-1
 496 258 l 1,7,-1
 370 443 l 1,8,-1
 370 482 l 1,0,1
131 482 m 1,9,10
 322 260 322 260 322 245 c 0,11,12
 322 237 322 237 313 231 c 2,13,-1
 56 68 l 1,14,-1
 56 104 l 1,15,-1
 257 258 l 1,16,-1
 131 443 l 1,17,-1
 131 482 l 1,9,10
EndSplineSet
EndChar

StartChar: onequarter
Encoding: 188 188 124
Width: 1110
GlyphClass: 2
Flags: W
LayerCount: 2
Fore
SplineSet
931 218 m 0,0,1
 960 218 960 218 960 179.5 c 128,-1,2
 960 141 960 141 925 108.5 c 128,-1,3
 890 76 890 76 822 73 c 1,4,5
 811 -6 811 -6 811 -54 c 0,6,7
 811 -65 811 -65 799 -65 c 0,8,9
 767 -65 767 -65 767 3 c 0,10,11
 767 49 767 49 768 73 c 1,12,13
 700 76 700 76 592 89 c 1,14,15
 572 78 572 78 548 78 c 0,16,17
 503 78 503 78 499 100 c 0,18,19
 496 117 496 117 521 126 c 0,20,21
 531 129 531 129 544 129 c 2,22,-1
 555 129 l 1,23,24
 612 192 612 192 636 382 c 0,25,26
 639 411 639 411 639 434 c 0,27,28
 639 486 639 486 625 486 c 1,29,-1
 625 492 l 2,30,31
 625 495 625 495 630 500.5 c 128,-1,32
 635 506 635 506 646 506 c 0,33,34
 676 506 676 506 688 432 c 0,35,36
 693 400 693 400 693 359 c 128,-1,37
 693 318 693 318 684 264 c 0,38,39
 669 170 669 170 628 119 c 1,40,41
 732 103 732 103 770 102 c 1,42,43
 783 285 783 285 833 369 c 0,44,45
 862 418 862 418 902 418 c 0,46,47
 916 418 916 418 916 405 c 1,48,49
 864 335 864 335 826 102 c 1,50,51
 893 108 893 108 911 157 c 0,52,53
 916 169 916 169 916 179 c 128,-1,54
 916 189 916 189 911.5 192.5 c 128,-1,55
 907 196 907 196 904 196 c 1,56,57
 908 218 908 218 931 218 c 0,0,1
354 801 m 0,58,59
 374 801 374 801 374 788 c 1,60,61
 329 737 329 737 289.5 547.5 c 128,-1,62
 250 358 250 358 250 268 c 0,63,64
 250 257 250 257 238 257 c 0,65,66
 207 257 207 257 207 324 c 0,67,68
 207 465 207 465 232.5 589 c 128,-1,69
 258 713 258 713 300 768 c 1,70,71
 231 741 231 741 172.5 671 c 128,-1,72
 114 601 114 601 114 536 c 0,73,74
 114 499 114 499 136 499 c 1,75,76
 136 474 136 474 112 474 c 128,-1,77
 88 474 88 474 74.5 493.5 c 128,-1,78
 61 513 61 513 61 543 c 0,79,80
 61 598 61 598 113 660 c 128,-1,81
 165 722 165 722 234.5 761.5 c 128,-1,82
 304 801 304 801 354 801 c 0,58,59
213 -100 m 0,83,84
 201 -100 201 -100 201 -84 c 0,85,86
 201 -63 201 -63 228 -7 c 128,-1,87
 255 49 255 49 417 404.5 c 128,-1,88
 579 760 579 760 593 789 c 1,89,90
 607 814 607 814 626.5 814 c 128,-1,91
 646 814 646 814 646 785 c 0,92,93
 646 752 646 752 625.5 711 c 128,-1,94
 605 670 605 670 517 496 c 0,95,96
 280 26 280 26 231 -82 c 0,97,98
 222 -100 222 -100 213 -100 c 0,83,84
EndSplineSet
EndChar

StartChar: onehalf
Encoding: 189 189 125
Width: 1040
GlyphClass: 2
Flags: W
LayerCount: 2
Fore
SplineSet
774 -11 m 128,-1,1
 840 -11 840 -11 860 34 c 1,2,3
 874 34 874 34 873 9 c 0,4,5
 871 -31 871 -31 831 -55 c 1,6,7
 769 -89 769 -89 620 -48 c 0,8,9
 536 -24 536 -24 511 -24 c 0,10,11
 507 -24 507 -24 506 -18 c 128,-1,12
 505 -12 505 -12 507 -5.5 c 128,-1,13
 509 1 509 1 512 1 c 0,14,15
 535 1 535 1 608.5 72 c 128,-1,16
 682 143 682 143 749.5 239.5 c 128,-1,17
 817 336 817 336 817 392 c 0,18,19
 817 452 817 452 748 452 c 128,-1,20
 679 452 679 452 636 386 c 0,21,22
 613 350 613 350 613 323.5 c 128,-1,23
 613 297 613 297 631 297 c 1,24,25
 631 282 631 282 621 270 c 128,-1,26
 611 258 611 258 595 258 c 0,27,28
 561 258 561 258 561 296 c 0,29,30
 561 354 561 354 621.5 419 c 128,-1,31
 682 484 682 484 767 484 c 0,32,33
 890 484 890 484 890 381 c 0,34,35
 890 323 890 323 830 242 c 128,-1,36
 770 161 770 161 698 98.5 c 128,-1,37
 626 36 626 36 565 0 c 1,38,0
 708 -11 708 -11 774 -11 c 128,-1,1
354 801 m 0,39,40
 374 801 374 801 374 788 c 1,41,42
 329 737 329 737 289.5 547.5 c 128,-1,43
 250 358 250 358 250 268 c 0,44,45
 250 257 250 257 238 257 c 0,46,47
 207 257 207 257 207 324 c 0,48,49
 207 465 207 465 232.5 589 c 128,-1,50
 258 713 258 713 300 768 c 1,51,52
 231 741 231 741 172.5 671 c 128,-1,53
 114 601 114 601 114 536 c 0,54,55
 114 499 114 499 136 499 c 1,56,57
 136 474 136 474 112 474 c 128,-1,58
 88 474 88 474 74.5 493.5 c 128,-1,59
 61 513 61 513 61 543 c 0,60,61
 61 598 61 598 113 660 c 128,-1,62
 165 722 165 722 234.5 761.5 c 128,-1,63
 304 801 304 801 354 801 c 0,39,40
213 -100 m 0,64,65
 201 -100 201 -100 201 -84 c 0,66,67
 201 -63 201 -63 228 -7 c 128,-1,68
 255 49 255 49 417 404.5 c 128,-1,69
 579 760 579 760 593 789 c 1,70,71
 607 814 607 814 626.5 814 c 128,-1,72
 646 814 646 814 646 785 c 0,73,74
 646 752 646 752 625.5 711 c 128,-1,75
 605 670 605 670 517 496 c 0,76,77
 280 26 280 26 231 -82 c 0,78,79
 222 -100 222 -100 213 -100 c 0,64,65
EndSplineSet
EndChar

StartChar: threequarters
Encoding: 190 190 126
Width: 1160
GlyphClass: 2
Flags: W
LayerCount: 2
Fore
SplineSet
981 218 m 0,0,1
 1010 218 1010 218 1010 179.5 c 128,-1,2
 1010 141 1010 141 975 108.5 c 128,-1,3
 940 76 940 76 872 73 c 1,4,5
 861 -6 861 -6 861 -54 c 0,6,7
 861 -65 861 -65 849 -65 c 0,8,9
 817 -65 817 -65 817 3 c 0,10,11
 817 49 817 49 818 73 c 1,12,13
 750 76 750 76 642 89 c 1,14,15
 622 78 622 78 598 78 c 0,16,17
 553 78 553 78 549 100 c 0,18,19
 546 117 546 117 571 126 c 0,20,21
 581 129 581 129 594 129 c 2,22,-1
 605 129 l 1,23,24
 662 192 662 192 686 382 c 0,25,26
 689 411 689 411 689 434 c 0,27,28
 689 486 689 486 675 486 c 1,29,-1
 675 492 l 2,30,31
 675 495 675 495 680 500.5 c 128,-1,32
 685 506 685 506 696 506 c 0,33,34
 726 506 726 506 738 432 c 0,35,36
 743 400 743 400 743 359 c 128,-1,37
 743 318 743 318 734 264 c 0,38,39
 719 170 719 170 678 119 c 1,40,41
 782 103 782 103 820 102 c 1,42,43
 833 285 833 285 883 369 c 0,44,45
 912 418 912 418 952 418 c 0,46,47
 966 418 966 418 966 405 c 1,48,49
 914 335 914 335 876 102 c 1,50,51
 943 108 943 108 961 157 c 0,52,53
 966 169 966 169 966 179 c 128,-1,54
 966 189 966 189 961.5 192.5 c 128,-1,55
 957 196 957 196 954 196 c 1,56,57
 958 218 958 218 981 218 c 0,0,1
249 563 m 1,58,59
 358 534 358 534 358 425 c 0,60,61
 358 355 358 355 300 292 c 0,62,63
 232 217 232 217 122 217 c 0,64,65
 62 217 62 217 31.5 238 c 128,-1,66
 1 259 1 259 1 280 c 0,67,68
 1 291 1 291 9 300.5 c 128,-1,69
 17 310 17 310 34 319 c 1,70,71
 34 292 34 292 54 267.5 c 128,-1,72
 74 243 74 243 122 243 c 0,73,74
 209 243 209 243 257 319 c 0,75,76
 286 366 286 366 286 415 c 0,77,78
 286 435 286 435 282 455 c 0,79,80
 265 525 265 525 196 541 c 0,81,82
 179 545 179 545 159 545 c 1,83,84
 162 571 162 571 184 571 c 0,85,86
 221 571 221 571 268 623.5 c 128,-1,87
 315 676 315 676 315 727 c 0,88,89
 315 771 315 771 257 771 c 128,-1,90
 199 771 199 771 170 723 c 0,91,92
 159 705 159 705 159 692 c 0,93,94
 159 674 159 674 176 673 c 1,95,96
 176 660 176 660 166 647 c 128,-1,97
 156 634 156 634 144 634 c 0,98,99
 107 634 107 634 107 673.5 c 128,-1,100
 107 713 107 713 153.5 757.5 c 128,-1,101
 200 802 200 802 281.5 802 c 128,-1,102
 363 802 363 802 377 742 c 0,103,104
 380 732 380 732 380 720 c 0,105,106
 380 677 380 677 341 631 c 128,-1,107
 302 585 302 585 249 563 c 1,58,59
263 -100 m 0,108,109
 251 -100 251 -100 251 -84 c 0,110,111
 251 -63 251 -63 278 -7 c 128,-1,112
 305 49 305 49 467 404.5 c 128,-1,113
 629 760 629 760 643 789 c 1,114,115
 657 814 657 814 676.5 814 c 128,-1,116
 696 814 696 814 696 785 c 0,117,118
 696 752 696 752 675.5 711 c 128,-1,119
 655 670 655 670 567 496 c 0,120,121
 330 26 330 26 281 -82 c 0,122,123
 272 -100 272 -100 263 -100 c 0,108,109
EndSplineSet
EndChar

StartChar: questiondown
Encoding: 191 191 127
Width: 553
GlyphClass: 2
Flags: W
LayerCount: 2
Fore
SplineSet
332 -217 m 0,0,1
 370 -163 370 -163 370 -124.5 c 128,-1,2
 370 -86 370 -86 348 -86 c 1,3,4
 348 -68 348 -68 359.5 -53 c 128,-1,5
 371 -38 371 -38 390 -38 c 0,6,7
 434 -38 434 -38 434 -89 c 0,8,9
 434 -152 434 -152 377 -224 c 0,10,11
 287 -337 287 -337 159 -337 c 0,12,13
 82 -337 82 -337 42 -299 c 128,-1,14
 2 -261 2 -261 2 -200 c 128,-1,15
 2 -139 2 -139 39.5 -75.5 c 128,-1,16
 77 -12 77 -12 130.5 40.5 c 128,-1,17
 184 93 184 93 237 142 c 0,18,19
 365 260 365 260 365 321 c 0,20,21
 365 333 365 333 384.5 333.5 c 128,-1,22
 404 334 404 334 404 321 c 0,23,24
 404 257 404 257 291 128 c 0,25,26
 244 75 244 75 197.5 19 c 128,-1,27
 151 -37 151 -37 118 -99 c 128,-1,28
 85 -161 85 -161 85 -214 c 0,29,30
 85 -301 85 -301 178 -301 c 128,-1,31
 271 -301 271 -301 332 -217 c 0,0,1
403 544 m 128,-1,33
 430 544 430 544 430 518 c 0,34,35
 430 494 430 494 404 432 c 1,36,-1
 396 412 l 1,37,38
 377 412 377 412 367 445 c 0,39,40
 362 462 362 462 362 478.5 c 128,-1,41
 362 495 362 495 366 511 c 0,42,32
 376 544 376 544 403 544 c 128,-1,33
EndSplineSet
EndChar

StartChar: Agrave
Encoding: 192 192 128
Width: 1188
GlyphClass: 2
Flags: W
LayerCount: 2
Fore
SplineSet
1080 1129 m 1,0,1
 1121 1090 1121 1090 1159 1044 c 128,-1,2
 1197 998 1197 998 1197 987.5 c 128,-1,3
 1197 977 1197 977 1185 977 c 128,-1,4
 1173 977 1173 977 1132.5 1006 c 128,-1,5
 1092 1035 1092 1035 1049 1077 c 0,6,7
 1032 1093 1032 1093 1032 1104.5 c 128,-1,8
 1032 1116 1032 1116 1039 1127.5 c 128,-1,9
 1046 1139 1046 1139 1057 1139 c 128,-1,10
 1068 1139 1068 1139 1080 1129 c 1,0,1
415 -16 m 1,11,12
 361 37 361 37 361 144 c 0,13,14
 361 229 361 229 394 304 c 128,-1,15
 427 379 427 379 469.5 430 c 128,-1,16
 512 481 512 481 576 513.5 c 128,-1,17
 640 546 640 546 712 546 c 0,18,19
 753 546 753 546 794 533 c 1,20,21
 891 692 891 692 984 792 c 1,22,23
 1090 903 1090 903 1207 903 c 0,24,25
 1225 903 1225 903 1225 885 c 1,26,27
 1150 723 1150 723 1110.5 556 c 128,-1,28
 1071 389 1071 389 1049 233 c 128,-1,29
 1027 77 1027 77 1027 -32 c 0,30,31
 1027 -47 1027 -47 1011 -47 c 0,32,33
 972 -47 972 -47 972 43 c 0,34,35
 972 155 972 155 946 273 c 0,36,37
 931 341 931 341 897 396.5 c 128,-1,38
 863 452 863 452 814 480 c 1,39,40
 800 454 800 454 767 389.5 c 128,-1,41
 734 325 734 325 717 293 c 128,-1,42
 700 261 700 261 668.5 206.5 c 128,-1,43
 637 152 637 152 614 118 c 0,44,45
 555 30 555 30 497 -25 c 1,46,47
 508 -28 508 -28 524 -28 c 0,48,49
 618 -28 618 -28 679.5 34.5 c 128,-1,50
 741 97 741 97 765 182 c 0,51,52
 768 194 768 194 782 193 c 0,53,54
 792 192 792 192 790 184 c 0,55,56
 766 87 766 87 696.5 15 c 128,-1,57
 627 -57 627 -57 523 -57 c 0,58,59
 496 -57 496 -57 470 -49 c 1,60,61
 367 -133 367 -133 249 -133 c 0,62,63
 101 -133 101 -133 36 -17 c 0,64,65
 -17 78 -17 78 7 195 c 128,-1,66
 31 312 31 312 109 366 c 0,67,68
 154 397 154 397 210 397 c 0,69,70
 226 397 226 397 236 387 c 128,-1,71
 246 377 246 377 250 357 c 1,72,73
 184 357 184 357 131 310.5 c 128,-1,74
 78 264 78 264 60.5 203.5 c 128,-1,75
 43 143 43 143 43 90 c 0,76,77
 43 77 43 77 44 65 c 0,78,79
 48 -1 48 -1 98 -47.5 c 128,-1,80
 148 -94 148 -94 235 -94 c 128,-1,81
 322 -94 322 -94 415 -16 c 1,11,12
711 506 m 0,82,83
 647 506 647 506 591 477 c 128,-1,84
 535 448 535 448 497 402 c 128,-1,85
 459 356 459 356 433 299 c 0,86,87
 395 217 395 217 395 139 c 0,88,89
 395 50 395 50 439 5 c 1,90,91
 481 45 481 45 530 111.5 c 128,-1,92
 579 178 579 178 606 221 c 0,93,94
 639 273 639 273 772 498 c 1,95,96
 742 506 742 506 711 506 c 0,82,83
1148 859 m 1,97,98
 1059 836 1059 836 985.5 749 c 128,-1,99
 912 662 912 662 833 516 c 1,100,101
 943 456 943 456 985 277 c 1,102,103
 1006 468 1006 468 1051.5 628 c 128,-1,104
 1097 788 1097 788 1148 859 c 1,97,98
EndSplineSet
EndChar

StartChar: Aacute
Encoding: 193 193 129
Width: 1188
GlyphClass: 2
Flags: W
LayerCount: 2
Fore
SplineSet
1284 1076 m 1,0,1
 1251 1036 1251 1036 1209.5 998.5 c 128,-1,2
 1168 961 1168 961 1157.5 961 c 128,-1,3
 1147 961 1147 961 1147 972 c 128,-1,4
 1147 983 1147 983 1172.5 1024 c 128,-1,5
 1198 1065 1198 1065 1233 1104 c 0,6,7
 1247 1121 1247 1121 1259 1121 c 128,-1,8
 1271 1121 1271 1121 1281 1115.5 c 128,-1,9
 1291 1110 1291 1110 1291 1099.5 c 128,-1,10
 1291 1089 1291 1089 1284 1076 c 1,0,1
415 -16 m 1,11,12
 361 37 361 37 361 144 c 0,13,14
 361 229 361 229 394 304 c 128,-1,15
 427 379 427 379 469.5 430 c 128,-1,16
 512 481 512 481 576 513.5 c 128,-1,17
 640 546 640 546 712 546 c 0,18,19
 753 546 753 546 794 533 c 1,20,21
 891 692 891 692 984 792 c 1,22,23
 1090 903 1090 903 1207 903 c 0,24,25
 1225 903 1225 903 1225 885 c 1,26,27
 1150 723 1150 723 1110.5 556 c 128,-1,28
 1071 389 1071 389 1049 233 c 128,-1,29
 1027 77 1027 77 1027 -32 c 0,30,31
 1027 -47 1027 -47 1011 -47 c 0,32,33
 972 -47 972 -47 972 43 c 0,34,35
 972 155 972 155 946 273 c 0,36,37
 931 341 931 341 897 396.5 c 128,-1,38
 863 452 863 452 814 480 c 1,39,40
 800 454 800 454 767 389.5 c 128,-1,41
 734 325 734 325 717 293 c 128,-1,42
 700 261 700 261 668.5 206.5 c 128,-1,43
 637 152 637 152 614 118 c 0,44,45
 555 30 555 30 497 -25 c 1,46,47
 508 -28 508 -28 524 -28 c 0,48,49
 618 -28 618 -28 679.5 34.5 c 128,-1,50
 741 97 741 97 765 182 c 0,51,52
 768 194 768 194 782 193 c 0,53,54
 792 192 792 192 790 184 c 0,55,56
 766 87 766 87 696.5 15 c 128,-1,57
 627 -57 627 -57 523 -57 c 0,58,59
 496 -57 496 -57 470 -49 c 1,60,61
 367 -133 367 -133 249 -133 c 0,62,63
 101 -133 101 -133 36 -17 c 0,64,65
 -17 78 -17 78 7 195 c 128,-1,66
 31 312 31 312 109 366 c 0,67,68
 154 397 154 397 210 397 c 0,69,70
 226 397 226 397 236 387 c 128,-1,71
 246 377 246 377 250 357 c 1,72,73
 184 357 184 357 131 310.5 c 128,-1,74
 78 264 78 264 60.5 203.5 c 128,-1,75
 43 143 43 143 43 90 c 0,76,77
 43 77 43 77 44 65 c 0,78,79
 48 -1 48 -1 98 -47.5 c 128,-1,80
 148 -94 148 -94 235 -94 c 128,-1,81
 322 -94 322 -94 415 -16 c 1,11,12
711 506 m 0,82,83
 647 506 647 506 591 477 c 128,-1,84
 535 448 535 448 497 402 c 128,-1,85
 459 356 459 356 433 299 c 0,86,87
 395 217 395 217 395 139 c 0,88,89
 395 50 395 50 439 5 c 1,90,91
 481 45 481 45 530 111.5 c 128,-1,92
 579 178 579 178 606 221 c 0,93,94
 639 273 639 273 772 498 c 1,95,96
 742 506 742 506 711 506 c 0,82,83
1148 859 m 1,97,98
 1059 836 1059 836 985.5 749 c 128,-1,99
 912 662 912 662 833 516 c 1,100,101
 943 456 943 456 985 277 c 1,102,103
 1006 468 1006 468 1051.5 628 c 128,-1,104
 1097 788 1097 788 1148 859 c 1,97,98
EndSplineSet
EndChar

StartChar: Acircumflex
Encoding: 194 194 130
Width: 1188
GlyphClass: 2
Flags: W
LayerCount: 2
Fore
SplineSet
1190.5 1094 m 128,-1,1
 1200 1094 1200 1094 1204 1086 c 2,2,-1
 1271 954 l 1,3,-1
 1239 954 l 1,4,-1
 1188 1040 l 1,5,-1
 1042 954 l 1,6,-1
 1009 954 l 1,7,8
 1117 1044 1117 1044 1171 1086 c 0,9,0
 1181 1094 1181 1094 1190.5 1094 c 128,-1,1
415 -16 m 1,10,11
 361 37 361 37 361 144 c 0,12,13
 361 229 361 229 394 304 c 128,-1,14
 427 379 427 379 469.5 430 c 128,-1,15
 512 481 512 481 576 513.5 c 128,-1,16
 640 546 640 546 712 546 c 0,17,18
 753 546 753 546 794 533 c 1,19,20
 891 692 891 692 984 792 c 1,21,22
 1090 903 1090 903 1207 903 c 0,23,24
 1225 903 1225 903 1225 885 c 1,25,26
 1150 723 1150 723 1110.5 556 c 128,-1,27
 1071 389 1071 389 1049 233 c 128,-1,28
 1027 77 1027 77 1027 -32 c 0,29,30
 1027 -47 1027 -47 1011 -47 c 0,31,32
 972 -47 972 -47 972 43 c 0,33,34
 972 155 972 155 946 273 c 0,35,36
 931 341 931 341 897 396.5 c 128,-1,37
 863 452 863 452 814 480 c 1,38,39
 800 454 800 454 767 389.5 c 128,-1,40
 734 325 734 325 717 293 c 128,-1,41
 700 261 700 261 668.5 206.5 c 128,-1,42
 637 152 637 152 614 118 c 0,43,44
 555 30 555 30 497 -25 c 1,45,46
 508 -28 508 -28 524 -28 c 0,47,48
 618 -28 618 -28 679.5 34.5 c 128,-1,49
 741 97 741 97 765 182 c 0,50,51
 768 194 768 194 782 193 c 0,52,53
 792 192 792 192 790 184 c 0,54,55
 766 87 766 87 696.5 15 c 128,-1,56
 627 -57 627 -57 523 -57 c 0,57,58
 496 -57 496 -57 470 -49 c 1,59,60
 367 -133 367 -133 249 -133 c 0,61,62
 101 -133 101 -133 36 -17 c 0,63,64
 -17 78 -17 78 7 195 c 128,-1,65
 31 312 31 312 109 366 c 0,66,67
 154 397 154 397 210 397 c 0,68,69
 226 397 226 397 236 387 c 128,-1,70
 246 377 246 377 250 357 c 1,71,72
 184 357 184 357 131 310.5 c 128,-1,73
 78 264 78 264 60.5 203.5 c 128,-1,74
 43 143 43 143 43 90 c 0,75,76
 43 77 43 77 44 65 c 0,77,78
 48 -1 48 -1 98 -47.5 c 128,-1,79
 148 -94 148 -94 235 -94 c 128,-1,80
 322 -94 322 -94 415 -16 c 1,10,11
711 506 m 0,81,82
 647 506 647 506 591 477 c 128,-1,83
 535 448 535 448 497 402 c 128,-1,84
 459 356 459 356 433 299 c 0,85,86
 395 217 395 217 395 139 c 0,87,88
 395 50 395 50 439 5 c 1,89,90
 481 45 481 45 530 111.5 c 128,-1,91
 579 178 579 178 606 221 c 0,92,93
 639 273 639 273 772 498 c 1,94,95
 742 506 742 506 711 506 c 0,81,82
1148 859 m 1,96,97
 1059 836 1059 836 985.5 749 c 128,-1,98
 912 662 912 662 833 516 c 1,99,100
 943 456 943 456 985 277 c 1,101,102
 1006 468 1006 468 1051.5 628 c 128,-1,103
 1097 788 1097 788 1148 859 c 1,96,97
EndSplineSet
EndChar

StartChar: Atilde
Encoding: 195 195 131
Width: 1188
GlyphClass: 2
Flags: W
LayerCount: 2
Fore
SplineSet
1067 1053.5 m 128,-1,1
 1087 1063 1087 1063 1108 1063 c 128,-1,2
 1129 1063 1129 1063 1160 1036.5 c 128,-1,3
 1191 1010 1191 1010 1209 1010 c 128,-1,4
 1227 1010 1227 1010 1240 1020 c 128,-1,5
 1253 1030 1253 1030 1264 1050 c 1,6,-1
 1298 1050 l 1,7,8
 1270 994 1270 994 1227 972 c 0,9,10
 1209 962 1209 962 1188 962 c 128,-1,11
 1167 962 1167 962 1134 991.5 c 128,-1,12
 1101 1021 1101 1021 1086 1021 c 128,-1,13
 1071 1021 1071 1021 1057.5 1009.5 c 128,-1,14
 1044 998 1044 998 1038 986 c 1,15,-1
 1031 975 l 1,16,-1
 996 975 l 1,17,18
 998 982 998 982 1010.5 1001.5 c 128,-1,19
 1023 1021 1023 1021 1035 1032.5 c 128,-1,0
 1047 1044 1047 1044 1067 1053.5 c 128,-1,1
415 -16 m 1,20,21
 361 37 361 37 361 144 c 0,22,23
 361 229 361 229 394 304 c 128,-1,24
 427 379 427 379 469.5 430 c 128,-1,25
 512 481 512 481 576 513.5 c 128,-1,26
 640 546 640 546 712 546 c 0,27,28
 753 546 753 546 794 533 c 1,29,30
 891 692 891 692 984 792 c 1,31,32
 1090 903 1090 903 1207 903 c 0,33,34
 1225 903 1225 903 1225 885 c 1,35,36
 1150 723 1150 723 1110.5 556 c 128,-1,37
 1071 389 1071 389 1049 233 c 128,-1,38
 1027 77 1027 77 1027 -32 c 0,39,40
 1027 -47 1027 -47 1011 -47 c 0,41,42
 972 -47 972 -47 972 43 c 0,43,44
 972 155 972 155 946 273 c 0,45,46
 931 341 931 341 897 396.5 c 128,-1,47
 863 452 863 452 814 480 c 1,48,49
 800 454 800 454 767 389.5 c 128,-1,50
 734 325 734 325 717 293 c 128,-1,51
 700 261 700 261 668.5 206.5 c 128,-1,52
 637 152 637 152 614 118 c 0,53,54
 555 30 555 30 497 -25 c 1,55,56
 508 -28 508 -28 524 -28 c 0,57,58
 618 -28 618 -28 679.5 34.5 c 128,-1,59
 741 97 741 97 765 182 c 0,60,61
 768 194 768 194 782 193 c 0,62,63
 792 192 792 192 790 184 c 0,64,65
 766 87 766 87 696.5 15 c 128,-1,66
 627 -57 627 -57 523 -57 c 0,67,68
 496 -57 496 -57 470 -49 c 1,69,70
 367 -133 367 -133 249 -133 c 0,71,72
 101 -133 101 -133 36 -17 c 0,73,74
 -17 78 -17 78 7 195 c 128,-1,75
 31 312 31 312 109 366 c 0,76,77
 154 397 154 397 210 397 c 0,78,79
 226 397 226 397 236 387 c 128,-1,80
 246 377 246 377 250 357 c 1,81,82
 184 357 184 357 131 310.5 c 128,-1,83
 78 264 78 264 60.5 203.5 c 128,-1,84
 43 143 43 143 43 90 c 0,85,86
 43 77 43 77 44 65 c 0,87,88
 48 -1 48 -1 98 -47.5 c 128,-1,89
 148 -94 148 -94 235 -94 c 128,-1,90
 322 -94 322 -94 415 -16 c 1,20,21
711 506 m 0,91,92
 647 506 647 506 591 477 c 128,-1,93
 535 448 535 448 497 402 c 128,-1,94
 459 356 459 356 433 299 c 0,95,96
 395 217 395 217 395 139 c 0,97,98
 395 50 395 50 439 5 c 1,99,100
 481 45 481 45 530 111.5 c 128,-1,101
 579 178 579 178 606 221 c 0,102,103
 639 273 639 273 772 498 c 1,104,105
 742 506 742 506 711 506 c 0,91,92
1148 859 m 1,106,107
 1059 836 1059 836 985.5 749 c 128,-1,108
 912 662 912 662 833 516 c 1,109,110
 943 456 943 456 985 277 c 1,111,112
 1006 468 1006 468 1051.5 628 c 128,-1,113
 1097 788 1097 788 1148 859 c 1,106,107
EndSplineSet
EndChar

StartChar: Adieresis
Encoding: 196 196 132
Width: 1188
GlyphClass: 2
Flags: W
LayerCount: 2
Fore
SplineSet
1089 962 m 1,0,1
 1066 962 1066 962 1066 1007 c 0,2,3
 1066 1034 1066 1034 1080 1064 c 128,-1,4
 1094 1094 1094 1094 1121 1094 c 0,5,6
 1144 1094 1144 1094 1144 1068 c 0,7,8
 1144 1043 1144 1043 1102 982 c 1,9,-1
 1089 962 l 1,0,1
1249 962 m 1,10,11
 1226 962 1226 962 1226 1007 c 0,12,13
 1226 1034 1226 1034 1240 1064 c 128,-1,14
 1254 1094 1254 1094 1281 1094 c 0,15,16
 1304 1094 1304 1094 1304 1068 c 0,17,18
 1304 1043 1304 1043 1262 982 c 1,19,-1
 1249 962 l 1,10,11
415 -16 m 1,20,21
 361 37 361 37 361 144 c 0,22,23
 361 229 361 229 394 304 c 128,-1,24
 427 379 427 379 469.5 430 c 128,-1,25
 512 481 512 481 576 513.5 c 128,-1,26
 640 546 640 546 712 546 c 0,27,28
 753 546 753 546 794 533 c 1,29,30
 891 692 891 692 984 792 c 1,31,32
 1090 903 1090 903 1207 903 c 0,33,34
 1225 903 1225 903 1225 885 c 1,35,36
 1150 723 1150 723 1110.5 556 c 128,-1,37
 1071 389 1071 389 1049 233 c 128,-1,38
 1027 77 1027 77 1027 -32 c 0,39,40
 1027 -47 1027 -47 1011 -47 c 0,41,42
 972 -47 972 -47 972 43 c 0,43,44
 972 155 972 155 946 273 c 0,45,46
 931 341 931 341 897 396.5 c 128,-1,47
 863 452 863 452 814 480 c 1,48,49
 800 454 800 454 767 389.5 c 128,-1,50
 734 325 734 325 717 293 c 128,-1,51
 700 261 700 261 668.5 206.5 c 128,-1,52
 637 152 637 152 614 118 c 0,53,54
 555 30 555 30 497 -25 c 1,55,56
 508 -28 508 -28 524 -28 c 0,57,58
 618 -28 618 -28 679.5 34.5 c 128,-1,59
 741 97 741 97 765 182 c 0,60,61
 768 194 768 194 782 193 c 0,62,63
 792 192 792 192 790 184 c 0,64,65
 766 87 766 87 696.5 15 c 128,-1,66
 627 -57 627 -57 523 -57 c 0,67,68
 496 -57 496 -57 470 -49 c 1,69,70
 367 -133 367 -133 249 -133 c 0,71,72
 101 -133 101 -133 36 -17 c 0,73,74
 -17 78 -17 78 7 195 c 128,-1,75
 31 312 31 312 109 366 c 0,76,77
 154 397 154 397 210 397 c 0,78,79
 226 397 226 397 236 387 c 128,-1,80
 246 377 246 377 250 357 c 1,81,82
 184 357 184 357 131 310.5 c 128,-1,83
 78 264 78 264 60.5 203.5 c 128,-1,84
 43 143 43 143 43 90 c 0,85,86
 43 77 43 77 44 65 c 0,87,88
 48 -1 48 -1 98 -47.5 c 128,-1,89
 148 -94 148 -94 235 -94 c 128,-1,90
 322 -94 322 -94 415 -16 c 1,20,21
711 506 m 0,91,92
 647 506 647 506 591 477 c 128,-1,93
 535 448 535 448 497 402 c 128,-1,94
 459 356 459 356 433 299 c 0,95,96
 395 217 395 217 395 139 c 0,97,98
 395 50 395 50 439 5 c 1,99,100
 481 45 481 45 530 111.5 c 128,-1,101
 579 178 579 178 606 221 c 0,102,103
 639 273 639 273 772 498 c 1,104,105
 742 506 742 506 711 506 c 0,91,92
1148 859 m 1,106,107
 1059 836 1059 836 985.5 749 c 128,-1,108
 912 662 912 662 833 516 c 1,109,110
 943 456 943 456 985 277 c 1,111,112
 1006 468 1006 468 1051.5 628 c 128,-1,113
 1097 788 1097 788 1148 859 c 1,106,107
EndSplineSet
EndChar

StartChar: Aring
Encoding: 197 197 133
Width: 1188
GlyphClass: 2
Flags: W
LayerCount: 2
Fore
SplineSet
1100 1103.5 m 128,-1,1
 1123 1127 1123 1127 1157.5 1127 c 128,-1,2
 1192 1127 1192 1127 1215.5 1103.5 c 128,-1,3
 1239 1080 1239 1080 1239 1046 c 128,-1,4
 1239 1012 1239 1012 1215.5 988.5 c 128,-1,5
 1192 965 1192 965 1157.5 965 c 128,-1,6
 1123 965 1123 965 1100 989 c 128,-1,7
 1077 1013 1077 1013 1077 1046.5 c 128,-1,0
 1077 1080 1077 1080 1100 1103.5 c 128,-1,1
1156 1001 m 128,-1,9
 1175 1001 1175 1001 1189 1014.5 c 128,-1,10
 1203 1028 1203 1028 1203 1047 c 128,-1,11
 1203 1066 1203 1066 1189.5 1079.5 c 128,-1,12
 1176 1093 1176 1093 1156 1093 c 128,-1,13
 1136 1093 1136 1093 1123 1079.5 c 128,-1,14
 1110 1066 1110 1066 1110 1047 c 128,-1,15
 1110 1028 1110 1028 1123.5 1014.5 c 128,-1,8
 1137 1001 1137 1001 1156 1001 c 128,-1,9
415 -16 m 1,16,17
 361 37 361 37 361 144 c 0,18,19
 361 229 361 229 394 304 c 128,-1,20
 427 379 427 379 469.5 430 c 128,-1,21
 512 481 512 481 576 513.5 c 128,-1,22
 640 546 640 546 712 546 c 0,23,24
 753 546 753 546 794 533 c 1,25,26
 891 692 891 692 984 792 c 1,27,28
 1090 903 1090 903 1207 903 c 0,29,30
 1225 903 1225 903 1225 885 c 1,31,32
 1150 723 1150 723 1110.5 556 c 128,-1,33
 1071 389 1071 389 1049 233 c 128,-1,34
 1027 77 1027 77 1027 -32 c 0,35,36
 1027 -47 1027 -47 1011 -47 c 0,37,38
 972 -47 972 -47 972 43 c 0,39,40
 972 155 972 155 946 273 c 0,41,42
 931 341 931 341 897 396.5 c 128,-1,43
 863 452 863 452 814 480 c 1,44,45
 800 454 800 454 767 389.5 c 128,-1,46
 734 325 734 325 717 293 c 128,-1,47
 700 261 700 261 668.5 206.5 c 128,-1,48
 637 152 637 152 614 118 c 0,49,50
 555 30 555 30 497 -25 c 1,51,52
 508 -28 508 -28 524 -28 c 0,53,54
 618 -28 618 -28 679.5 34.5 c 128,-1,55
 741 97 741 97 765 182 c 0,56,57
 768 194 768 194 782 193 c 0,58,59
 792 192 792 192 790 184 c 0,60,61
 766 87 766 87 696.5 15 c 128,-1,62
 627 -57 627 -57 523 -57 c 0,63,64
 496 -57 496 -57 470 -49 c 1,65,66
 367 -133 367 -133 249 -133 c 0,67,68
 101 -133 101 -133 36 -17 c 0,69,70
 -17 78 -17 78 7 195 c 128,-1,71
 31 312 31 312 109 366 c 0,72,73
 154 397 154 397 210 397 c 0,74,75
 226 397 226 397 236 387 c 128,-1,76
 246 377 246 377 250 357 c 1,77,78
 184 357 184 357 131 310.5 c 128,-1,79
 78 264 78 264 60.5 203.5 c 128,-1,80
 43 143 43 143 43 90 c 0,81,82
 43 77 43 77 44 65 c 0,83,84
 48 -1 48 -1 98 -47.5 c 128,-1,85
 148 -94 148 -94 235 -94 c 128,-1,86
 322 -94 322 -94 415 -16 c 1,16,17
711 506 m 0,87,88
 647 506 647 506 591 477 c 128,-1,89
 535 448 535 448 497 402 c 128,-1,90
 459 356 459 356 433 299 c 0,91,92
 395 217 395 217 395 139 c 0,93,94
 395 50 395 50 439 5 c 1,95,96
 481 45 481 45 530 111.5 c 128,-1,97
 579 178 579 178 606 221 c 0,98,99
 639 273 639 273 772 498 c 1,100,101
 742 506 742 506 711 506 c 0,87,88
1148 859 m 1,102,103
 1059 836 1059 836 985.5 749 c 128,-1,104
 912 662 912 662 833 516 c 1,105,106
 943 456 943 456 985 277 c 1,107,108
 1006 468 1006 468 1051.5 628 c 128,-1,109
 1097 788 1097 788 1148 859 c 1,102,103
EndSplineSet
EndChar

StartChar: AE
Encoding: 198 198 134
Width: 1639
GlyphClass: 2
Flags: W
LayerCount: 2
Fore
SplineSet
928 90 m 1,0,-1
 930 159 l 1,1,2
 930 206 930 206 924.5 260.5 c 128,-1,3
 919 315 919 315 890.5 381 c 128,-1,4
 862 447 862 447 813 478 c 1,5,6
 802 457 802 457 758 372 c 128,-1,7
 714 287 714 287 694.5 253 c 128,-1,8
 675 219 675 219 638 156 c 0,9,10
 573 47 573 47 497 -25 c 1,11,12
 521 -28 521 -28 524 -28 c 0,13,14
 618 -28 618 -28 679.5 34.5 c 128,-1,15
 741 97 741 97 765 182 c 0,16,17
 768 194 768 194 782 193 c 0,18,19
 792 192 792 192 790 184 c 0,20,21
 766 87 766 87 696.5 15 c 128,-1,22
 627 -57 627 -57 523 -57 c 0,23,24
 496 -57 496 -57 470 -49 c 1,25,26
 367 -133 367 -133 249 -133 c 0,27,28
 101 -133 101 -133 36 -17 c 0,29,30
 -17 78 -17 78 7 195 c 128,-1,31
 31 312 31 312 109 366 c 0,32,33
 154 397 154 397 210 397 c 0,34,35
 226 397 226 397 236 387 c 128,-1,36
 246 377 246 377 250 357 c 1,37,38
 184 357 184 357 131 310.5 c 128,-1,39
 78 264 78 264 60.5 203.5 c 128,-1,40
 43 143 43 143 43 90 c 0,41,42
 43 77 43 77 44 65 c 0,43,44
 48 -1 48 -1 98 -47.5 c 128,-1,45
 148 -94 148 -94 235 -94 c 128,-1,46
 322 -94 322 -94 415 -16 c 1,47,48
 361 37 361 37 361 144 c 0,49,50
 361 229 361 229 394 304 c 128,-1,51
 427 379 427 379 469.5 430 c 128,-1,52
 512 481 512 481 576 513.5 c 128,-1,53
 640 546 640 546 712 546 c 0,54,55
 754 546 754 546 793 533 c 1,56,57
 845 617 845 617 888 676.5 c 128,-1,58
 931 736 931 736 984 792 c 0,59,60
 1090 903 1090 903 1207 903 c 0,61,62
 1209 903 1209 903 1209 894 c 128,-1,63
 1209 885 1209 885 1208 867 c 1,64,65
 1090 867 1090 867 996 762 c 1,66,67
 950 709 950 709 913 652.5 c 128,-1,68
 876 596 876 596 832 515 c 1,69,70
 942 448 942 448 961 237 c 1,71,72
 1006 344 1006 344 1097.5 426 c 128,-1,73
 1189 508 1189 508 1314 535 c 1,74,75
 1224 568 1224 568 1224 651 c 0,76,77
 1224 722 1224 722 1290 786 c 1,78,79
 1379 869 1379 869 1505 870 c 0,80,81
 1526 870 1526 870 1536 854.5 c 128,-1,82
 1546 839 1546 839 1546 824 c 2,83,-1
 1545 808 l 1,84,85
 1536 812 1536 812 1506 812 c 0,86,87
 1407 812 1407 812 1337 742 c 0,88,89
 1286 692 1286 692 1286 640 c 0,90,91
 1286 568 1286 568 1376 551 c 0,92,93
 1399 547 1399 547 1418 547 c 0,94,95
 1450 547 1450 547 1458 525 c 1,96,-1
 1460 518 l 1,97,98
 1271 518 1271 518 1141 375 c 1,99,100
 1040 266 1040 266 1017 124 c 0,101,102
 1011 90 1011 90 1011 59 c 0,103,104
 1011 -28 1011 -28 1056.5 -81 c 128,-1,105
 1102 -134 1102 -134 1182 -134 c 0,106,107
 1338 -134 1338 -134 1423 -5 c 0,108,109
 1482 85 1482 85 1482 188 c 0,110,111
 1482 281 1482 281 1437 306 c 0,112,113
 1424 313 1424 313 1411 313 c 1,114,115
 1426 339 1426 339 1465 339 c 0,116,117
 1520 339 1520 339 1537 268 c 0,118,119
 1543 240 1543 240 1543 211 c 0,120,121
 1543 146 1543 146 1512 68 c 0,122,123
 1457 -69 1457 -69 1342 -131 c 0,124,125
 1269 -171 1269 -171 1181 -171 c 0,126,127
 1045 -171 1045 -171 984 -90 c 1,128,129
 928 -18 928 -18 928 90 c 1,0,-1
711 506 m 0,130,131
 647 506 647 506 591 477 c 128,-1,132
 535 448 535 448 497 402 c 128,-1,133
 459 356 459 356 433 299 c 0,134,135
 395 217 395 217 395 139 c 0,136,137
 395 50 395 50 439 5 c 1,138,139
 510 74 510 74 578 179 c 1,140,141
 645 280 645 280 772 497 c 1,142,143
 745 506 745 506 711 506 c 0,130,131
1584 616 m 0,144,145
 1584 610 1584 610 1573.5 610 c 128,-1,146
 1563 610 1563 610 1554 614.5 c 128,-1,147
 1545 619 1545 619 1545 627 c 0,148,149
 1545 741 1545 741 1570.5 811.5 c 128,-1,150
 1596 882 1596 882 1639 882 c 0,151,152
 1650 882 1650 882 1658 874 c 128,-1,153
 1666 866 1666 866 1666 853 c 1,154,155
 1615 802 1615 802 1593 702 c 0,156,157
 1584 661 1584 661 1584 616 c 0,144,145
EndSplineSet
EndChar

StartChar: Ccedilla
Encoding: 199 199 135
Width: 680
GlyphClass: 2
Flags: W
LayerCount: 2
Fore
SplineSet
291 -292 m 0,0,1
 304 -272 304 -272 304 -256.5 c 128,-1,2
 304 -241 304 -241 294 -228 c 128,-1,3
 284 -215 284 -215 256 -215 c 128,-1,4
 228 -215 228 -215 190 -234 c 1,5,-1
 188 -234 l 2,6,7
 177 -234 177 -234 177 -224.5 c 128,-1,8
 177 -215 177 -215 190 -188.5 c 128,-1,9
 203 -162 203 -162 228 -127 c 1,10,11
 131 -98 131 -98 92 14 c 0,12,13
 67 83 67 83 67 149 c 0,14,15
 67 334 67 334 164 548 c 0,16,17
 225 684 225 684 338.5 777 c 128,-1,18
 452 870 452 870 581 870 c 0,19,20
 603 870 603 870 613 855.5 c 128,-1,21
 623 841 623 841 622 826 c 1,22,-1
 622 812 l 1,23,24
 614 816 614 816 583 816 c 0,25,26
 432 816 432 816 311 644 c 1,27,28
 207 494 207 494 170 291 c 0,29,30
 156 212 156 212 156 131.5 c 128,-1,31
 156 51 156 51 187 -15 c 0,32,33
 227 -99 227 -99 310 -99 c 0,34,35
 407 -99 407 -99 476 10 c 0,36,37
 522 82 522 82 525 144 c 0,38,39
 527 175 527 175 512 175 c 1,40,41
 519 201 519 201 546 201 c 0,42,43
 578 201 578 201 578 156 c 0,44,45
 578 76 578 76 510 -15 c 0,46,47
 425 -129 425 -129 309 -137 c 1,48,-1
 295 -137 l 2,49,50
 274 -137 274 -137 251 -132 c 1,51,-1
 208 -209 l 1,52,53
 236 -194 236 -194 274 -194 c 0,54,55
 329 -194 329 -194 341 -235 c 0,56,57
 343 -244 343 -244 343 -253 c 0,58,59
 343 -284 343 -284 314 -313 c 0,60,61
 271 -355 271 -355 197 -355 c 0,62,63
 139 -355 139 -355 132 -320 c 0,64,65
 127 -298 127 -298 145 -287 c 0,66,67
 150 -284 150 -284 157 -284 c 0,68,69
 169 -284 169 -284 172 -294 c 2,70,-1
 173 -298 l 1,71,72
 158 -298 158 -298 155 -315 c 128,-1,73
 152 -332 152 -332 178 -338 c 0,74,75
 185 -340 185 -340 194 -340 c 0,76,77
 260 -340 260 -340 291 -292 c 0,0,1
651 577 m 0,78,79
 651 571 651 571 641 571 c 128,-1,80
 631 571 631 571 621.5 575.5 c 128,-1,81
 612 580 612 580 612 588 c 0,82,83
 612 702 612 702 637.5 772.5 c 128,-1,84
 663 843 663 843 706 843 c 0,85,86
 717 843 717 843 725 835 c 128,-1,87
 733 827 733 827 733 814 c 1,88,89
 682 763 682 763 660 663 c 0,90,91
 651 622 651 622 651 577 c 0,78,79
EndSplineSet
EndChar

StartChar: Egrave
Encoding: 200 200 136
Width: 710
GlyphClass: 2
Flags: W
LayerCount: 2
Fore
SplineSet
509 1090 m 1,0,1
 550 1051 550 1051 588 1005 c 128,-1,2
 626 959 626 959 626 948.5 c 128,-1,3
 626 938 626 938 614 938 c 128,-1,4
 602 938 602 938 561.5 967 c 128,-1,5
 521 996 521 996 478 1038 c 0,6,7
 461 1054 461 1054 461 1065.5 c 128,-1,8
 461 1077 461 1077 468 1088.5 c 128,-1,9
 475 1100 475 1100 486 1100 c 128,-1,10
 497 1100 497 1100 509 1090 c 1,0,1
385 535 m 1,11,12
 295 568 295 568 295 651 c 0,13,14
 295 722 295 722 361 786 c 1,15,16
 450 869 450 869 576 870 c 0,17,18
 597 870 597 870 607 854.5 c 128,-1,19
 617 839 617 839 616 824 c 1,20,-1
 616 808 l 1,21,22
 607 812 607 812 577 812 c 0,23,24
 478 812 478 812 408 742 c 0,25,26
 357 692 357 692 357 640 c 0,27,28
 357 568 357 568 447 551 c 0,29,30
 470 547 470 547 489 547 c 0,31,32
 521 547 521 547 528 525 c 1,33,-1
 531 518 l 1,34,35
 342 518 342 518 212 375 c 1,36,37
 111 266 111 266 88 124 c 0,38,39
 82 90 82 90 82 59 c 0,40,41
 82 -28 82 -28 127.5 -81 c 128,-1,42
 173 -134 173 -134 253 -134 c 0,43,44
 409 -134 409 -134 494 -5 c 0,45,46
 553 85 553 85 553 188 c 0,47,48
 553 281 553 281 508 306 c 0,49,50
 495 313 495 313 482 313 c 1,51,52
 497 339 497 339 536 339 c 0,53,54
 591 339 591 339 608 268 c 0,55,56
 614 240 614 240 614 211 c 0,57,58
 614 146 614 146 583 68 c 0,59,60
 528 -69 528 -69 413 -131 c 0,61,62
 340 -171 340 -171 252 -171 c 0,63,64
 90 -171 90 -171 28 -55 c 0,65,66
 -27 48 -27 48 16 192.5 c 128,-1,67
 59 337 59 337 181 437 c 1,68,69
 272 510 272 510 385 535 c 1,11,12
655 616 m 0,70,71
 655 610 655 610 645 610 c 128,-1,72
 635 610 635 610 625.5 614.5 c 128,-1,73
 616 619 616 619 616 627 c 0,74,75
 616 741 616 741 641.5 811.5 c 128,-1,76
 667 882 667 882 710 882 c 0,77,78
 721 882 721 882 729 874 c 128,-1,79
 737 866 737 866 737 853 c 1,80,81
 686 802 686 802 664 702 c 0,82,83
 655 661 655 661 655 616 c 0,70,71
EndSplineSet
EndChar

StartChar: Eacute
Encoding: 201 201 137
Width: 710
GlyphClass: 2
Flags: W
LayerCount: 2
Fore
SplineSet
697 1039 m 1,0,1
 664 999 664 999 622.5 961.5 c 128,-1,2
 581 924 581 924 570.5 924 c 128,-1,3
 560 924 560 924 560 935 c 128,-1,4
 560 946 560 946 585.5 987 c 128,-1,5
 611 1028 611 1028 646 1067 c 0,6,7
 660 1084 660 1084 672 1084 c 128,-1,8
 684 1084 684 1084 694 1078.5 c 128,-1,9
 704 1073 704 1073 704 1062.5 c 128,-1,10
 704 1052 704 1052 697 1039 c 1,0,1
385 535 m 1,11,12
 295 568 295 568 295 651 c 0,13,14
 295 722 295 722 361 786 c 1,15,16
 450 869 450 869 576 870 c 0,17,18
 597 870 597 870 607 854.5 c 128,-1,19
 617 839 617 839 616 824 c 1,20,-1
 616 808 l 1,21,22
 607 812 607 812 577 812 c 0,23,24
 478 812 478 812 408 742 c 0,25,26
 357 692 357 692 357 640 c 0,27,28
 357 568 357 568 447 551 c 0,29,30
 470 547 470 547 489 547 c 0,31,32
 521 547 521 547 528 525 c 1,33,-1
 531 518 l 1,34,35
 342 518 342 518 212 375 c 1,36,37
 111 266 111 266 88 124 c 0,38,39
 82 90 82 90 82 59 c 0,40,41
 82 -28 82 -28 127.5 -81 c 128,-1,42
 173 -134 173 -134 253 -134 c 0,43,44
 409 -134 409 -134 494 -5 c 0,45,46
 553 85 553 85 553 188 c 0,47,48
 553 281 553 281 508 306 c 0,49,50
 495 313 495 313 482 313 c 1,51,52
 497 339 497 339 536 339 c 0,53,54
 591 339 591 339 608 268 c 0,55,56
 614 240 614 240 614 211 c 0,57,58
 614 146 614 146 583 68 c 0,59,60
 528 -69 528 -69 413 -131 c 0,61,62
 340 -171 340 -171 252 -171 c 0,63,64
 90 -171 90 -171 28 -55 c 0,65,66
 -27 48 -27 48 16 192.5 c 128,-1,67
 59 337 59 337 181 437 c 1,68,69
 272 510 272 510 385 535 c 1,11,12
655 616 m 0,70,71
 655 610 655 610 645 610 c 128,-1,72
 635 610 635 610 625.5 614.5 c 128,-1,73
 616 619 616 619 616 627 c 0,74,75
 616 741 616 741 641.5 811.5 c 128,-1,76
 667 882 667 882 710 882 c 0,77,78
 721 882 721 882 729 874 c 128,-1,79
 737 866 737 866 737 853 c 1,80,81
 686 802 686 802 664 702 c 0,82,83
 655 661 655 661 655 616 c 0,70,71
EndSplineSet
EndChar

StartChar: Ecircumflex
Encoding: 202 202 138
Width: 710
GlyphClass: 2
Flags: W
LayerCount: 2
Fore
SplineSet
600.5 1066 m 128,-1,1
 610 1066 610 1066 614 1058 c 2,2,-1
 681 926 l 1,3,-1
 649 926 l 1,4,-1
 598 1012 l 1,5,-1
 452 926 l 1,6,-1
 419 926 l 1,7,8
 527 1016 527 1016 581 1058 c 0,9,0
 591 1066 591 1066 600.5 1066 c 128,-1,1
385 535 m 1,10,11
 295 568 295 568 295 651 c 0,12,13
 295 722 295 722 361 786 c 1,14,15
 450 869 450 869 576 870 c 0,16,17
 597 870 597 870 607 854.5 c 128,-1,18
 617 839 617 839 616 824 c 1,19,-1
 616 808 l 1,20,21
 607 812 607 812 577 812 c 0,22,23
 478 812 478 812 408 742 c 0,24,25
 357 692 357 692 357 640 c 0,26,27
 357 568 357 568 447 551 c 0,28,29
 470 547 470 547 489 547 c 0,30,31
 521 547 521 547 528 525 c 1,32,-1
 531 518 l 1,33,34
 342 518 342 518 212 375 c 1,35,36
 111 266 111 266 88 124 c 0,37,38
 82 90 82 90 82 59 c 0,39,40
 82 -28 82 -28 127.5 -81 c 128,-1,41
 173 -134 173 -134 253 -134 c 0,42,43
 409 -134 409 -134 494 -5 c 0,44,45
 553 85 553 85 553 188 c 0,46,47
 553 281 553 281 508 306 c 0,48,49
 495 313 495 313 482 313 c 1,50,51
 497 339 497 339 536 339 c 0,52,53
 591 339 591 339 608 268 c 0,54,55
 614 240 614 240 614 211 c 0,56,57
 614 146 614 146 583 68 c 0,58,59
 528 -69 528 -69 413 -131 c 0,60,61
 340 -171 340 -171 252 -171 c 0,62,63
 90 -171 90 -171 28 -55 c 0,64,65
 -27 48 -27 48 16 192.5 c 128,-1,66
 59 337 59 337 181 437 c 1,67,68
 272 510 272 510 385 535 c 1,10,11
655 616 m 0,69,70
 655 610 655 610 645 610 c 128,-1,71
 635 610 635 610 625.5 614.5 c 128,-1,72
 616 619 616 619 616 627 c 0,73,74
 616 741 616 741 641.5 811.5 c 128,-1,75
 667 882 667 882 710 882 c 0,76,77
 721 882 721 882 729 874 c 128,-1,78
 737 866 737 866 737 853 c 1,79,80
 686 802 686 802 664 702 c 0,81,82
 655 661 655 661 655 616 c 0,69,70
EndSplineSet
EndChar

StartChar: Edieresis
Encoding: 203 203 139
Width: 710
GlyphClass: 2
Flags: W
LayerCount: 2
Fore
SplineSet
464 920 m 1,0,1
 441 920 441 920 441 965 c 0,2,3
 441 992 441 992 455 1022 c 128,-1,4
 469 1052 469 1052 496 1052 c 0,5,6
 519 1052 519 1052 519 1026 c 0,7,8
 519 1013 519 1013 505.5 986.5 c 128,-1,9
 492 960 492 960 478 940 c 2,10,-1
 464 920 l 1,0,1
624 920 m 1,11,12
 601 920 601 920 601 965 c 0,13,14
 601 992 601 992 615 1022 c 128,-1,15
 629 1052 629 1052 656 1052 c 0,16,17
 679 1052 679 1052 679 1026 c 0,18,19
 679 1013 679 1013 665.5 986.5 c 128,-1,20
 652 960 652 960 638 940 c 2,21,-1
 624 920 l 1,11,12
385 535 m 1,22,23
 295 568 295 568 295 651 c 0,24,25
 295 722 295 722 361 786 c 1,26,27
 450 869 450 869 576 870 c 0,28,29
 597 870 597 870 607 854.5 c 128,-1,30
 617 839 617 839 616 824 c 1,31,-1
 616 808 l 1,32,33
 607 812 607 812 577 812 c 0,34,35
 478 812 478 812 408 742 c 0,36,37
 357 692 357 692 357 640 c 0,38,39
 357 568 357 568 447 551 c 0,40,41
 470 547 470 547 489 547 c 0,42,43
 521 547 521 547 528 525 c 1,44,-1
 531 518 l 1,45,46
 342 518 342 518 212 375 c 1,47,48
 111 266 111 266 88 124 c 0,49,50
 82 90 82 90 82 59 c 0,51,52
 82 -28 82 -28 127.5 -81 c 128,-1,53
 173 -134 173 -134 253 -134 c 0,54,55
 409 -134 409 -134 494 -5 c 0,56,57
 553 85 553 85 553 188 c 0,58,59
 553 281 553 281 508 306 c 0,60,61
 495 313 495 313 482 313 c 1,62,63
 497 339 497 339 536 339 c 0,64,65
 591 339 591 339 608 268 c 0,66,67
 614 240 614 240 614 211 c 0,68,69
 614 146 614 146 583 68 c 0,70,71
 528 -69 528 -69 413 -131 c 0,72,73
 340 -171 340 -171 252 -171 c 0,74,75
 90 -171 90 -171 28 -55 c 0,76,77
 -27 48 -27 48 16 192.5 c 128,-1,78
 59 337 59 337 181 437 c 1,79,80
 272 510 272 510 385 535 c 1,22,23
655 616 m 0,81,82
 655 610 655 610 645 610 c 128,-1,83
 635 610 635 610 625.5 614.5 c 128,-1,84
 616 619 616 619 616 627 c 0,85,86
 616 741 616 741 641.5 811.5 c 128,-1,87
 667 882 667 882 710 882 c 0,88,89
 721 882 721 882 729 874 c 128,-1,90
 737 866 737 866 737 853 c 1,91,92
 686 802 686 802 664 702 c 0,93,94
 655 661 655 661 655 616 c 0,81,82
EndSplineSet
EndChar

StartChar: Igrave
Encoding: 204 204 140
Width: 660
GlyphClass: 2
Flags: W
LayerCount: 2
Fore
SplineSet
530 1060 m 1,0,1
 571 1021 571 1021 609 975 c 128,-1,2
 647 929 647 929 647 918.5 c 128,-1,3
 647 908 647 908 635 908 c 128,-1,4
 623 908 623 908 582.5 937 c 128,-1,5
 542 966 542 966 499 1008 c 0,6,7
 482 1024 482 1024 482 1035.5 c 128,-1,8
 482 1047 482 1047 489 1058.5 c 128,-1,9
 496 1070 496 1070 507 1070 c 128,-1,10
 518 1070 518 1070 530 1060 c 1,0,1
662 856 m 0,11,12
 671 856 671 856 676.5 851.5 c 128,-1,13
 682 847 682 847 684 838 c 1,14,15
 617 838 617 838 586 646 c 0,16,17
 573 560 573 560 560 457 c 128,-1,18
 547 354 547 354 524.5 251 c 128,-1,19
 502 148 502 148 467 62.5 c 128,-1,20
 432 -23 432 -23 367 -76.5 c 128,-1,21
 302 -130 302 -130 213.5 -130 c 128,-1,22
 125 -130 125 -130 71.5 -80.5 c 128,-1,23
 18 -31 18 -31 10 40 c 0,24,25
 7 64 7 64 7 99 c 128,-1,26
 7 134 7 134 18 180 c 1,27,28
 33 251 33 251 82 300.5 c 128,-1,29
 131 350 131 350 194 350 c 0,30,31
 210 350 210 350 220 340 c 128,-1,32
 230 330 230 330 234 310 c 1,33,34
 142 310 142 310 84 221 c 1,35,36
 39 154 39 154 39 78 c 0,37,38
 39 -42 39 -42 127 -78 c 0,39,40
 157 -91 157 -91 195 -91 c 0,41,42
 268 -91 268 -91 321 -35 c 128,-1,43
 374 21 374 21 402 107 c 128,-1,44
 430 193 430 193 453 301.5 c 128,-1,45
 476 410 476 410 491 508.5 c 128,-1,46
 506 607 506 607 532 694.5 c 128,-1,47
 558 782 558 782 592 821 c 1,48,49
 505 791 505 791 433.5 725.5 c 128,-1,50
 362 660 362 660 362 582 c 0,51,52
 362 547 362 547 385 547 c 1,53,54
 383 531 383 531 362 531 c 128,-1,55
 341 531 341 531 325 548 c 128,-1,56
 309 565 309 565 309 597 c 0,57,58
 309 647 309 647 348.5 696.5 c 128,-1,59
 388 746 388 746 444 780 c 128,-1,60
 500 814 500 814 559.5 835 c 128,-1,61
 619 856 619 856 662 856 c 0,11,12
EndSplineSet
EndChar

StartChar: Iacute
Encoding: 205 205 141
Width: 660
GlyphClass: 2
Flags: W
LayerCount: 2
Fore
SplineSet
697 1007 m 1,0,1
 664 967 664 967 622.5 929.5 c 128,-1,2
 581 892 581 892 570.5 892 c 128,-1,3
 560 892 560 892 560 903 c 128,-1,4
 560 914 560 914 585.5 955 c 128,-1,5
 611 996 611 996 646 1035 c 0,6,7
 660 1052 660 1052 672 1052 c 128,-1,8
 684 1052 684 1052 694 1046.5 c 128,-1,9
 704 1041 704 1041 704 1030.5 c 128,-1,10
 704 1020 704 1020 697 1007 c 1,0,1
662 856 m 0,11,12
 671 856 671 856 676.5 851.5 c 128,-1,13
 682 847 682 847 684 838 c 1,14,15
 617 838 617 838 586 646 c 0,16,17
 573 560 573 560 560 457 c 128,-1,18
 547 354 547 354 524.5 251 c 128,-1,19
 502 148 502 148 467 62.5 c 128,-1,20
 432 -23 432 -23 367 -76.5 c 128,-1,21
 302 -130 302 -130 213.5 -130 c 128,-1,22
 125 -130 125 -130 71.5 -80.5 c 128,-1,23
 18 -31 18 -31 10 40 c 0,24,25
 7 64 7 64 7 99 c 128,-1,26
 7 134 7 134 18 180 c 1,27,28
 33 251 33 251 82 300.5 c 128,-1,29
 131 350 131 350 194 350 c 0,30,31
 210 350 210 350 220 340 c 128,-1,32
 230 330 230 330 234 310 c 1,33,34
 142 310 142 310 84 221 c 1,35,36
 39 154 39 154 39 78 c 0,37,38
 39 -42 39 -42 127 -78 c 0,39,40
 157 -91 157 -91 195 -91 c 0,41,42
 268 -91 268 -91 321 -35 c 128,-1,43
 374 21 374 21 402 107 c 128,-1,44
 430 193 430 193 453 301.5 c 128,-1,45
 476 410 476 410 491 508.5 c 128,-1,46
 506 607 506 607 532 694.5 c 128,-1,47
 558 782 558 782 592 821 c 1,48,49
 505 791 505 791 433.5 725.5 c 128,-1,50
 362 660 362 660 362 582 c 0,51,52
 362 547 362 547 385 547 c 1,53,54
 383 531 383 531 362 531 c 128,-1,55
 341 531 341 531 325 548 c 128,-1,56
 309 565 309 565 309 597 c 0,57,58
 309 647 309 647 348.5 696.5 c 128,-1,59
 388 746 388 746 444 780 c 128,-1,60
 500 814 500 814 559.5 835 c 128,-1,61
 619 856 619 856 662 856 c 0,11,12
EndSplineSet
EndChar

StartChar: Icircumflex
Encoding: 206 206 142
Width: 660
GlyphClass: 2
Flags: W
LayerCount: 2
Fore
SplineSet
632.5 1035 m 128,-1,1
 642 1035 642 1035 646 1027 c 2,2,-1
 713 895 l 1,3,-1
 681 895 l 1,4,-1
 630 981 l 1,5,-1
 484 895 l 1,6,-1
 451 895 l 1,7,8
 559 985 559 985 613 1027 c 0,9,0
 623 1035 623 1035 632.5 1035 c 128,-1,1
662 856 m 0,10,11
 671 856 671 856 676.5 851.5 c 128,-1,12
 682 847 682 847 684 838 c 1,13,14
 617 838 617 838 586 646 c 0,15,16
 573 560 573 560 560 457 c 128,-1,17
 547 354 547 354 524.5 251 c 128,-1,18
 502 148 502 148 467 62.5 c 128,-1,19
 432 -23 432 -23 367 -76.5 c 128,-1,20
 302 -130 302 -130 213.5 -130 c 128,-1,21
 125 -130 125 -130 71.5 -80.5 c 128,-1,22
 18 -31 18 -31 10 40 c 0,23,24
 7 64 7 64 7 99 c 128,-1,25
 7 134 7 134 18 180 c 1,26,27
 33 251 33 251 82 300.5 c 128,-1,28
 131 350 131 350 194 350 c 0,29,30
 210 350 210 350 220 340 c 128,-1,31
 230 330 230 330 234 310 c 1,32,33
 142 310 142 310 84 221 c 1,34,35
 39 154 39 154 39 78 c 0,36,37
 39 -42 39 -42 127 -78 c 0,38,39
 157 -91 157 -91 195 -91 c 0,40,41
 268 -91 268 -91 321 -35 c 128,-1,42
 374 21 374 21 402 107 c 128,-1,43
 430 193 430 193 453 301.5 c 128,-1,44
 476 410 476 410 491 508.5 c 128,-1,45
 506 607 506 607 532 694.5 c 128,-1,46
 558 782 558 782 592 821 c 1,47,48
 505 791 505 791 433.5 725.5 c 128,-1,49
 362 660 362 660 362 582 c 0,50,51
 362 547 362 547 385 547 c 1,52,53
 383 531 383 531 362 531 c 128,-1,54
 341 531 341 531 325 548 c 128,-1,55
 309 565 309 565 309 597 c 0,56,57
 309 647 309 647 348.5 696.5 c 128,-1,58
 388 746 388 746 444 780 c 128,-1,59
 500 814 500 814 559.5 835 c 128,-1,60
 619 856 619 856 662 856 c 0,10,11
EndSplineSet
EndChar

StartChar: Idieresis
Encoding: 207 207 143
Width: 660
GlyphClass: 2
Flags: W
LayerCount: 2
Fore
SplineSet
506 915 m 1,0,1
 483 915 483 915 483 960 c 0,2,3
 483 987 483 987 497 1017 c 128,-1,4
 511 1047 511 1047 538 1047 c 0,5,6
 561 1047 561 1047 561 1021 c 0,7,8
 561 1008 561 1008 547.5 981.5 c 128,-1,9
 534 955 534 955 520 935 c 2,10,-1
 506 915 l 1,0,1
666 915 m 1,11,12
 643 915 643 915 643 960 c 0,13,14
 643 987 643 987 657 1017 c 128,-1,15
 671 1047 671 1047 698 1047 c 0,16,17
 721 1047 721 1047 721 1021 c 0,18,19
 721 1008 721 1008 707.5 981.5 c 128,-1,20
 694 955 694 955 680 935 c 2,21,-1
 666 915 l 1,11,12
662 856 m 0,22,23
 671 856 671 856 676.5 851.5 c 128,-1,24
 682 847 682 847 684 838 c 1,25,26
 617 838 617 838 586 646 c 0,27,28
 573 560 573 560 560 457 c 128,-1,29
 547 354 547 354 524.5 251 c 128,-1,30
 502 148 502 148 467 62.5 c 128,-1,31
 432 -23 432 -23 367 -76.5 c 128,-1,32
 302 -130 302 -130 213.5 -130 c 128,-1,33
 125 -130 125 -130 71.5 -80.5 c 128,-1,34
 18 -31 18 -31 10 40 c 0,35,36
 7 64 7 64 7 99 c 128,-1,37
 7 134 7 134 18 180 c 1,38,39
 33 251 33 251 82 300.5 c 128,-1,40
 131 350 131 350 194 350 c 0,41,42
 210 350 210 350 220 340 c 128,-1,43
 230 330 230 330 234 310 c 1,44,45
 142 310 142 310 84 221 c 1,46,47
 39 154 39 154 39 78 c 0,48,49
 39 -42 39 -42 127 -78 c 0,50,51
 157 -91 157 -91 195 -91 c 0,52,53
 268 -91 268 -91 321 -35 c 128,-1,54
 374 21 374 21 402 107 c 128,-1,55
 430 193 430 193 453 301.5 c 128,-1,56
 476 410 476 410 491 508.5 c 128,-1,57
 506 607 506 607 532 694.5 c 128,-1,58
 558 782 558 782 592 821 c 1,59,60
 505 791 505 791 433.5 725.5 c 128,-1,61
 362 660 362 660 362 582 c 0,62,63
 362 547 362 547 385 547 c 1,64,65
 383 531 383 531 362 531 c 128,-1,66
 341 531 341 531 325 548 c 128,-1,67
 309 565 309 565 309 597 c 0,68,69
 309 647 309 647 348.5 696.5 c 128,-1,70
 388 746 388 746 444 780 c 128,-1,71
 500 814 500 814 559.5 835 c 128,-1,72
 619 856 619 856 662 856 c 0,22,23
EndSplineSet
EndChar

StartChar: Eth
Encoding: 208 208 144
Width: 843
GlyphClass: 2
Flags: W
LayerCount: 2
Fore
SplineSet
49 537 m 0,0,1
 8 537 8 537 8 592.5 c 128,-1,2
 8 648 8 648 60 716 c 0,3,4
 148 830 148 830 308 861 c 0,5,6
 358 870 358 870 411 870 c 0,7,8
 611 870 611 870 704 714 c 1,9,10
 763 613 763 613 763 477 c 0,11,12
 763 432 763 432 757 383 c 0,13,14
 731 189 731 189 618 47 c 0,15,16
 488 -118 488 -118 303 -129 c 1,17,-1
 277 -130 l 1,18,19
 110 -130 110 -130 60 -34 c 0,20,21
 43 -1 43 -1 43 33.5 c 128,-1,22
 43 68 43 68 59 104 c 0,23,24
 86 164 86 164 138 179 c 0,25,26
 150 183 150 183 159.5 183 c 128,-1,27
 169 183 169 183 170.5 176.5 c 128,-1,28
 172 170 172 170 169 163.5 c 128,-1,29
 166 157 166 157 161 157 c 0,30,31
 123 157 123 157 96 109 c 0,32,33
 76 75 76 75 76 46.5 c 128,-1,34
 76 18 76 18 85 -4 c 0,35,36
 119 -86 119 -86 264.5 -86 c 128,-1,37
 410 -86 410 -86 533 65 c 0,38,39
 643 200 643 200 680 385 c 0,40,41
 694 456 694 456 694 518 c 0,42,43
 694 626 694 626 652 706 c 0,44,45
 581 840 581 840 410 840 c 0,46,47
 219 840 219 840 121 714 c 0,48,49
 70 648 70 648 67 588 c 0,50,51
 66 560 66 560 78 560 c 1,52,53
 71 537 71 537 49 537 c 0,0,1
261 36 m 0,55,56
 261 21 261 21 245 21 c 0,57,58
 211 21 211 21 211 111 c 0,59,60
 211 264 211 264 235 411 c 1,61,62
 163 409 163 409 145 409 c 0,63,64
 114 409 114 409 108 431 c 1,65,66
 108 435 108 435 108 441.5 c 128,-1,67
 108 448 108 448 117 451 c 0,68,69
 119 452 119 452 121 452 c 1,70,71
 126 445 126 445 145 445 c 2,72,-1
 241 445 l 1,73,74
 269 597 269 597 314.5 694.5 c 128,-1,75
 360 792 360 792 402 792 c 0,76,77
 420 792 420 792 420 774 c 1,78,79
 366 662 366 662 326 470 c 0,80,81
 322 454 322 454 320 446 c 1,82,83
 380 447 380 447 473 447 c 0,84,85
 483 447 483 447 482 436 c 1,86,87
 479 421 479 421 459 420 c 0,88,89
 457 420 457 420 314 415 c 1,90,54
 261 157 261 157 261 36 c 0,55,56
EndSplineSet
EndChar

StartChar: Ntilde
Encoding: 209 209 145
Width: 779
GlyphClass: 2
Flags: W
LayerCount: 2
Fore
SplineSet
429 1011.5 m 128,-1,1
 449 1021 449 1021 470 1021 c 128,-1,2
 491 1021 491 1021 522 994.5 c 128,-1,3
 553 968 553 968 571 968 c 128,-1,4
 589 968 589 968 602 978 c 128,-1,5
 615 988 615 988 626 1008 c 1,6,-1
 660 1008 l 1,7,8
 632 952 632 952 589 930 c 0,9,10
 571 920 571 920 550 920 c 128,-1,11
 529 920 529 920 496 949.5 c 128,-1,12
 463 979 463 979 448 979 c 128,-1,13
 433 979 433 979 419.5 967.5 c 128,-1,14
 406 956 406 956 400 944 c 1,15,-1
 393 933 l 1,16,-1
 358 933 l 1,17,18
 360 940 360 940 372.5 959.5 c 128,-1,19
 385 979 385 979 397 990.5 c 128,-1,0
 409 1002 409 1002 429 1011.5 c 128,-1,1
593 28 m 0,20,21
 593 -127 593 -127 663 -127 c 0,22,23
 706 -127 706 -127 739 -61 c 0,24,25
 745 -49 745 -49 755 -52.5 c 128,-1,26
 765 -56 765 -56 763 -61 c 0,27,28
 758 -74 758 -74 748 -93 c 128,-1,29
 738 -112 738 -112 711 -138 c 128,-1,30
 684 -164 684 -164 655 -164 c 0,31,32
 519 -164 519 -164 519 48 c 128,-1,33
 519 260 519 260 640 661 c 0,34,35
 649 688 649 688 664 736 c 2,36,-1
 682 797 l 2,37,38
 685 806 685 806 675 806 c 1,39,40
 668 804 668 804 663 800 c 0,41,42
 600 745 600 745 528.5 638 c 128,-1,43
 457 531 457 531 397 412 c 0,44,45
 297 213 297 213 243.5 81.5 c 128,-1,46
 190 -50 190 -50 156 -50 c 0,47,48
 133 -50 133 -50 133 -26 c 2,49,-1
 133 -24 l 1,50,51
 140 -8 140 -8 166 79 c 128,-1,52
 192 166 192 166 208 235 c 0,53,54
 254 432 254 432 258 526 c 0,55,56
 260 552 260 552 260 584.5 c 128,-1,57
 260 617 260 617 255 663 c 128,-1,58
 250 709 250 709 222.5 742.5 c 128,-1,59
 195 776 195 776 149 776 c 0,60,61
 81 776 81 776 53 720 c 0,62,63
 43 699 43 699 43 685 c 128,-1,64
 43 671 43 671 51 671 c 1,65,66
 48 655 48 655 26 655 c 0,67,68
 1 655 1 655 1 691 c 128,-1,69
 1 727 1 727 45 765 c 128,-1,70
 89 803 89 803 154.5 803 c 128,-1,71
 220 803 220 803 257.5 766.5 c 128,-1,72
 295 730 295 730 309 670 c 0,73,74
 326 598 326 598 326 520.5 c 128,-1,75
 326 443 326 443 315 376 c 1,76,-1
 325 376 l 1,77,78
 588 872 588 872 728 872 c 0,79,80
 779 872 779 872 779 816 c 1,81,82
 744 729 744 729 701 580 c 0,83,84
 593 209 593 209 593 28 c 0,20,21
EndSplineSet
EndChar

StartChar: Ograve
Encoding: 210 210 146
Width: 768
GlyphClass: 2
Flags: W
LayerCount: 2
Fore
SplineSet
467 1081 m 1,0,1
 508 1042 508 1042 546 996 c 128,-1,2
 584 950 584 950 584 939.5 c 128,-1,3
 584 929 584 929 572 929 c 128,-1,4
 560 929 560 929 519.5 958 c 128,-1,5
 479 987 479 987 436 1029 c 0,6,7
 419 1045 419 1045 419 1056.5 c 128,-1,8
 419 1068 419 1068 426 1079.5 c 128,-1,9
 433 1091 433 1091 444 1091 c 128,-1,10
 455 1091 455 1091 467 1081 c 1,0,1
324 -27 m 0,11,12
 447 -27 447 -27 536 137 c 1,13,14
 612 280 612 280 628 466 c 0,15,16
 631 504 631 504 631 537 c 0,17,18
 631 650 631 650 594 702 c 1,19,20
 571 731 571 731 540 732 c 1,21,-1
 542 740 l 2,22,23
 544 744 544 744 555.5 751 c 128,-1,24
 567 758 567 758 584 758 c 0,25,26
 657 758 657 758 682 648 c 0,27,28
 693 599 693 599 693 525.5 c 128,-1,29
 693 452 693 452 665 340 c 1,30,31
 612 136 612 136 502 25 c 0,32,33
 414 -65 414 -65 308 -65 c 0,34,35
 161 -65 161 -65 105 81 c 0,36,37
 77 155 77 155 77 240.5 c 128,-1,38
 77 326 77 326 97 418 c 0,39,40
 141 615 141 615 247.5 742.5 c 128,-1,41
 354 870 354 870 479 870 c 0,42,43
 528 870 528 870 542 834 c 0,44,45
 545 826 545 826 545 820 c 2,46,-1
 545 814 l 1,47,48
 534 818 534 818 503 818 c 0,49,50
 385 818 385 818 293 670 c 128,-1,51
 201 522 201 522 175 332 c 0,52,53
 167 273 167 273 167 223 c 0,54,55
 167 110 167 110 208 41.5 c 128,-1,56
 249 -27 249 -27 324 -27 c 0,11,12
EndSplineSet
EndChar

StartChar: Oacute
Encoding: 211 211 147
Width: 768
GlyphClass: 2
Flags: W
LayerCount: 2
Fore
SplineSet
646 1043 m 1,0,1
 613 1003 613 1003 571.5 965.5 c 128,-1,2
 530 928 530 928 519.5 928 c 128,-1,3
 509 928 509 928 509 939 c 128,-1,4
 509 950 509 950 534.5 991 c 128,-1,5
 560 1032 560 1032 595 1071 c 0,6,7
 609 1088 609 1088 621 1088 c 128,-1,8
 633 1088 633 1088 643 1082.5 c 128,-1,9
 653 1077 653 1077 653 1066.5 c 128,-1,10
 653 1056 653 1056 646 1043 c 1,0,1
324 -27 m 0,11,12
 447 -27 447 -27 536 137 c 1,13,14
 612 280 612 280 628 466 c 0,15,16
 631 504 631 504 631 537 c 0,17,18
 631 650 631 650 594 702 c 1,19,20
 571 731 571 731 540 732 c 1,21,-1
 542 740 l 2,22,23
 544 744 544 744 555.5 751 c 128,-1,24
 567 758 567 758 584 758 c 0,25,26
 657 758 657 758 682 648 c 0,27,28
 693 599 693 599 693 525.5 c 128,-1,29
 693 452 693 452 665 340 c 1,30,31
 612 136 612 136 502 25 c 0,32,33
 414 -65 414 -65 308 -65 c 0,34,35
 161 -65 161 -65 105 81 c 0,36,37
 77 155 77 155 77 240.5 c 128,-1,38
 77 326 77 326 97 418 c 0,39,40
 141 615 141 615 247.5 742.5 c 128,-1,41
 354 870 354 870 479 870 c 0,42,43
 528 870 528 870 542 834 c 0,44,45
 545 826 545 826 545 820 c 2,46,-1
 545 814 l 1,47,48
 534 818 534 818 503 818 c 0,49,50
 385 818 385 818 293 670 c 128,-1,51
 201 522 201 522 175 332 c 0,52,53
 167 273 167 273 167 223 c 0,54,55
 167 110 167 110 208 41.5 c 128,-1,56
 249 -27 249 -27 324 -27 c 0,11,12
EndSplineSet
EndChar

